<svg version="1.1" id="Layer_1" xmlns="http://www.w3.org/2000/svg" xmlns:xlink="http://www.w3.org/1999/xlink" x="0px" y="0px"
	 width="100%" viewBox="0 0 860 680" enable-background="new 0 0 860 680" xml:space="preserve">
<path fill="#F7F7F7" opacity="1.000000" stroke="none" 
	d="
M861.000000,255.000000 
	C861.000000,397.333344 861.000000,539.166687 861.000000,681.000000 
	C574.333313,681.000000 287.666656,681.000000 1.000000,681.000000 
	C1.000000,454.333344 1.000000,227.666672 1.000000,1.000000 
	C287.666656,1.000000 574.333313,1.000000 861.000000,1.000000 
	C861.000000,85.500000 861.000000,170.000000 861.000000,255.000000 
M158.110245,465.414398 
	C158.581955,466.382904 159.053680,467.351379 159.712494,468.990234 
	C160.788010,470.984344 161.863541,472.978485 163.049805,475.709381 
	C164.017044,477.787292 164.855789,479.937103 165.971466,481.932007 
	C176.862762,501.406097 188.862457,520.169067 203.833344,536.778442 
	C276.627075,617.539307 367.230530,651.410645 474.942047,637.628357 
	C524.142822,631.332764 568.721680,612.077087 608.718201,582.649902 
	C627.816345,568.598633 645.361023,552.806274 660.746582,533.837280 
	C663.219849,530.609924 665.693176,527.382507 668.718384,523.862854 
	C669.527832,522.677246 670.337280,521.491638 671.735413,519.950562 
	C689.288330,496.158051 703.463501,470.528137 712.971130,442.493530 
	C716.813477,431.163757 719.686523,419.505219 723.434631,407.373322 
	C732.204224,369.261017 733.343384,330.904572 726.935669,292.342194 
	C718.064636,238.955948 696.619873,191.106949 661.850098,149.700150 
	C611.564941,89.816521 547.403198,54.446014 469.810516,43.746181 
	C426.739197,37.806759 384.370667,41.509094 342.966980,54.360687 
	C281.515533,73.435066 230.878830,108.525215 192.068405,159.913483 
	C148.758377,217.259628 128.941040,282.239075 131.023773,354.851868 
	C132.738174,368.237122 134.452576,381.622345 136.065643,395.558838 
	C136.230637,396.079651 136.395630,396.600433 136.541779,397.779388 
	C136.698456,398.185486 136.855148,398.591614 136.939362,399.829590 
	C141.158661,421.006897 147.387619,441.548370 156.541351,461.846649 
	C157.050079,462.719391 157.558807,463.592133 158.135086,464.631348 
	C158.135086,464.631348 158.170547,464.807434 158.110245,465.414398 
z"/>
<path fill="#55AE0D" opacity="1.000000" stroke="none" 
	d="
M131.163300,354.004242 
	C128.941040,282.239075 148.758377,217.259628 192.068405,159.913483 
	C230.878830,108.525215 281.515533,73.435066 342.966980,54.360687 
	C384.370667,41.509094 426.739197,37.806759 469.810516,43.746181 
	C547.403198,54.446014 611.564941,89.816521 661.850098,149.700150 
	C696.619873,191.106949 718.064636,238.955948 726.935669,292.342194 
	C733.343384,330.904572 732.204224,369.261017 722.885498,407.685333 
	C721.893433,408.003693 721.450500,408.010040 721.053406,407.620117 
	C722.442261,399.904541 723.806885,392.589050 725.123047,385.264893 
	C726.744385,376.242828 725.706421,375.000183 716.672119,375.000092 
	C601.857727,374.999084 487.043365,374.998322 372.150757,374.534912 
	C372.072571,364.162292 372.072571,354.252289 372.072571,343.889191 
	C433.881653,343.889191 494.928009,343.889191 556.456421,343.889191 
	C556.456421,334.610657 556.456421,325.803833 556.895386,316.995667 
	C611.124756,316.996613 664.915100,317.000916 718.705444,316.998383 
	C724.541443,316.998138 727.094604,314.460999 726.949585,308.503815 
	C726.885559,305.875244 726.471985,303.231049 725.970703,300.641693 
	C724.377869,292.415283 722.668945,284.211365 721.001099,275.587646 
	C718.327820,265.785187 715.658264,256.393860 712.980713,246.615356 
	C712.675049,245.110107 712.535217,243.919006 712.056458,242.884811 
	C703.965942,225.409286 696.708191,207.470612 687.427368,190.648895 
	C680.281006,177.695953 670.579773,166.152573 661.860840,153.684631 
	C648.381287,137.025040 633.743652,121.989349 616.660706,108.963959 
	C607.944702,102.720116 599.753723,96.286766 591.045044,90.653687 
	C583.317566,85.655258 575.015320,81.545471 566.771362,76.763885 
	C474.446045,31.533401 382.595184,32.350319 290.700684,78.272247 
	C279.053955,85.535889 267.430267,92.273247 256.490692,99.981438 
	C247.892120,106.040108 240.138184,113.297508 231.708435,120.163612 
	C223.573364,128.089935 215.210373,135.421814 208.043549,143.779434 
	C199.810608,153.380295 192.636963,163.889511 184.702011,174.162079 
	C176.823212,187.468582 168.949646,200.459473 161.815414,213.844421 
	C159.010956,219.106049 157.859589,225.248764 155.606506,231.052368 
	C154.574860,231.994568 153.587601,232.773544 153.256638,233.770432 
	C150.092972,243.299301 146.770782,252.788879 144.043182,262.444855 
	C141.952087,269.847473 140.651535,277.473389 138.718552,285.273682 
	C136.947266,299.017151 135.469727,312.488373 133.961868,325.956268 
	C132.926544,335.203766 133.602066,335.999786 142.723068,335.999725 
	C202.717941,335.999298 262.712830,335.998016 322.794678,336.458466 
	C322.823914,348.279846 322.766174,359.639801 322.258087,370.999908 
	C262.325745,371.000031 202.843750,370.986450 143.361832,371.042480 
	C140.575668,371.045105 137.790115,371.667480 134.991699,371.579285 
	C134.652557,367.286102 134.577698,363.369781 133.894974,359.562439 
	C133.544724,357.609222 132.108658,355.850739 131.163300,354.004242 
z"/>
<path fill="#5CBF0C" opacity="1.000000" stroke="none" 
	d="
M162.939056,474.972595 
	C161.863541,472.978485 160.788010,470.984344 159.924362,468.465118 
	C159.481003,466.895813 158.825775,465.851624 158.170547,464.807434 
	C158.170547,464.807434 158.135086,464.631348 158.375824,464.238037 
	C158.418991,462.891663 158.221420,461.938538 157.981934,460.614380 
	C156.578934,456.713348 155.073868,453.231140 153.884827,449.644135 
	C150.839844,440.458282 147.935440,431.225769 145.178177,421.669128 
	C147.572800,420.884186 149.763550,420.058777 151.955368,420.055969 
	C208.871368,419.983307 265.787476,419.996155 322.790955,420.455933 
	C322.819916,446.608276 322.761444,472.298920 322.253632,497.991180 
	C276.961487,497.995209 232.118622,497.964966 187.276184,498.087921 
	C184.802536,498.094696 182.332382,499.374542 179.574356,499.885315 
	C178.876709,499.194824 178.387497,498.725159 178.065674,498.160156 
	C173.818802,490.704346 169.626999,483.216705 165.302292,475.806580 
	C164.981125,475.256287 163.748154,475.238129 162.939056,474.972595 
z"/>
<path fill="#55B20B" opacity="1.000000" stroke="none" 
	d="
M322.703552,419.994232 
	C265.787476,419.996155 208.871368,419.983307 151.955368,420.055969 
	C149.763550,420.058777 147.572800,420.884186 144.908600,421.422546 
	C142.622955,414.012970 140.810257,406.507080 138.932831,398.650208 
	C138.098938,397.906555 137.329788,397.513916 136.560623,397.121246 
	C136.395630,396.600433 136.230637,396.079651 136.471359,395.190979 
	C137.074860,393.515167 137.564728,392.174103 137.421143,390.904755 
	C136.707153,384.593201 135.826340,378.300537 135.004272,372.001221 
	C137.790115,371.667480 140.575668,371.045105 143.361832,371.042480 
	C202.843750,370.986450 262.325745,371.000031 322.342407,371.461823 
	C322.819275,387.947144 322.761414,403.970673 322.703552,419.994232 
z"/>
<path fill="#488417" opacity="1.000000" stroke="none" 
	d="
M162.994431,475.341003 
	C163.748154,475.238129 164.981125,475.256287 165.302292,475.806580 
	C169.626999,483.216705 173.818802,490.704346 178.065674,498.160156 
	C178.387497,498.725159 178.876709,499.194824 179.655884,500.229767 
	C180.726807,502.059082 181.328674,503.434814 182.148010,504.665802 
	C196.922821,526.863464 214.448059,546.684448 234.195862,564.553284 
	C237.232605,567.301086 240.672424,569.603455 244.101013,572.393921 
	C271.315460,594.834229 301.468292,611.484924 334.541412,622.617310 
	C370.101196,634.586609 406.619293,640.673767 444.268066,638.057434 
	C456.177094,637.229797 468.171265,636.616211 479.919250,634.660095 
	C526.083984,626.973328 568.112549,609.106079 606.122681,581.828064 
	C610.286743,578.839661 614.099548,575.361816 618.411743,572.041443 
	C631.038025,560.184204 643.308350,548.376099 655.648376,536.641418 
	C656.848999,535.499756 658.480469,534.811035 659.971069,533.969116 
	C660.030212,534.026184 660.149414,534.139526 660.149414,534.139526 
	C645.361023,552.806274 627.816345,568.598633 608.718201,582.649902 
	C568.721680,612.077087 524.142822,631.332764 474.942047,637.628357 
	C367.230530,651.410645 276.627075,617.539307 203.833344,536.778442 
	C188.862457,520.169067 176.862762,501.406097 165.971466,481.932007 
	C164.855789,479.937103 164.017044,477.787292 162.994431,475.341003 
z"/>
<path fill="#469209" opacity="1.000000" stroke="none" 
	d="
M721.007568,408.016388 
	C721.450500,408.010040 721.893433,408.003693 722.668518,407.996826 
	C719.686523,419.505219 716.813477,431.163757 712.971130,442.493530 
	C703.463501,470.528137 689.288330,496.158051 671.310486,519.859009 
	C670.584290,519.512756 670.282959,519.258118 670.117004,518.686890 
	C673.837158,512.913574 677.421997,507.456879 681.277588,501.804169 
	C696.450928,479.138000 707.453430,454.869873 715.286621,428.768066 
	C717.375000,421.686096 719.191284,414.851227 721.007568,408.016388 
z"/>
<path fill="#4EA10A" opacity="1.000000" stroke="none" 
	d="
M138.997559,399.001221 
	C140.810257,406.507080 142.622955,414.012970 144.705231,421.765381 
	C147.935440,431.225769 150.839844,440.458282 153.884827,449.644135 
	C155.073868,453.231140 156.578934,456.713348 157.565826,460.667603 
	C156.915451,461.134888 156.639267,461.177856 156.363098,461.220856 
	C147.387619,441.548370 141.158661,421.006897 137.306580,399.414124 
	C138.115036,398.999542 138.556305,399.000397 138.997559,399.001221 
z"/>
<path fill="#50A60B" opacity="1.000000" stroke="none" 
	d="
M134.991699,371.579285 
	C135.826340,378.300537 136.707153,384.593201 137.421143,390.904755 
	C137.564728,392.174103 137.074860,393.515167 136.522034,394.915375 
	C134.452576,381.622345 132.738174,368.237122 131.093536,354.428040 
	C132.108658,355.850739 133.544724,357.609222 133.894974,359.562439 
	C134.577698,363.369781 134.652557,367.286102 134.991699,371.579285 
z"/>
<path fill="#488417" opacity="1.000000" stroke="none" 
	d="
M668.166443,524.155151 
	C665.693176,527.382507 663.219849,530.609924 660.447998,533.988403 
	C660.149414,534.139526 660.030212,534.026184 659.956360,533.605347 
	C662.562378,530.097290 665.242188,527.010132 667.982910,523.981201 
	C668.043823,524.039490 668.166443,524.155151 668.166443,524.155151 
z"/>
<path fill="#488417" opacity="1.000000" stroke="none" 
	d="
M669.981689,519.003479 
	C670.282959,519.258118 670.584290,519.512756 671.016113,520.036743 
	C670.337280,521.491638 669.527832,522.677246 668.442383,524.009033 
	C668.166443,524.155151 668.043823,524.039490 667.963928,523.630493 
	C668.583252,521.815491 669.282471,520.409485 669.981689,519.003479 
z"/>
<path fill="#488417" opacity="1.000000" stroke="none" 
	d="
M156.452225,461.533752 
	C156.639267,461.177856 156.915451,461.134888 157.607727,461.038696 
	C158.221420,461.938538 158.418991,462.891663 158.342041,464.154816 
	C157.558807,463.592133 157.050079,462.719391 156.452225,461.533752 
z"/>
<path fill="#488417" opacity="1.000000" stroke="none" 
	d="
M158.140396,465.110901 
	C158.825775,465.851624 159.481003,466.895813 159.830811,468.129944 
	C159.053680,467.351379 158.581955,466.382904 158.140396,465.110901 
z"/>
<path fill="#50A60B" opacity="1.000000" stroke="none" 
	d="
M138.932831,398.650208 
	C138.556305,399.000397 138.115036,398.999542 137.342804,398.998199 
	C136.855148,398.591614 136.698456,398.185486 136.551208,397.450317 
	C137.329788,397.513916 138.098938,397.906555 138.932831,398.650208 
z"/>
<path fill="#FEFFFE" opacity="1.000000" stroke="none" 
	d="
M322.790955,420.455933 
	C322.761414,403.970673 322.819275,387.947144 322.792786,371.461670 
	C322.766174,359.639801 322.823914,348.279846 322.877197,335.996460 
	C322.817627,319.381134 322.762512,303.689240 322.790283,287.535522 
	C322.813751,280.407288 322.754303,273.740845 322.789429,266.609375 
	C322.822754,256.102325 322.761536,246.060257 322.786743,235.559311 
	C322.815979,230.737976 322.758728,226.375519 322.785217,221.568665 
	C322.815552,218.420486 322.762207,215.716705 322.791382,212.574142 
	C322.819855,209.758621 322.765808,207.381897 322.793457,204.551025 
	C322.821045,200.401474 322.766937,196.706055 322.795959,192.548706 
	C322.821808,186.064301 322.764465,180.041855 322.791199,173.557098 
	C322.823639,167.737350 322.772003,162.379913 322.804810,156.560806 
	C322.889252,151.193130 322.889252,146.287109 322.889252,141.399200 
	C409.624603,141.399200 495.439148,141.399200 582.019226,141.399200 
	C582.019226,146.453445 582.019226,151.227859 581.955688,156.465485 
	C581.940308,161.953323 581.988525,166.977966 581.964355,172.458832 
	C581.891968,176.181259 581.891968,179.447479 581.891968,183.174515 
	C511.578217,183.174515 442.041138,183.174515 372.229828,183.174515 
	C372.229828,185.767456 372.229828,187.890564 372.161072,190.466461 
	C372.138794,194.282516 372.185272,197.645752 372.160706,201.461823 
	C372.136200,205.279678 372.182709,208.644699 372.158203,212.468964 
	C372.133759,217.287445 372.180328,221.646683 372.155945,226.439240 
	C372.133423,228.917450 372.181885,230.962357 372.157410,233.456268 
	C372.133087,236.938477 372.181702,239.971664 372.157471,243.464417 
	C372.133484,248.285294 372.182312,252.646622 372.158813,257.470764 
	C372.121979,263.969360 372.157440,270.005157 372.129913,276.503143 
	C372.101929,284.971619 372.136932,292.977875 372.124512,301.271729 
	C372.383240,301.712952 372.689331,301.866608 373.458252,302.102600 
	C434.496399,302.184967 495.071716,302.184967 556.456421,302.184967 
	C556.456421,307.454834 556.456421,312.225922 556.456421,316.997009 
	C556.456421,325.803833 556.456421,334.610657 556.456421,343.889191 
	C494.928009,343.889191 433.881653,343.889191 372.072571,343.889191 
	C372.072571,354.252289 372.072571,364.162292 372.072144,374.997925 
	C372.124786,392.946442 372.177795,409.969421 372.149963,427.455383 
	C372.123291,452.277496 372.177521,476.636597 372.151428,501.455566 
	C372.071136,505.850830 372.071136,509.786194 372.071136,513.695312 
	C355.351410,513.695312 339.279480,513.695312 322.703003,513.695312 
	C322.703003,508.260284 322.703003,503.124939 322.703003,497.989563 
	C322.761444,472.298920 322.819916,446.608276 322.790955,420.455933 
z"/>
<path fill="#56B30B" opacity="1.000000" stroke="none" 
	d="
M372.230835,426.992371 
	C372.177795,409.969421 372.124786,392.946442 372.150360,375.460510 
	C487.043365,374.998322 601.857727,374.999084 716.672119,375.000092 
	C725.706421,375.000183 726.744385,376.242828 725.123047,385.264893 
	C723.806885,392.589050 722.442261,399.904541 721.053345,407.620117 
	C719.191284,414.851227 717.375000,421.686096 715.085144,428.423431 
	C712.418884,427.883942 710.226440,427.056519 708.033447,427.055237 
	C596.099304,426.989899 484.165070,426.994904 372.230835,426.992371 
z"/>
<path fill="#4EA10A" opacity="1.000000" stroke="none" 
	d="
M556.895386,316.995667 
	C556.456421,312.225922 556.456421,307.454834 556.456421,302.184967 
	C495.071716,302.184967 434.496399,302.184967 373.375366,301.891327 
	C372.665161,301.334503 372.445892,301.130005 372.171906,300.984131 
	C372.136932,292.977875 372.101929,284.971619 372.585663,276.485596 
	C388.737061,275.348694 404.369690,274.691559 420.101257,274.425232 
	C420.875610,275.203400 421.533844,275.891846 422.229156,275.931549 
	C429.505280,276.347412 436.787109,276.949341 444.067810,276.955597 
	C525.773438,277.025848 607.479187,277.036224 689.184753,276.955688 
	C699.791809,276.945221 710.398193,276.332520 721.004883,275.998779 
	C722.668945,284.211365 724.377869,292.415283 725.970703,300.641693 
	C726.471985,303.231049 726.885559,305.875244 726.949585,308.503815 
	C727.094604,314.460999 724.541443,316.998138 718.705444,316.998383 
	C664.915100,317.000916 611.124756,316.996613 556.895386,316.995667 
z"/>
<path fill="#50A60B" opacity="1.000000" stroke="none" 
	d="
M322.707428,287.997314 
	C322.762512,303.689240 322.817627,319.381134 322.790222,335.535034 
	C262.712830,335.998016 202.717941,335.999298 142.723068,335.999725 
	C133.602066,335.999786 132.926544,335.203766 133.961868,325.956268 
	C135.469727,312.488373 136.947266,299.017151 139.042175,285.439270 
	C142.569611,286.220825 145.490601,287.878906 148.415878,287.886505 
	C206.512756,288.037842 264.610138,287.998199 322.707428,287.997314 
z"/>
<path fill="#4C9D0A" opacity="1.000000" stroke="none" 
	d="
M322.790283,287.535522 
	C264.610138,287.998199 206.512756,288.037842 148.415878,287.886505 
	C145.490601,287.878906 142.569611,286.220825 139.322998,285.165619 
	C140.651535,277.473389 141.952087,269.847473 144.043182,262.444855 
	C146.770782,252.788879 150.092972,243.299301 153.256638,233.770432 
	C153.587601,232.773544 154.574860,231.994568 156.034393,231.066589 
	C159.757156,231.345810 162.701035,231.931152 165.649521,231.955307 
	C178.439850,232.060074 191.231522,232.001068 204.166748,232.317444 
	C204.594574,233.745819 204.878357,234.858353 205.258545,236.299255 
	C207.351028,242.740204 211.914871,244.942001 217.974808,246.054901 
	C243.595383,250.760086 269.162598,255.761734 294.717163,260.817444 
	C304.088867,262.671539 313.371552,264.975555 322.694855,267.074371 
	C322.754303,273.740845 322.813751,280.407288 322.790283,287.535522 
z"/>
<path fill="#4C9D0A" opacity="1.000000" stroke="none" 
	d="
M721.001099,275.587646 
	C710.398193,276.332520 699.791809,276.945221 689.184753,276.955688 
	C607.479187,277.036224 525.773438,277.025848 444.067810,276.955597 
	C436.787109,276.949341 429.505280,276.347412 422.229156,275.931549 
	C421.533844,275.891846 420.875610,275.203400 420.531616,274.407745 
	C424.628113,273.589539 428.435486,273.410492 432.150574,272.728577 
	C445.743225,270.233490 459.352020,267.789917 472.861847,264.893555 
	C481.679047,263.003235 490.335632,260.363983 499.476990,258.051270 
	C502.946503,257.357208 506.032501,256.780975 509.054932,255.968460 
	C523.718750,252.026367 538.365479,248.020905 553.427979,244.024902 
	C556.744324,243.443542 559.656677,242.902664 562.556702,242.302139 
	C577.513855,239.204956 592.336975,239.620544 607.342468,244.118561 
	C619.417603,249.960342 631.155518,255.661758 642.929443,261.287537 
	C644.355774,261.969025 646.022034,262.753815 647.500671,262.623474 
	C658.538086,261.650726 666.975037,256.861115 671.119873,246.229950 
	C673.233826,247.367096 675.135437,248.756165 677.107544,248.864853 
	C682.877686,249.182800 688.690918,249.252747 694.459351,248.926956 
	C700.652283,248.577194 706.813660,247.667725 712.988770,247.002502 
	C715.658264,256.393860 718.327820,265.785187 721.001099,275.587646 
z"/>
<path fill="#3B7A07" opacity="1.000000" stroke="none" 
	d="
M291.018677,78.164513 
	C382.595184,32.350319 474.446045,31.533401 566.514343,77.040054 
	C564.546692,78.063126 562.636475,78.949440 560.735291,78.930702 
	C547.204407,78.797348 533.675781,78.401405 520.145264,78.337692 
	C518.766113,78.331192 517.379150,79.966446 515.631897,80.760757 
	C507.420166,78.446449 499.665405,75.784920 491.708679,74.049217 
	C455.685730,66.191139 419.348206,65.823151 383.116028,71.739067 
	C365.873657,74.554382 349.014374,79.716347 331.710022,83.551102 
	C329.380676,82.857933 327.327332,82.084770 325.264404,82.058311 
	C315.191986,81.929176 305.116028,81.921860 295.043549,82.047783 
	C292.142822,82.084038 290.579376,81.311531 291.018677,78.164513 
z"/>
<path fill="#469209" opacity="1.000000" stroke="none" 
	d="
M712.980713,246.615356 
	C706.813660,247.667725 700.652283,248.577194 694.459351,248.926956 
	C688.690918,249.252747 682.877686,249.182800 677.107544,248.864853 
	C675.135437,248.756165 673.233826,247.367096 671.127869,245.868484 
	C670.947205,244.446442 670.938660,243.718933 670.960449,242.538330 
	C670.965454,239.054367 670.940308,236.023514 670.956665,232.578262 
	C670.644104,229.773499 670.290039,227.383118 669.962708,224.586395 
	C668.684753,220.112213 667.380005,216.044388 666.046143,211.594604 
	C664.504272,207.761078 662.991577,204.309509 661.402344,200.477219 
	C659.578003,196.388748 657.830139,192.681000 656.013306,188.627930 
	C652.346558,182.839264 648.748901,177.395935 644.970703,171.658020 
	C641.226868,166.568756 637.663452,161.774063 634.522583,156.983826 
	C642.274536,156.659500 649.611877,156.441666 656.927734,155.920532 
	C658.660583,155.797073 660.320923,154.655594 662.014587,153.982422 
	C670.579773,166.152573 680.281006,177.695953 687.427368,190.648895 
	C696.708191,207.470612 703.965942,225.409286 712.056458,242.884811 
	C712.535217,243.919006 712.675049,245.110107 712.980713,246.615356 
z"/>
<path fill="#469209" opacity="1.000000" stroke="none" 
	d="
M204.022705,232.001602 
	C191.231522,232.001068 178.439850,232.060074 165.649521,231.955307 
	C162.701035,231.931152 159.757156,231.345810 156.383286,231.004471 
	C157.859589,225.248764 159.010956,219.106049 161.815414,213.844421 
	C168.949646,200.459473 176.823212,187.468582 184.876587,174.494675 
	C187.213837,175.446182 189.052780,176.821960 190.940887,176.893112 
	C198.014084,177.159607 205.103485,176.977295 212.186539,177.013809 
	C214.170273,177.024033 216.153122,177.207886 218.073288,177.650970 
	C215.959213,182.985535 213.908218,187.981216 211.595947,193.210114 
	C210.188705,197.289932 209.042740,201.136566 207.649796,205.244827 
	C206.639175,208.333527 205.875549,211.160568 205.072784,214.412476 
	C204.736572,217.553543 204.439468,220.269760 204.097946,223.434860 
	C204.043243,226.589691 204.032974,229.295654 204.022705,232.001602 
z"/>
<path fill="#428909" opacity="1.000000" stroke="none" 
	d="
M218.136368,177.312073 
	C216.153122,177.207886 214.170273,177.024033 212.186539,177.013809 
	C205.103485,176.977295 198.014084,177.159607 190.940887,176.893112 
	C189.052780,176.821960 187.213837,175.446182 185.177750,174.336761 
	C192.636963,163.889511 199.810608,153.380295 208.043549,143.779434 
	C215.210373,135.421814 223.573364,128.089935 231.708450,120.582550 
	C231.754623,123.710068 233.495193,124.045135 235.765915,124.021599 
	C242.217575,123.954704 248.672501,123.909943 255.121338,124.060791 
	C256.789886,124.099815 258.440887,124.889450 259.939392,125.597672 
	C258.161285,127.504723 256.543732,129.148407 254.627716,130.953583 
	C246.842850,139.735916 239.356476,148.356766 231.586517,157.144348 
	C227.832458,162.862961 224.361969,168.414841 220.642700,174.151520 
	C219.641388,175.328247 218.888885,176.320160 218.136368,177.312073 
z"/>
<path fill="#3E7F09" opacity="1.000000" stroke="none" 
	d="
M260.099945,125.334297 
	C258.440887,124.889450 256.789886,124.099815 255.121338,124.060791 
	C248.672501,123.909943 242.217575,123.954704 235.765915,124.021599 
	C233.495193,124.045135 231.754623,123.710068 232.009064,120.441360 
	C240.138184,113.297508 247.892120,106.040108 256.490692,99.981438 
	C267.430267,92.273247 279.053955,85.535889 290.700684,78.272247 
	C290.579376,81.311531 292.142822,82.084038 295.043549,82.047783 
	C305.116028,81.921860 315.191986,81.929176 325.264404,82.058311 
	C327.327332,82.084770 329.380676,82.857933 331.459656,83.707092 
	C331.352692,84.276360 331.224457,84.425423 330.792419,84.688354 
	C321.323944,88.867233 312.159332,92.932259 302.643982,97.038864 
	C297.177673,100.019669 292.062134,102.958900 286.627228,106.028366 
	C280.331757,110.713295 274.355652,115.267998 268.048248,119.801125 
	C265.177979,121.631134 262.638947,123.482719 260.099945,125.334297 
z"/>
<path fill="#3E7F09" opacity="1.000000" stroke="none" 
	d="
M515.995850,80.839859 
	C517.379150,79.966446 518.766113,78.331192 520.145264,78.337692 
	C533.675781,78.401405 547.204407,78.797348 560.735291,78.930702 
	C562.636475,78.949440 564.546692,78.063126 566.709717,77.319580 
	C575.015320,81.545471 583.317566,85.655258 591.045044,90.653687 
	C599.753723,96.286766 607.944702,102.720116 616.610352,109.343048 
	C615.200989,110.587395 613.559387,111.851944 611.880188,111.904167 
	C604.621704,112.129921 597.348267,111.873390 590.089539,112.094727 
	C588.370667,112.147148 586.687561,113.370651 584.675476,113.911842 
	C580.339905,111.127800 576.316772,108.487381 572.062256,105.572647 
	C566.906372,102.833405 561.981934,100.368477 556.874268,97.604927 
	C546.855530,93.102249 537.019958,88.898186 526.923218,84.434097 
	C523.106689,83.062675 519.551270,81.951263 515.995850,80.839859 
z"/>
<path fill="#428909" opacity="1.000000" stroke="none" 
	d="
M584.987976,114.055466 
	C586.687561,113.370651 588.370667,112.147148 590.089539,112.094727 
	C597.348267,111.873390 604.621704,112.129921 611.880188,111.904167 
	C613.559387,111.851944 615.200989,110.587395 616.910156,109.501617 
	C633.743652,121.989349 648.381287,137.025040 661.860840,153.684631 
	C660.320923,154.655594 658.660583,155.797073 656.927734,155.920532 
	C649.611877,156.441666 642.274536,156.659500 634.260498,156.815796 
	C632.700378,155.797516 631.824829,154.951706 630.806763,153.796967 
	C629.419800,152.440430 628.101990,151.467758 626.943054,150.332733 
	C620.647644,144.167191 614.391418,137.961578 607.910400,131.515793 
	C602.125610,126.893272 596.552124,122.524727 590.722534,117.925797 
	C588.640259,116.482094 586.814087,115.268784 584.987976,114.055466 
z"/>
<path fill="#62CD0D" opacity="1.000000" stroke="none" 
	d="
M322.253632,497.991180 
	C322.703003,503.124939 322.703003,508.260284 322.703003,513.695312 
	C339.279480,513.695312 355.351410,513.695312 372.071136,513.695312 
	C372.071136,509.786194 372.071136,505.850830 372.604919,501.455963 
	C470.813751,500.997681 568.488770,500.984253 666.163818,501.042511 
	C671.111694,501.045471 676.059143,501.666809 681.006836,502.000244 
	C677.421997,507.456879 673.837158,512.913574 670.117004,518.686890 
	C669.282471,520.409485 668.583252,521.815491 667.903076,523.572266 
	C665.242188,527.010132 662.562378,530.097290 659.897217,533.548218 
	C658.480469,534.811035 656.848999,535.499756 655.648376,536.641418 
	C643.308350,548.376099 631.038025,560.184204 618.206421,571.685913 
	C615.651428,570.933289 613.638855,570.062683 611.624878,570.059326 
	C565.512939,569.982361 519.400940,570.000000 473.288879,570.000000 
	C399.043518,570.000000 324.798126,569.981812 250.552917,570.088684 
	C248.342911,570.091858 246.134811,571.407898 243.925812,572.111816 
	C240.672424,569.603455 237.232605,567.301086 234.195862,564.553284 
	C214.448059,546.684448 196.922821,526.863464 182.148010,504.665802 
	C181.328674,503.434814 180.726807,502.059082 179.942139,500.406250 
	C182.332382,499.374542 184.802536,498.094696 187.276184,498.087921 
	C232.118622,497.964966 276.961487,497.995209 322.253632,497.991180 
z"/>
<path fill="#67D80E" opacity="1.000000" stroke="none" 
	d="
M244.101028,572.393921 
	C246.134811,571.407898 248.342911,570.091858 250.552917,570.088684 
	C324.798126,569.981812 399.043518,570.000000 473.288879,570.000000 
	C519.400940,570.000000 565.512939,569.982361 611.624878,570.059326 
	C613.638855,570.062683 615.651428,570.933289 617.869934,571.755493 
	C614.099548,575.361816 610.286743,578.839661 606.122681,581.828064 
	C568.112549,609.106079 526.083984,626.973328 479.919250,634.660095 
	C468.171265,636.616211 456.177094,637.229797 444.268066,638.057434 
	C406.619293,640.673767 370.101196,634.586609 334.541412,622.617310 
	C301.468292,611.484924 271.315460,594.834229 244.101028,572.393921 
z"/>
<path fill="#5CC00C" opacity="1.000000" stroke="none" 
	d="
M681.277588,501.804199 
	C676.059143,501.666809 671.111694,501.045471 666.163818,501.042511 
	C568.488770,500.984253 470.813751,500.997681 372.685211,500.996094 
	C372.177521,476.636597 372.123291,452.277496 372.149963,427.455383 
	C484.165070,426.994904 596.099304,426.989899 708.033447,427.055237 
	C710.226440,427.056519 712.418884,427.883942 714.812988,428.670532 
	C707.453430,454.869873 696.450928,479.138000 681.277588,501.804199 
z"/>
<path fill="#96BD77" opacity="1.000000" stroke="none" 
	d="
M608.121765,131.769760 
	C614.391418,137.961578 620.647644,144.167191 626.943054,150.332733 
	C628.101990,151.467758 629.419800,152.440430 630.713013,154.180176 
	C629.086853,155.247177 627.413818,155.937408 625.736755,155.947479 
	C611.164673,156.035019 596.591858,156.000519 582.019226,156.002289 
	C582.019226,151.227859 582.019226,146.453445 582.019226,141.399200 
	C495.439148,141.399200 409.624603,141.399200 322.889252,141.399200 
	C322.889252,146.287109 322.889252,151.193130 322.356750,156.555130 
	C291.839539,156.999954 261.854828,156.988785 231.870117,156.977631 
	C239.356476,148.356766 246.842850,139.735916 254.664581,131.385162 
	C256.861572,132.436829 258.721985,133.898285 260.585022,133.901642 
	C325.913269,134.019379 391.241730,134.000000 456.570190,134.000000 
	C504.899902,134.000000 553.229675,134.029144 601.559082,133.905472 
	C603.748474,133.899872 605.934265,132.513184 608.121765,131.769760 
z"/>
<path fill="#7AB24D" opacity="1.000000" stroke="none" 
	d="
M666.075317,211.976562 
	C667.380005,216.044388 668.684753,220.112213 669.500732,224.588776 
	C570.083618,225.333664 471.155243,225.669800 372.226898,226.005936 
	C372.180328,221.646683 372.133759,217.287445 372.611145,212.466629 
	C470.781860,211.995560 568.428589,211.986053 666.075317,211.976562 
z"/>
<path fill="#7EB353" opacity="1.000000" stroke="none" 
	d="
M666.046143,211.594604 
	C568.428589,211.986053 470.781860,211.995560 372.682190,212.007385 
	C372.182709,208.644699 372.136200,205.279678 372.613373,201.459656 
	C466.753754,201.003098 560.370483,201.002655 653.987183,200.994064 
	C656.484436,200.993835 658.981628,200.905289 661.478882,200.857941 
	C662.991577,204.309509 664.504272,207.761078 666.046143,211.594604 
z"/>
<path fill="#82B558" opacity="1.000000" stroke="none" 
	d="
M661.402344,200.477203 
	C658.981628,200.905289 656.484436,200.993835 653.987183,200.994064 
	C560.370483,201.002655 466.753754,201.003098 372.684387,201.006821 
	C372.185272,197.645752 372.138794,194.282516 372.613678,190.463104 
	C464.669037,190.004410 556.203064,190.010910 647.737061,189.956284 
	C650.518982,189.954620 653.300598,189.315277 656.082336,188.973236 
	C657.830139,192.681000 659.578003,196.388748 661.402344,200.477203 
z"/>
<path fill="#73B042" opacity="1.000000" stroke="none" 
	d="
M670.915161,232.992661 
	C670.940308,236.023514 670.965454,239.054367 670.499146,242.541382 
	C650.743286,242.998367 631.479004,242.974792 612.214905,243.041534 
	C610.480957,243.047531 608.749023,243.636856 607.016113,243.955292 
	C592.336975,239.620544 577.513855,239.204956 562.556702,242.302139 
	C559.656677,242.902664 556.744324,243.443542 553.131104,243.726105 
	C550.784851,243.293518 549.145142,243.019058 547.505371,243.018478 
	C489.080353,242.998047 430.655334,243.003235 372.230316,243.004868 
	C372.181702,239.971664 372.133087,236.938477 372.610535,233.454590 
	C472.396088,233.000137 571.655579,232.996399 670.915161,232.992661 
z"/>
<path fill="#87B760" opacity="1.000000" stroke="none" 
	d="
M656.013306,188.627914 
	C653.300598,189.315277 650.518982,189.954620 647.737061,189.956284 
	C556.203064,190.010910 464.669037,190.004410 372.682434,190.010300 
	C372.229828,187.890564 372.229828,185.767456 372.229828,183.174515 
	C442.041138,183.174515 511.578217,183.174515 581.891968,183.174515 
	C581.891968,179.447479 581.891968,176.181259 582.430176,172.458130 
	C603.695923,171.985001 624.423584,171.968796 645.151184,171.952591 
	C648.748901,177.395935 652.346558,182.839264 656.013306,188.627914 
z"/>
<path fill="#70AF3D" opacity="1.000000" stroke="none" 
	d="
M372.157471,243.464417 
	C430.655334,243.003235 489.080353,242.998047 547.505371,243.018478 
	C549.145142,243.019058 550.784851,243.293518 552.721436,243.739075 
	C538.365479,248.020905 523.718750,252.026367 509.054932,255.968460 
	C506.032501,256.780975 502.946503,257.357208 499.090088,257.870758 
	C496.335693,257.466125 494.381256,257.031525 492.426392,257.029724 
	C452.361328,256.992828 412.296265,257.005310 372.231140,257.007965 
	C372.182312,252.646622 372.133484,248.285294 372.157471,243.464417 
z"/>
<path fill="#76B147" opacity="1.000000" stroke="none" 
	d="
M670.956665,232.578262 
	C571.655579,232.996399 472.396088,233.000137 372.683472,233.005569 
	C372.181885,230.962357 372.133423,228.917450 372.155945,226.439240 
	C471.155243,225.669800 570.083618,225.333664 669.473999,224.995132 
	C670.290039,227.383118 670.644104,229.773499 670.956665,232.578262 
z"/>
<path fill="#70AF3D" opacity="1.000000" stroke="none" 
	d="
M322.789429,266.609375 
	C313.371552,264.975555 304.088867,262.671539 294.717163,260.817444 
	C269.162598,255.761734 243.595383,250.760086 217.974808,246.054901 
	C211.914871,244.942001 207.351028,242.740204 205.709885,236.308746 
	C244.943329,235.999329 283.821808,236.008759 322.700317,236.018188 
	C322.761536,246.060257 322.822754,256.102325 322.789429,266.609375 
z"/>
<path fill="#87B760" opacity="1.000000" stroke="none" 
	d="
M218.073288,177.650970 
	C218.888885,176.320160 219.641388,175.328247 221.121307,174.162415 
	C255.468201,173.998795 289.087677,174.009094 322.707153,174.019394 
	C322.764465,180.041855 322.821808,186.064301 322.347534,192.546661 
	C285.162994,192.996689 248.510117,192.986801 211.857239,192.976898 
	C213.908218,187.981216 215.959213,182.985535 218.073288,177.650970 
z"/>
<path fill="#6AAE34" opacity="1.000000" stroke="none" 
	d="
M372.158813,257.470764 
	C412.296265,257.005310 452.361328,256.992828 492.426392,257.029724 
	C494.381256,257.031525 496.335693,257.466125 498.677246,257.879700 
	C490.335632,260.363983 481.679047,263.003235 472.861847,264.893555 
	C459.352020,267.789917 445.743225,270.233490 432.150574,272.728577 
	C428.435486,273.410492 424.628113,273.589539 420.432739,274.016907 
	C404.369690,274.691559 388.737061,275.348694 372.648651,276.023376 
	C372.157440,270.005157 372.121979,263.969360 372.158813,257.470764 
z"/>
<path fill="#8DB969" opacity="1.000000" stroke="none" 
	d="
M322.791199,173.557098 
	C289.087677,174.009094 255.468201,173.998795 221.370117,173.977615 
	C224.361969,168.414841 227.832458,162.862961 231.586533,157.144348 
	C261.854828,156.988785 291.839539,156.999954 322.272278,157.016800 
	C322.772003,162.379913 322.823639,167.737350 322.791199,173.557098 
z"/>
<path fill="#76B147" opacity="1.000000" stroke="none" 
	d="
M322.786743,235.559311 
	C283.821808,236.008759 244.943329,235.999329 205.613495,235.980377 
	C204.878357,234.858353 204.594574,233.745819 204.166748,232.317444 
	C204.032974,229.295654 204.043243,226.589691 204.552032,223.439392 
	C244.267548,222.667709 283.484528,222.340393 322.701508,222.013062 
	C322.758728,226.375519 322.815979,230.737976 322.786743,235.559311 
z"/>
<path fill="#82B558" opacity="1.000000" stroke="none" 
	d="
M211.595947,193.210114 
	C248.510117,192.986801 285.162994,192.996689 322.264343,193.008606 
	C322.766937,196.706055 322.821045,200.401474 322.344849,204.550308 
	C304.530457,205.002289 287.246368,204.994797 269.962311,205.004120 
	C266.141510,205.006180 262.320648,205.101959 258.499908,205.096085 
	C241.632187,205.070114 224.764481,205.022766 207.896774,204.983185 
	C209.042740,201.136566 210.188705,197.289932 211.595947,193.210114 
z"/>
<path fill="#7AB24D" opacity="1.000000" stroke="none" 
	d="
M322.785217,221.568665 
	C283.484528,222.340393 244.267548,222.667709 204.596466,222.990509 
	C204.439468,220.269760 204.736572,217.553543 205.530304,214.416672 
	C244.920914,213.668320 283.814880,213.340622 322.708862,213.012924 
	C322.762207,215.716705 322.815552,218.420486 322.785217,221.568665 
z"/>
<path fill="#7EB353" opacity="1.000000" stroke="none" 
	d="
M322.791382,212.574142 
	C283.814880,213.340622 244.920914,213.668320 205.569427,213.991821 
	C205.875549,211.160568 206.639175,208.333527 207.649796,205.244812 
	C224.764481,205.022766 241.632187,205.070114 258.499908,205.096085 
	C262.320648,205.101959 266.141510,205.006180 269.962311,205.004120 
	C287.246368,204.994797 304.530457,205.002289 322.263123,205.004456 
	C322.765808,207.381897 322.819855,209.758621 322.791382,212.574142 
z"/>
<path fill="#8DB969" opacity="1.000000" stroke="none" 
	d="
M644.970703,171.658020 
	C624.423584,171.968796 603.695923,171.985001 582.502502,172.001907 
	C581.988525,166.977966 581.940308,161.953323 581.955688,156.465485 
	C596.591858,156.000519 611.164673,156.035019 625.736755,155.947479 
	C627.413818,155.937408 629.086853,155.247177 630.855469,154.489090 
	C631.824829,154.951706 632.700378,155.797516 633.838013,156.811356 
	C637.663452,161.774063 641.226868,166.568756 644.970703,171.658020 
z"/>
<path fill="#6AAE34" opacity="1.000000" stroke="none" 
	d="
M372.124512,301.271729 
	C372.445892,301.130005 372.665161,301.334503 372.912537,301.808960 
	C372.689331,301.866608 372.383240,301.712952 372.124512,301.271729 
z"/>
<path fill="#70AF3D" opacity="1.000000" stroke="none" 
	d="
M607.342468,244.118576 
	C608.749023,243.636856 610.480957,243.047531 612.214905,243.041534 
	C631.479004,242.974792 650.743286,242.998367 670.468872,242.994476 
	C670.938660,243.718933 670.947205,244.446442 670.947693,245.535400 
	C666.975037,256.861115 658.538086,261.650726 647.500671,262.623474 
	C646.022034,262.753815 644.355774,261.969025 642.929443,261.287537 
	C631.155518,255.661758 619.417603,249.960342 607.342468,244.118576 
z"/>
<path fill="#ACC896" opacity="1.000000" stroke="none" 
	d="
M515.631897,80.760757 
	C519.551270,81.951263 523.106689,83.062675 526.638977,84.774078 
	C525.160034,85.583000 523.704224,85.973946 522.248352,85.974663 
	C460.773956,86.005157 399.299500,86.015892 337.825195,85.940689 
	C335.581665,85.937943 333.339203,85.049934 331.096252,84.574493 
	C331.224457,84.425423 331.352692,84.276360 331.731232,83.971298 
	C349.014374,79.716347 365.873657,74.554382 383.116028,71.739067 
	C419.348206,65.823151 455.685730,66.191139 491.708679,74.049217 
	C499.665405,75.784920 507.420166,78.446449 515.631897,80.760757 
z"/>
<path fill="#9BBF7D" opacity="1.000000" stroke="none" 
	d="
M607.910400,131.515793 
	C605.934265,132.513184 603.748474,133.899872 601.559082,133.905472 
	C553.229675,134.029144 504.899902,134.000000 456.570190,134.000000 
	C391.241730,134.000000 325.913269,134.019379 260.585022,133.901642 
	C258.721985,133.898285 256.861572,132.436829 254.963074,131.223663 
	C256.543732,129.148407 258.161285,127.504723 259.939392,125.597672 
	C262.638947,123.482719 265.177979,121.631134 268.512299,119.881088 
	C271.755707,120.321747 274.203674,120.956276 276.651947,120.957466 
	C378.501343,121.007103 480.350769,121.000038 582.200195,120.999214 
	C583.365051,120.999207 584.648315,121.300301 585.669006,120.913696 
	C587.521301,120.212120 589.217346,119.098076 590.978638,118.156189 
	C596.552124,122.524727 602.125610,126.893272 607.910400,131.515793 
z"/>
<path fill="#A0C285" opacity="1.000000" stroke="none" 
	d="
M590.722534,117.925804 
	C589.217346,119.098076 587.521301,120.212120 585.669006,120.913696 
	C584.648315,121.300301 583.365051,120.999207 582.200195,120.999214 
	C480.350769,121.000038 378.501343,121.007103 276.651947,120.957466 
	C274.203674,120.956276 271.755707,120.321747 268.843567,119.902664 
	C274.355652,115.267998 280.331757,110.713295 286.866699,106.341759 
	C289.310364,107.016556 291.194824,107.936852 293.080017,107.938301 
	C384.228729,108.008682 475.377472,108.013000 566.526123,107.909950 
	C568.449463,107.907776 570.371216,106.564568 572.293701,105.846954 
	C576.316772,108.487381 580.339905,111.127800 584.675476,113.911850 
	C586.814087,115.268784 588.640259,116.482094 590.722534,117.925804 
z"/>
<path fill="#A7C58F" opacity="1.000000" stroke="none" 
	d="
M330.792419,84.688354 
	C333.339203,85.049934 335.581665,85.937943 337.825195,85.940689 
	C399.299500,86.015892 460.773956,86.005157 522.248352,85.974663 
	C523.704224,85.973946 525.160034,85.583000 526.900146,85.034096 
	C537.019958,88.898186 546.855530,93.102249 556.580811,97.911934 
	C555.333557,98.678322 554.196655,98.979515 553.059631,98.979820 
	C471.466095,99.001801 389.872528,99.012405 308.279083,98.916252 
	C306.516907,98.914177 304.756134,97.664803 302.994720,96.997284 
	C312.159332,92.932259 321.323944,88.867233 330.792419,84.688354 
z"/>
<path fill="#A4C48B" opacity="1.000000" stroke="none" 
	d="
M302.643982,97.038857 
	C304.756134,97.664803 306.516907,98.914177 308.279083,98.916252 
	C389.872528,99.012405 471.466095,99.001801 553.059631,98.979820 
	C554.196655,98.979515 555.333557,98.678322 556.764038,98.210556 
	C561.981934,100.368477 566.906372,102.833405 572.062256,105.572647 
	C570.371216,106.564568 568.449463,107.907776 566.526123,107.909950 
	C475.377472,108.013000 384.228729,108.008682 293.080017,107.938301 
	C291.194824,107.936852 289.310364,107.016556 287.186096,106.211525 
	C292.062134,102.958900 297.177673,100.019669 302.643982,97.038857 
z"/>
</svg>