<?xml version="1.0" encoding="UTF-8"?>
<svg version="1.1" xmlns="http://www.w3.org/2000/svg" width="512" height="512">
<path d="M0 0 C0.77747268 -0.00438225 1.55494537 -0.00876451 2.35597783 -0.01327956 C4.94576132 -0.02657083 7.53551087 -0.03282443 10.12532043 -0.03897095 C11.98863373 -0.04687942 13.85194552 -0.05514882 15.71525574 -0.06375122 C21.82043514 -0.08988042 27.92562109 -0.10526759 34.03083801 -0.11953735 C36.13772905 -0.12490037 38.24462004 -0.13027788 40.351511 -0.13566971 C49.11798987 -0.15728313 57.88446696 -0.17601853 66.65096569 -0.1872921 C79.18935897 -0.20352622 91.7274422 -0.23670889 104.26571864 -0.29369295 C113.09654748 -0.332452 121.92729359 -0.35193173 130.75820524 -0.35721266 C136.02582617 -0.36085727 141.29311571 -0.37278444 146.56064415 -0.4053154 C151.51923369 -0.4355019 156.47729309 -0.44167021 161.43595505 -0.42993164 C163.24829274 -0.42971181 165.06065582 -0.43794163 166.87290764 -0.45558548 C180.17482148 -0.57796703 191.24958255 0.72030114 201.31208801 10.4078064 C210.52210932 20.00426217 213.50758619 29.11066724 213.27302551 42.24765015 C212.69457815 50.17158656 209.78927725 56.85205216 204.98786926 63.15390015 C204.10034973 64.35852905 204.10034973 64.35852905 203.19490051 65.5874939 C200.874838 68.2853365 198.67880887 69.95097493 195.67536926 71.84140015 C194.77173645 72.42276733 193.86810364 73.00413452 192.93708801 73.6031189 C187.21169569 76.61368943 181.70648042 77.44918833 175.31259155 77.39440918 C174.20106095 77.39697245 174.20106095 77.39697245 173.06707519 77.39958751 C170.60120091 77.40286363 168.13560295 77.39190998 165.66975403 77.38095093 C163.89534512 77.38038641 162.12093574 77.38070417 160.3465271 77.38183594 C155.5412686 77.38240885 150.73611031 77.37066438 145.93087506 77.35668802 C140.90470722 77.34417053 135.87853698 77.34300936 130.85235596 77.34063721 C121.33983815 77.33442544 111.82736641 77.3180187 102.31486887 77.29793823 C91.48299647 77.27556981 80.65112186 77.26458342 69.81923211 77.25454736 C47.54207975 77.23365222 25.26499053 77.19697974 2.98786926 77.15390015 C2.98786926 100.58390015 2.98786926 124.01390015 2.98786926 148.15390015 C14.05769348 148.08429077 14.05769348 148.08429077 25.35115051 148.01327515 C30.0406178 147.99282478 34.73002971 147.97356809 39.41950989 147.95858765 C46.85460399 147.93472342 54.2895001 147.90656318 61.72444153 147.85214233 C67.72207999 147.80851925 73.71950595 147.78472811 79.71729088 147.77439117 C81.99971547 147.76702935 84.2821291 147.75265371 86.56446266 147.73097992 C89.77396442 147.7017276 92.98260028 147.69795331 96.19221497 147.69979858 C97.12514374 147.68541748 98.05807251 147.67103638 99.01927185 147.65621948 C110.34600766 147.72618388 119.65853862 151.91268083 127.67146301 159.8140564 C135.60261105 168.49678454 138.48210664 178.51931466 138.23396301 190.13827515 C137.39779903 200.384602 132.77386718 209.89108039 125.30036926 216.96640015 C116.10823821 224.44384521 106.52717378 226.31149331 95.05696106 226.26742554 C94.06136673 226.26757156 93.0657724 226.26771759 92.04000854 226.26786804 C88.75567939 226.26717247 85.47140724 226.25939667 82.18708801 226.2515564 C79.90736929 226.24969096 77.62765017 226.24826765 75.34793091 226.24726868 C69.35234975 226.24345344 63.35679288 226.2336316 57.36122131 226.2225647 C51.24133126 226.21232924 45.12143728 226.20776648 39.00154114 226.20272827 C26.99697319 226.19200847 14.99242324 226.17494394 2.98786926 226.15390015 C2.99675171 227.44048019 3.00563416 228.72706024 3.01478577 230.05262756 C3.09611828 242.21878059 3.1559528 254.38487795 3.19511795 266.55124187 C3.21593051 272.80505962 3.24413227 279.05865665 3.28962708 285.31234741 C3.33331077 291.35538189 3.35705391 297.39820499 3.36737823 303.44138527 C3.37472929 305.73890316 3.38908347 308.0364104 3.41078949 310.33383751 C3.56719511 327.58526532 3.13938576 341.70342844 -9.01213074 355.15390015 C-19.2557876 365.09627298 -30.03865146 368.44563331 -44.01579285 368.47079468 C-56.52456679 368.2675224 -66.09282416 362.84231069 -75.19963074 354.52890015 C-84.75313808 344.55587751 -87.33059048 332.14613206 -87.26609802 318.82670593 C-87.269218 317.82434015 -87.27233799 316.82197437 -87.27555251 315.78923386 C-87.28349213 312.45019782 -87.27722449 309.11134556 -87.2709198 305.77230835 C-87.27363154 303.37008051 -87.27719349 300.96785349 -87.28153992 298.56562805 C-87.28970192 292.72875931 -87.2885219 286.89194837 -87.28271464 281.05507789 C-87.27818675 276.30617117 -87.27759011 271.55727885 -87.27976227 266.80837059 C-87.28006873 266.13089326 -87.2803752 265.45341592 -87.28069095 264.75540897 C-87.28133045 263.37880101 -87.28197888 262.00219305 -87.28263614 260.6255851 C-87.28833314 247.72992325 -87.28179256 234.83428987 -87.2710354 221.93863269 C-87.26211059 210.89847643 -87.26364432 199.85836227 -87.27287292 188.81820679 C-87.28360421 175.97453516 -87.28777325 163.13088851 -87.2816484 150.28721303 C-87.28101136 148.91431153 -87.28038262 147.54141003 -87.27976227 146.16850853 C-87.27945372 145.49316226 -87.27914517 144.817816 -87.27882726 144.12200469 C-87.27710812 139.38707385 -87.27999871 134.65215898 -87.28472137 129.91723061 C-87.29052534 123.52729872 -87.28644229 117.13744577 -87.27493286 110.74752235 C-87.27230199 108.41035086 -87.27302427 106.07317265 -87.27745819 103.73600388 C-87.32697238 74.97020304 -82.92751618 50.07174665 -63.01213074 28.15390015 C-62.46170105 27.52225952 -61.91127136 26.8906189 -61.34416199 26.23983765 C-45.99938939 9.64475024 -22.32912752 0.01555353 0 0 Z " fill="#01CC9E" transform="translate(193.0121307373047,71.84609985351563)"/>
<path d="M0 0 C1.44997302 -0.00735408 2.89994021 -0.01594416 4.34989929 -0.02566528 C8.26119769 -0.04774848 12.1722846 -0.05081867 16.08363676 -0.04891777 C19.36117411 -0.04879746 22.63866761 -0.05738591 25.91619265 -0.06569529 C33.65493337 -0.08488159 41.39356624 -0.08783053 49.13232422 -0.08105469 C57.08840954 -0.07441622 65.044031 -0.09728123 73.00002229 -0.13436842 C79.85643265 -0.16515795 86.71269448 -0.1764155 93.5691725 -0.1725316 C97.65297108 -0.17047377 101.73640839 -0.17579273 105.82014084 -0.20042419 C109.66343149 -0.22284304 113.50597253 -0.22068981 117.34926796 -0.20049667 C118.75039196 -0.19711323 120.15156797 -0.20205927 121.55262184 -0.21648026 C133.67945284 -0.33257728 143.78115947 2.08576845 152.70166016 10.67382812 C161.91168147 20.2702839 164.89715834 29.37668897 164.66259766 42.51367188 C164.0841503 50.43760829 161.17884939 57.11807389 156.37744141 63.41992188 C155.48992187 64.62455078 155.48992187 64.62455078 154.58447266 65.85351562 C152.26441014 68.55135823 150.06838102 70.21699666 147.06494141 72.10742188 C146.16130859 72.68878906 145.25767578 73.27015625 144.32666016 73.86914062 C138.60126783 76.87971116 133.09605257 77.71521006 126.7021637 77.66043091 C125.5906331 77.66299418 125.5906331 77.66299418 124.45664734 77.66560924 C121.99077306 77.66888536 119.52517509 77.65793171 117.05932617 77.64697266 C115.28491726 77.64640814 113.51050788 77.6467259 111.73609924 77.64785767 C106.93084074 77.64843058 102.12568246 77.6366861 97.32044721 77.62270975 C92.29427936 77.61019226 87.26810913 77.60903109 82.2419281 77.60665894 C72.72941029 77.60044717 63.21693855 77.58404043 53.70444101 77.56395996 C42.87256862 77.54159154 32.040694 77.53060515 21.20880425 77.52056909 C-1.06834239 77.49967395 -23.34544759 77.46450384 -45.62255859 77.41992188 C-45.75034382 70.66150324 -45.8373189 63.90340114 -45.8972168 57.14404297 C-45.92221193 54.84932819 -45.9562197 52.55469181 -45.99975586 50.26025391 C-46.53035625 21.55789384 -46.53035625 21.55789384 -36.40771484 10.94335938 C-25.49909658 1.63403526 -13.91878239 -0.0336375 0 0 Z " fill="#009068" transform="translate(241.62255859375,71.580078125)"/>
<path d="M0 0 C25.51365927 -0.16043524 25.51365927 -0.16043524 36.43164062 -0.1953125 C43.86673473 -0.21917673 51.30163084 -0.24733697 58.73657227 -0.30175781 C64.73421072 -0.3453809 70.73163669 -0.36917204 76.72942162 -0.37950897 C79.01184621 -0.3868708 81.29425984 -0.40124644 83.5765934 -0.42292023 C86.78609516 -0.45217255 89.99473101 -0.45594684 93.2043457 -0.45410156 C94.13727448 -0.46848267 95.07020325 -0.48286377 96.03140259 -0.49768066 C107.35813839 -0.42771627 116.67066936 3.75878069 124.68359375 11.66015625 C132.61474178 20.3428844 135.49423738 30.36541451 135.24609375 41.984375 C134.40992977 52.23070185 129.78599792 61.73718025 122.3125 68.8125 C113.12036895 76.28994506 103.53930452 78.15759317 92.0690918 78.11352539 C91.07349747 78.11367142 90.07790314 78.11381744 89.05213928 78.1139679 C85.76781012 78.11327232 82.48353798 78.10549652 79.19921875 78.09765625 C76.91950003 78.09579081 74.63978091 78.0943675 72.36006165 78.09336853 C66.36448049 78.08955329 60.36892362 78.07973146 54.37335205 78.06866455 C47.17716728 78.056629 39.98097437 78.05204346 32.78478241 78.04621124 C21.85650472 78.0365192 10.92828031 78.01735566 0 78 C0 52.26 0 26.52 0 0 Z " fill="#009067" transform="translate(196,220)"/>
</svg>
