<svg version="1.1" id="Layer_1" xmlns="http://www.w3.org/2000/svg" xmlns:xlink="http://www.w3.org/1999/xlink" x="0px" y="0px"
	 width="100%" viewBox="0 0 225 225" enable-background="new 0 0 225 225" xml:space="preserve">
<path fill="#FEFEFD" opacity="1.000000" stroke="none" 
	d="
M134.000000,226.000000 
	C89.333336,226.000000 45.166672,226.000000 1.000006,226.000000 
	C1.000004,151.000000 1.000004,76.000015 1.000002,1.000016 
	C75.999992,1.000011 150.999985,1.000011 225.999969,1.000005 
	C225.999985,75.999985 225.999985,150.999969 226.000000,225.999969 
	C195.500000,226.000000 165.000000,226.000000 134.000000,226.000000 
M187.181000,122.761757 
	C188.468506,122.503723 189.755997,122.245689 191.202530,121.499359 
	C191.145096,121.338120 191.087646,121.176872 191.157227,120.102242 
	C191.149689,116.704163 191.142151,113.306076 191.603821,109.388977 
	C192.718246,108.276932 193.730652,106.356804 194.965790,106.200859 
	C199.047974,105.685471 198.113693,103.579620 197.666595,101.988686 
	C194.235352,101.693619 191.487427,101.408546 188.732117,101.264763 
	C188.228683,101.238487 187.695206,101.787796 186.924698,102.968407 
	C186.963211,108.972786 187.001724,114.977165 186.875977,121.487114 
	C186.921417,121.658371 186.966873,121.829636 187.181000,122.761757 
M19.961916,123.334190 
	C27.628412,123.260841 35.294910,123.187492 43.500683,123.240456 
	C43.679199,123.193352 43.857712,123.146248 44.808987,122.677231 
	C44.808987,117.115135 44.808987,111.553040 44.808987,106.946548 
	C47.795490,104.525597 54.033154,108.264038 52.038338,101.242546 
	C49.589157,101.107384 47.474899,100.990707 45.468750,100.880005 
	C43.403221,94.124802 48.115410,94.125252 52.775002,93.148384 
	C51.999783,91.677544 51.051865,90.260735 49.940926,90.118668 
	C43.640537,89.312935 41.539116,91.534279 39.194214,101.312202 
	C30.293110,101.312202 21.263227,101.312202 11.330641,101.312202 
	C13.696355,109.018166 15.846008,116.020348 18.502121,123.264343 
	C18.684103,123.220985 18.866083,123.177620 19.961916,123.334190 
M164.967239,121.637253 
	C170.355743,127.130295 176.890198,119.923706 182.498169,123.187218 
	C182.590561,123.240974 182.968750,122.803566 183.283569,122.535835 
	C183.283569,115.649277 183.283569,108.717636 183.283569,102.129150 
	C178.712692,101.748268 174.381516,100.787857 170.212204,101.259163 
	C167.607452,101.553619 164.621475,103.497078 162.908112,105.598640 
	C159.456375,109.832428 160.360992,115.838966 164.967239,121.637253 
M88.292191,105.446136 
	C84.143005,100.962967 79.262199,99.739677 74.472458,101.982452 
	C70.197624,103.984138 67.850807,108.796585 68.553009,114.121017 
	C69.247566,119.387421 72.710892,122.955162 77.880615,123.729820 
	C82.738541,124.457764 86.552383,122.309807 89.727158,116.032364 
	C86.731300,117.226639 84.697784,117.757996 82.958328,118.786621 
	C78.848953,121.216682 75.173706,119.631050 73.723557,114.002609 
	C79.221619,114.002609 84.574890,114.002609 90.671616,114.002609 
	C89.894936,110.825935 89.316010,108.458076 88.292191,105.446136 
M118.002052,94.840286 
	C116.644112,94.505905 115.286171,94.171532 113.785858,93.802101 
	C113.785858,104.024734 113.785858,113.441093 113.785858,123.303436 
	C115.343674,123.201752 116.677925,123.114655 118.107712,123.021324 
	C118.107712,118.691864 118.044289,114.874313 118.125870,111.059868 
	C118.204781,107.370018 119.909622,104.937469 123.866081,105.085800 
	C127.572548,105.224754 128.996719,107.684883 129.023361,111.121689 
	C129.053864,115.057999 129.030441,118.994728 129.030441,123.365540 
	C130.916733,123.163460 132.293213,123.015999 133.671310,122.868362 
	C133.671310,118.146988 133.921173,113.815117 133.613297,109.523239 
	C133.140747,102.935745 127.924652,99.560066 121.674492,101.508064 
	C120.601913,101.842361 119.575226,102.323929 118.080093,102.913963 
	C118.080093,100.264526 118.080093,97.985466 118.002052,94.840286 
M103.623184,114.991997 
	C104.075592,116.258202 104.528000,117.524414 104.980408,118.790619 
	C102.863243,118.711082 100.696609,118.882034 98.643822,118.476562 
	C96.845352,118.121323 95.174721,117.118843 93.447624,116.402267 
	C95.426430,122.883514 99.943344,125.302711 105.028336,123.171066 
	C107.223473,122.250854 109.749557,119.610245 110.047035,117.463219 
	C110.287170,115.730103 107.707405,113.181396 105.821022,111.708771 
	C104.222061,110.460518 101.737579,110.412590 99.822762,109.471664 
	C99.014565,109.074524 98.083206,107.608170 98.259254,106.883102 
	C98.451927,106.089569 99.924980,105.001984 100.723328,105.090858 
	C102.220718,105.257545 103.619087,106.218697 105.086533,106.775978 
	C106.574028,107.340866 108.095253,107.816971 109.601700,108.331955 
	C109.980728,107.713882 110.359756,107.095818 110.738785,106.477745 
	C108.648384,104.742355 106.698715,101.828217 104.433411,101.557762 
	C101.315125,101.185455 97.469391,102.060448 94.830269,103.777031 
	C91.704079,105.810425 92.715393,110.483711 96.289368,112.416298 
	C98.302368,113.504807 100.634758,114.002678 103.623184,114.991997 
M138.071152,106.931541 
	C137.723801,109.367760 136.970032,111.828133 137.113037,114.235214 
	C137.417801,119.364960 141.262421,123.086075 146.368896,123.780769 
	C151.502548,124.479172 155.423187,122.018036 157.796768,115.667259 
	C155.377533,116.567909 153.412506,116.794533 152.172424,117.862747 
	C149.297241,120.339470 146.541351,120.674500 143.757614,118.161255 
	C141.055313,115.721504 141.042374,109.249763 143.721970,106.705521 
	C146.445938,104.119148 149.211899,104.381989 152.127762,106.796364 
	C153.331985,107.793480 155.196014,107.993752 157.499405,108.822479 
	C156.473999,103.328560 153.468933,101.718735 149.914963,101.140205 
	C145.101776,100.356705 141.042709,101.784676 138.071152,106.931541 
M203.893051,115.308250 
	C204.000717,121.831421 206.175812,124.178177 211.557861,123.323349 
	C212.397552,123.189972 213.089752,122.128136 213.850143,121.495628 
	C213.276901,120.857971 212.711777,119.679489 212.129135,119.670769 
	C208.457748,119.615799 208.322189,117.254066 208.391586,114.545227 
	C208.467316,111.589310 208.408813,108.629951 208.408813,106.709206 
	C210.765549,105.084419 212.294876,104.030075 213.824203,102.975739 
	C212.291458,102.081177 210.758728,101.186623 209.225998,100.292068 
	C209.340668,100.100441 209.455338,99.908813 209.570007,99.717186 
	C208.123596,98.798164 206.677200,97.879143 205.230804,96.960121 
	C203.932831,99.399834 202.634842,101.839546 201.336853,104.279259 
	C205.910828,106.708885 203.116791,111.000710 203.893051,115.308250 
M55.857147,107.650856 
	C55.857147,112.754120 55.857147,117.857376 55.857147,122.864258 
	C58.982300,123.889641 59.938591,123.258194 60.291473,120.177872 
	C60.908653,114.790474 56.740952,107.144089 66.376183,105.403702 
	C66.507141,105.380035 66.605118,105.173759 66.940208,104.815987 
	C66.841492,103.766960 66.722656,102.504204 66.675194,101.999786 
	C62.928780,101.999786 59.575096,101.999786 55.857475,101.999786 
	C55.857475,103.438492 55.857475,105.073845 55.857147,107.650856 
M19.239521,127.030663 
	C16.380888,130.359619 16.370285,133.104706 19.398775,134.002640 
	C20.631094,134.368027 22.574358,134.129211 23.466181,133.341309 
	C24.345396,132.564514 25.034731,130.130295 24.514311,129.512482 
	C23.435286,128.231537 21.499159,127.672569 19.239521,127.030663 
M37.974018,131.257492 
	C39.748772,132.221603 41.450809,133.506470 43.346699,133.936249 
	C43.854362,134.051361 45.687901,131.489929 45.576992,130.279633 
	C45.463528,129.041397 43.256344,126.807503 42.756493,127.005547 
	C40.958584,127.717865 39.494709,129.273270 37.974018,131.257492 
z"/>
<path fill="#41AD5F" opacity="1.000000" stroke="none" 
	d="
M17.995661,123.022530 
	C15.846008,116.020348 13.696355,109.018166 11.330641,101.312202 
	C21.263227,101.312202 30.293110,101.312202 39.194214,101.312202 
	C41.539116,91.534279 43.640537,89.312935 49.940926,90.118668 
	C51.051865,90.260735 51.999783,91.677544 52.775002,93.148384 
	C48.115410,94.125252 43.403221,94.124802 45.468750,100.880005 
	C47.474899,100.990707 49.589157,101.107384 52.038338,101.242546 
	C54.033154,108.264038 47.795490,104.525597 44.808987,106.946548 
	C44.808987,111.553040 44.808987,117.115135 44.322182,122.705536 
	C43.544048,122.860603 43.252728,122.987373 42.961407,123.114136 
	C35.294910,123.187492 27.628412,123.260841 19.417959,123.049881 
	C18.581221,122.851219 18.288441,122.936874 17.995661,123.022530 
M18.876925,110.557510 
	C19.294855,112.497925 19.461678,114.544800 20.222626,116.339806 
	C20.697367,117.459686 22.034697,118.939827 23.043865,118.986588 
	C28.600960,119.244102 34.176216,119.109627 39.684513,119.109627 
	C39.684513,114.311966 39.684513,110.239128 39.684513,105.720230 
	C35.943588,105.720230 32.494156,105.720230 29.044725,105.720230 
	C25.431742,105.720230 21.818760,105.720230 17.907005,105.720230 
	C18.218483,107.492607 18.416124,108.617226 18.876925,110.557510 
z"/>
<path fill="#E9712A" opacity="1.000000" stroke="none" 
	d="
M164.679855,121.387085 
	C160.360992,115.838966 159.456375,109.832428 162.908112,105.598640 
	C164.621475,103.497078 167.607452,101.553619 170.212204,101.259163 
	C174.381516,100.787857 178.712692,101.748268 183.283569,102.129150 
	C183.283569,108.717636 183.283569,115.649277 183.283569,122.535835 
	C182.968750,122.803566 182.590561,123.240974 182.498169,123.187218 
	C176.890198,119.923706 170.355743,127.130295 164.679855,121.387085 
M176.650406,106.833672 
	C173.445145,104.192772 170.292084,104.257919 167.410110,107.248680 
	C164.958389,109.792946 164.788620,115.395454 167.729599,117.581886 
	C169.574432,118.953392 173.185394,119.766212 175.080002,118.872040 
	C178.915146,117.062004 179.875031,113.246452 178.143951,109.125420 
	C177.891815,108.525162 177.497650,107.984558 176.650406,106.833672 
z"/>
<path fill="#3EAC5D" opacity="1.000000" stroke="none" 
	d="
M88.514633,105.768173 
	C89.316010,108.458076 89.894936,110.825935 90.671616,114.002609 
	C84.574890,114.002609 79.221619,114.002609 73.723557,114.002609 
	C75.173706,119.631050 78.848953,121.216682 82.958328,118.786621 
	C84.697784,117.757996 86.731300,117.226639 89.727158,116.032364 
	C86.552383,122.309807 82.738541,124.457764 77.880615,123.729820 
	C72.710892,122.955162 69.247566,119.387421 68.553009,114.121017 
	C67.850807,108.796585 70.197624,103.984138 74.472458,101.982452 
	C79.262199,99.739677 84.143005,100.962967 88.514633,105.768173 
M74.900436,110.224869 
	C78.241936,110.224869 81.583435,110.224869 85.320763,110.224869 
	C84.157906,105.763283 81.533905,104.210052 78.425713,105.139694 
	C76.665604,105.666145 75.509819,108.213089 74.900436,110.224869 
z"/>
<path fill="#3EAC5D" opacity="1.000000" stroke="none" 
	d="
M118.041077,95.273346 
	C118.080093,97.985466 118.080093,100.264526 118.080093,102.913963 
	C119.575226,102.323929 120.601913,101.842361 121.674492,101.508064 
	C127.924652,99.560066 133.140747,102.935745 133.613297,109.523239 
	C133.921173,113.815117 133.671310,118.146988 133.671310,122.868362 
	C132.293213,123.015999 130.916733,123.163460 129.030441,123.365540 
	C129.030441,118.994728 129.053864,115.057999 129.023361,111.121689 
	C128.996719,107.684883 127.572548,105.224754 123.866081,105.085800 
	C119.909622,104.937469 118.204781,107.370018 118.125870,111.059868 
	C118.044289,114.874313 118.107712,118.691864 118.107712,123.021324 
	C116.677925,123.114655 115.343674,123.201752 113.785858,123.303436 
	C113.785858,113.441093 113.785858,104.024734 113.785858,93.802101 
	C115.286171,94.171532 116.644112,94.505905 118.041077,95.273346 
z"/>
<path fill="#3EAC5D" opacity="1.000000" stroke="none" 
	d="
M103.223221,114.879311 
	C100.634758,114.002678 98.302368,113.504807 96.289368,112.416298 
	C92.715393,110.483711 91.704079,105.810425 94.830269,103.777031 
	C97.469391,102.060448 101.315125,101.185455 104.433411,101.557762 
	C106.698715,101.828217 108.648384,104.742355 110.738785,106.477745 
	C110.359756,107.095818 109.980728,107.713882 109.601700,108.331955 
	C108.095253,107.816971 106.574028,107.340866 105.086533,106.775978 
	C103.619087,106.218697 102.220718,105.257545 100.723328,105.090858 
	C99.924980,105.001984 98.451927,106.089569 98.259254,106.883102 
	C98.083206,107.608170 99.014565,109.074524 99.822762,109.471664 
	C101.737579,110.412590 104.222061,110.460518 105.821022,111.708771 
	C107.707405,113.181396 110.287170,115.730103 110.047035,117.463219 
	C109.749557,119.610245 107.223473,122.250854 105.028336,123.171066 
	C99.943344,125.302711 95.426430,122.883514 93.447624,116.402267 
	C95.174721,117.118843 96.845352,118.121323 98.643822,118.476562 
	C100.696609,118.882034 102.863243,118.711082 104.980408,118.790619 
	C104.528000,117.524414 104.075592,116.258202 103.223221,114.879311 
z"/>
<path fill="#E97430" opacity="1.000000" stroke="none" 
	d="
M138.258408,106.585625 
	C141.042709,101.784676 145.101776,100.356705 149.914963,101.140205 
	C153.468933,101.718735 156.473999,103.328560 157.499405,108.822479 
	C155.196014,107.993752 153.331985,107.793480 152.127762,106.796364 
	C149.211899,104.381989 146.445938,104.119148 143.721970,106.705521 
	C141.042374,109.249763 141.055313,115.721504 143.757614,118.161255 
	C146.541351,120.674500 149.297241,120.339470 152.172424,117.862747 
	C153.412506,116.794533 155.377533,116.567909 157.796768,115.667259 
	C155.423187,122.018036 151.502548,124.479172 146.368896,123.780769 
	C141.262421,123.086075 137.417801,119.364960 137.113037,114.235214 
	C136.970032,111.828133 137.723801,109.367760 138.258408,106.585625 
z"/>
<path fill="#E9722D" opacity="1.000000" stroke="none" 
	d="
M203.892700,114.849304 
	C203.116791,111.000710 205.910828,106.708885 201.336853,104.279259 
	C202.634842,101.839546 203.932831,99.399834 205.230804,96.960121 
	C206.677200,97.879143 208.123596,98.798164 209.570007,99.717186 
	C209.455338,99.908813 209.340668,100.100441 209.225998,100.292068 
	C210.758728,101.186623 212.291458,102.081177 213.824203,102.975739 
	C212.294876,104.030075 210.765549,105.084419 208.408813,106.709206 
	C208.408813,108.629951 208.467316,111.589310 208.391586,114.545227 
	C208.322189,117.254066 208.457748,119.615799 212.129135,119.670769 
	C212.711777,119.679489 213.276901,120.857971 213.850143,121.495628 
	C213.089752,122.128136 212.397552,123.189972 211.557861,123.323349 
	C206.175812,124.178177 204.000717,121.831421 203.892700,114.849304 
z"/>
<path fill="#3BAC5B" opacity="1.000000" stroke="none" 
	d="
M55.857311,107.180023 
	C55.857475,105.073845 55.857475,103.438492 55.857475,101.999786 
	C59.575096,101.999786 62.928780,101.999786 66.675194,101.999786 
	C66.722656,102.504204 66.841492,103.766960 66.940208,104.815987 
	C66.605118,105.173759 66.507141,105.380035 66.376183,105.403702 
	C56.740952,107.144089 60.908653,114.790474 60.291473,120.177872 
	C59.938591,123.258194 58.982300,123.889641 55.857147,122.864258 
	C55.857147,117.857376 55.857147,112.754120 55.857311,107.180023 
z"/>
<path fill="#E97430" opacity="1.000000" stroke="none" 
	d="
M187.175598,102.071411 
	C187.695206,101.787796 188.228683,101.238487 188.732117,101.264763 
	C191.487427,101.408546 194.235352,101.693619 197.666595,101.988686 
	C198.113693,103.579620 199.047974,105.685471 194.965790,106.200859 
	C193.730652,106.356804 192.718246,108.276932 191.048065,109.921257 
	C190.671616,113.974228 190.850906,117.494926 191.030182,121.015617 
	C191.087646,121.176872 191.145096,121.338120 190.719727,121.736557 
	C189.162079,121.982796 188.087204,121.991852 187.012344,122.000900 
	C186.966873,121.829636 186.921417,121.658371 187.251221,120.939423 
	C187.476181,114.284958 187.325897,108.178177 187.175598,102.071411 
z"/>
<path fill="#3BAC5B" opacity="1.000000" stroke="none" 
	d="
M19.577475,126.923714 
	C21.499159,127.672569 23.435286,128.231537 24.514311,129.512482 
	C25.034731,130.130295 24.345396,132.564514 23.466181,133.341309 
	C22.574358,134.129211 20.631094,134.368027 19.398775,134.002640 
	C16.370285,133.104706 16.380888,130.359619 19.577475,126.923714 
z"/>
<path fill="#3EAC5D" opacity="1.000000" stroke="none" 
	d="
M37.939316,130.883789 
	C39.494709,129.273270 40.958584,127.717865 42.756493,127.005547 
	C43.256344,126.807503 45.463528,129.041397 45.576992,130.279633 
	C45.687901,131.489929 43.854362,134.051361 43.346699,133.936249 
	C41.450809,133.506470 39.748772,132.221603 37.939316,130.883789 
z"/>
<path fill="#E4630C" opacity="1.000000" stroke="none" 
	d="
M187.050140,102.519905 
	C187.325897,108.178177 187.476181,114.284958 187.333359,120.686638 
	C187.001724,114.977165 186.963211,108.972786 187.050140,102.519905 
z"/>
<path fill="#E4630C" opacity="1.000000" stroke="none" 
	d="
M191.093719,120.558929 
	C190.850906,117.494926 190.671616,113.974228 190.813477,110.180771 
	C191.142151,113.306076 191.149689,116.704163 191.093719,120.558929 
z"/>
<path fill="#E4630C" opacity="1.000000" stroke="none" 
	d="
M187.096680,122.381332 
	C188.087204,121.991852 189.162079,121.982796 190.640228,121.980698 
	C189.755997,122.245689 188.468506,122.503723 187.096680,122.381332 
z"/>
<path fill="#26A54C" opacity="1.000000" stroke="none" 
	d="
M18.248890,123.143433 
	C18.288441,122.936874 18.581221,122.851219 18.961033,122.949921 
	C18.866083,123.177620 18.684103,123.220985 18.248890,123.143433 
z"/>
<path fill="#26A54C" opacity="1.000000" stroke="none" 
	d="
M43.231045,123.177299 
	C43.252728,122.987373 43.544048,122.860603 43.935799,122.916496 
	C43.857712,123.146248 43.679199,123.193352 43.231045,123.177299 
z"/>
<path fill="#FCFDFC" opacity="1.000000" stroke="none" 
	d="
M18.745346,110.149681 
	C18.416124,108.617226 18.218483,107.492607 17.907005,105.720230 
	C21.818760,105.720230 25.431742,105.720230 29.044725,105.720230 
	C32.494156,105.720230 35.943588,105.720230 39.684513,105.720230 
	C39.684513,110.239128 39.684513,114.311966 39.684513,119.109627 
	C34.176216,119.109627 28.600960,119.244102 23.043865,118.986588 
	C22.034697,118.939827 20.697367,117.459686 20.222626,116.339806 
	C19.461678,114.544800 19.294855,112.497925 18.745346,110.149681 
z"/>
<path fill="#FBF8F4" opacity="1.000000" stroke="none" 
	d="
M176.909805,107.125015 
	C177.497650,107.984558 177.891815,108.525162 178.143951,109.125420 
	C179.875031,113.246452 178.915146,117.062004 175.080002,118.872040 
	C173.185394,119.766212 169.574432,118.953392 167.729599,117.581886 
	C164.788620,115.395454 164.958389,109.792946 167.410110,107.248680 
	C170.292084,104.257919 173.445145,104.192772 176.909805,107.125015 
z"/>
<path fill="#F3FAF5" opacity="1.000000" stroke="none" 
	d="
M74.491150,110.037445 
	C75.509819,108.213089 76.665604,105.666145 78.425713,105.139694 
	C81.533905,104.210052 84.157906,105.763283 85.320763,110.224869 
	C81.583435,110.224869 78.241936,110.224869 74.491150,110.037445 
z"/>
</svg>