<?xml version="1.0" encoding="UTF-8"?>
<svg version="1.1" xmlns="http://www.w3.org/2000/svg" width="500" height="136">
<path d="M0 0 C165 0 330 0 500 0 C500 44.88 500 89.76 500 136 C335 136 170 136 0 136 C0 91.12 0 46.24 0 0 Z " fill="#FEFEFE" transform="translate(0,0)"/>
<path d="M0 0 C4.33042691 1.88899281 7.2567839 4.92300721 9.6875 8.9375 C10.5625 12.375 10.5625 12.375 10.6875 14.9375 C7.7175 15.4325 7.7175 15.4325 4.6875 15.9375 C4.37296875 15.38320313 4.0584375 14.82890625 3.734375 14.2578125 C3.30640625 13.53335938 2.8784375 12.80890625 2.4375 12.0625 C2.01984375 11.34320313 1.6021875 10.62390625 1.171875 9.8828125 C-1.06526598 6.95098037 -3.10097462 6.10691656 -6.71484375 5.6015625 C-12.32528112 5.51501541 -12.32528112 5.51501541 -17.375 7.8125 C-19.70441937 10.36734705 -20.25047265 11.36684842 -20.625 14.8125 C-20.562673 17.90372197 -20.562673 17.90372197 -18.96875 19.953125 C-14.21432957 23.50495673 -8.26592672 24.19296174 -2.55273438 25.47265625 C3.79733319 27.02900321 8.29836402 28.97164491 12.6875 33.9375 C13.0175 34.5975 13.3475 35.2575 13.6875 35.9375 C14.0175 25.0475 14.3475 14.1575 14.6875 2.9375 C16.6675 2.9375 18.6475 2.9375 20.6875 2.9375 C20.6875 10.1975 20.6875 17.4575 20.6875 24.9375 C30.2575 24.9375 39.8275 24.9375 49.6875 24.9375 C49.6875 17.6775 49.6875 10.4175 49.6875 2.9375 C51.9975 2.9375 54.3075 2.9375 56.6875 2.9375 C57.1825 10.3625 57.1825 10.3625 57.6875 17.9375 C58.368125 16.41125 59.04875 14.885 59.75 13.3125 C63.01058277 6.81888867 67.59842398 2.01924314 74.55078125 -0.58984375 C83.1157355 -2.484468 92.19461419 -1.79484894 99.6875 2.9375 C103.4761702 6.3740633 106.74717383 10.1613125 108.6875 14.9375 C108.6875 16.2575 108.6875 17.5775 108.6875 18.9375 C105.7175 19.4325 105.7175 19.4325 102.6875 19.9375 C102.2853125 18.92429687 102.2853125 18.92429687 101.875 17.890625 C99.51108524 12.50960851 97.60976762 8.71802113 91.9921875 6.4921875 C85.21439238 4.86092156 78.54270339 5.01403645 72.41015625 8.52734375 C68.45916201 11.76160434 66.27651368 16.17045895 64.6875 20.9375 C64.0049301 29.54235655 64.13592678 37.39108055 68.6875 44.9375 C70.93041412 47.4495439 70.93041412 47.4495439 73.6875 48.9375 C74.9559375 49.80375 74.9559375 49.80375 76.25 50.6875 C83.29710798 53.25008472 90.34522806 52.94187633 97.1875 49.875 C103.38829782 46.36717687 105.30341347 41.49373795 107.6875 34.9375 C110.6575 35.4325 110.6575 35.4325 113.6875 35.9375 C112.76400986 42.81590934 110.83945647 48.12131259 105.6875 52.9375 C96.95065727 58.41331279 88.95489253 60.03946989 78.6875 58.9375 C71.30318925 56.54720288 64.70829785 52.74498943 60.6875 45.9375 C59.6975 43.6275 58.7075 41.3175 57.6875 38.9375 C57.3575 44.5475 57.0275 50.1575 56.6875 55.9375 C54.7075 55.9375 52.7275 55.9375 50.6875 55.9375 C50.6875 47.6875 50.6875 39.4375 50.6875 30.9375 C40.7875 30.9375 30.8875 30.9375 20.6875 30.9375 C20.6875 39.1875 20.6875 47.4375 20.6875 55.9375 C18.7075 55.9375 16.7275 55.9375 14.6875 55.9375 C14.3575 52.6375 14.0275 49.3375 13.6875 45.9375 C13.31625 46.824375 12.945 47.71125 12.5625 48.625 C9.9463466 53.246871 6.79757975 55.88246013 2.0625 58.25 C-6.40118947 59.97408489 -13.57618882 59.74404951 -21.18359375 55.43359375 C-25.29997786 52.54079538 -28.60970421 48.73628813 -30.3125 43.9375 C-30.4375 41.1875 -30.4375 41.1875 -30.3125 38.9375 C-27.3425 38.4425 -27.3425 38.4425 -24.3125 37.9375 C-23.920625 39.175 -23.52875 40.4125 -23.125 41.6875 C-21.35089067 46.42403719 -18.79530223 48.46483144 -14.48828125 51.01953125 C-9.23064356 53.23774464 -3.00304157 52.53067248 2.25 50.6875 C4.84383573 48.82525896 5.81750029 47.98249899 6.6875 44.9375 C7.27083333 41.9375 7.27083333 41.9375 6.6875 38.9375 C1.23872579 33.33304653 -6.07422509 32.17426273 -13.4296875 30.52539062 C-18.57609042 29.30676125 -22.59016851 27.89739445 -26.125 23.875 C-28.32673664 18.42859883 -28.05868729 13.05824282 -26.125 7.5625 C-19.8672768 -1.50040946 -10.16867122 -3.1740361 0 0 Z " fill="#454545" transform="translate(201.3125,35.0625)"/>
<path d="M0 0 C7.6725 -0.12375 7.6725 -0.12375 15.5 -0.25 C17.09779297 -0.28641602 18.69558594 -0.32283203 20.34179688 -0.36035156 C27.83674846 -0.41887637 33.63240144 -0.38320301 40 4 C44.23034289 8.55575388 45.38293903 11.53054039 45.265625 17.62109375 C44.83524834 21.47549649 43.67099864 24.17477047 41 27 C38.1230391 28.95593727 35.15346824 30.53781494 32 32 C32.61875 32.68578125 33.2375 33.3715625 33.875 34.078125 C36.85201088 38.17151496 37.65582708 42.37945428 38.875 47.234375 C39.68924202 50.12486861 39.68924202 50.12486861 41.984375 50.94921875 C44.48780678 51.01228971 45.88232172 50.28573324 48 49 C48.66 50.32 49.32 51.64 50 53 C47.11624843 55.88375157 44.98885835 57.31825682 40.9375 57.5 C37 57 37 57 34.90625 55.46875 C31.99457175 51.69788801 31.16027917 47.3824845 30.02148438 42.84375 C29.06415977 39.38835615 28.25296581 37.28989513 25.859375 34.546875 C22.07295753 32.49848522 18.92716635 32.33476738 14.6875 32.25 C10.8821875 32.12625 10.8821875 32.12625 7 32 C7 39.92 7 47.84 7 56 C4.69 56 2.38 56 0 56 C0 37.52 0 19.04 0 0 Z " fill="#464646" transform="translate(371,36)"/>
<path d="M0 0 C7.6725 -0.12375 7.6725 -0.12375 15.5 -0.25 C17.09779297 -0.28641602 18.69558594 -0.32283203 20.34179688 -0.36035156 C27.83674846 -0.41887637 33.63240144 -0.38320301 40 4 C44.23034289 8.55575388 45.38293903 11.53054039 45.265625 17.62109375 C44.83524834 21.47549649 43.67099864 24.17477047 41 27 C38.1230391 28.95593727 35.15346824 30.53781494 32 32 C32.61875 32.68578125 33.2375 33.3715625 33.875 34.078125 C36.85201088 38.17151496 37.65582708 42.37945428 38.875 47.234375 C39.68924202 50.12486861 39.68924202 50.12486861 41.984375 50.94921875 C44.48780678 51.01228971 45.88232172 50.28573324 48 49 C48.66 50.32 49.32 51.64 50 53 C47.11624843 55.88375157 44.98885835 57.31825682 40.9375 57.5 C37 57 37 57 34.90625 55.46875 C31.99457175 51.69788801 31.16027917 47.3824845 30.02148438 42.84375 C29.06415977 39.38835615 28.25296581 37.28989513 25.859375 34.546875 C22.07295753 32.49848522 18.92716635 32.33476738 14.6875 32.25 C10.8821875 32.12625 10.8821875 32.12625 7 32 C7 39.92 7 47.84 7 56 C4.69 56 2.38 56 0 56 C0 37.52 0 19.04 0 0 Z " fill="#464646" transform="translate(76,36)"/>
<path d="M0 0 C2.97 0 5.94 0 9 0 C13.25820801 10.01191215 17.24800735 20.1268416 21.21313477 30.25756836 C21.95271197 32.14453316 22.69461584 34.03058753 23.4387207 35.91577148 C24.52267402 38.66199172 25.5999985 41.41072677 26.67578125 44.16015625 C27.17722404 45.42570091 27.17722404 45.42570091 27.688797 46.71681213 C28.14508736 47.88965004 28.14508736 47.88965004 28.6105957 49.08618164 C28.87975296 49.77168594 29.14891022 50.45719025 29.42622375 51.16346741 C30 53 30 53 30 56 C27.69 56 25.38 56 23 56 C22.32942113 54.2097939 21.6636531 52.41778511 21 50.625 C20.62875 49.62726563 20.2575 48.62953125 19.875 47.6015625 C19 45 19 45 19 43 C9.76 43.33 0.52 43.66 -9 44 C-10.65 47.96 -12.3 51.92 -14 56 C-16.31 56 -18.62 56 -21 56 C-16.25684394 41.80502751 -10.88332014 27.89020905 -5.35668945 13.98657227 C-4.93718269 12.93102646 -4.93718269 12.93102646 -4.50920105 11.85415649 C-3.97933035 10.52242162 -3.44846703 9.19108111 -2.91645813 7.86019897 C-1.87798359 5.25527236 -0.88710488 2.66131463 0 0 Z " fill="#464646" transform="translate(337,36)"/>
<path d="M0 0 C4.33042691 1.88899281 7.2567839 4.92300721 9.6875 8.9375 C10.5625 12.375 10.5625 12.375 10.6875 14.9375 C7.7175 15.4325 7.7175 15.4325 4.6875 15.9375 C4.37296875 15.38320313 4.0584375 14.82890625 3.734375 14.2578125 C3.30640625 13.53335938 2.8784375 12.80890625 2.4375 12.0625 C2.01984375 11.34320313 1.6021875 10.62390625 1.171875 9.8828125 C-1.06526598 6.95098037 -3.10097462 6.10691656 -6.71484375 5.6015625 C-12.32528112 5.51501541 -12.32528112 5.51501541 -17.375 7.8125 C-19.70441937 10.36734705 -20.25047265 11.36684842 -20.625 14.8125 C-20.562673 17.90372197 -20.562673 17.90372197 -18.96875 19.953125 C-14.21432957 23.50495673 -8.26592672 24.19296174 -2.55273438 25.47265625 C3.79733319 27.02900321 8.29836402 28.97164491 12.6875 33.9375 C14.53617207 37.63484414 14.02395425 41.8938184 13.6875 45.9375 C11.63811254 51.97180752 7.7102357 55.42613215 2.0625 58.25 C-6.40118947 59.97408489 -13.57618882 59.74404951 -21.18359375 55.43359375 C-25.29997786 52.54079538 -28.60970421 48.73628813 -30.3125 43.9375 C-30.4375 41.1875 -30.4375 41.1875 -30.3125 38.9375 C-27.3425 38.4425 -27.3425 38.4425 -24.3125 37.9375 C-23.920625 39.175 -23.52875 40.4125 -23.125 41.6875 C-21.35089067 46.42403719 -18.79530223 48.46483144 -14.48828125 51.01953125 C-9.23064356 53.23774464 -3.00304157 52.53067248 2.25 50.6875 C4.84383573 48.82525896 5.81750029 47.98249899 6.6875 44.9375 C7.27083333 41.9375 7.27083333 41.9375 6.6875 38.9375 C1.23872579 33.33304653 -6.07422509 32.17426273 -13.4296875 30.52539062 C-18.57609042 29.30676125 -22.59016851 27.89739445 -26.125 23.875 C-28.32673664 18.42859883 -28.05868729 13.05824282 -26.125 7.5625 C-19.8672768 -1.50040946 -10.16867122 -3.1740361 0 0 Z " fill="#444444" transform="translate(201.3125,35.0625)"/>
<path d="M0 0 C12.54 0 25.08 0 38 0 C38 1.98 38 3.96 38 6 C27.44 6 16.88 6 6 6 C6 11.94 6 17.88 6 24 C15.57 24 25.14 24 35 24 C35 25.98 35 27.96 35 30 C25.43 30 15.86 30 6 30 C6 36.6 6 43.2 6 50 C16.89 50 27.78 50 39 50 C39 51.98 39 53.96 39 56 C26.13 56 13.26 56 0 56 C0 37.52 0 19.04 0 0 Z " fill="#424242" transform="translate(130,36)"/>
<path d="M0 0 C1.98 0 3.96 0 6 0 C6 7.26 6 14.52 6 22 C15.57 22 25.14 22 35 22 C35 14.74 35 7.48 35 0 C37.31 0 39.62 0 42 0 C43.2100255 17.74083536 42.76521196 35.2561055 42 53 C40.02 53 38.04 53 36 53 C36 44.75 36 36.5 36 28 C26.1 28 16.2 28 6 28 C6 36.25 6 44.5 6 53 C4.02 53 2.04 53 0 53 C-1.65473268 35.35800389 -0.65000108 17.67236495 0 0 Z " fill="#90C747" transform="translate(216,38)"/>
<path d="M0 0 C11.88 0 23.76 0 36 0 C36 1.98 36 3.96 36 6 C26.43 6 16.86 6 7 6 C7 12.27 7 18.54 7 25 C14.92 25 22.84 25 31 25 C31 26.98 31 28.96 31 31 C23.08 31 15.16 31 7 31 C7 39.25 7 47.5 7 56 C4.69 56 2.38 56 0 56 C0 37.52 0 19.04 0 0 Z " fill="#474747" transform="translate(36,36)"/>
<path d="M0 0 C14.85 0 29.7 0 45 0 C45 1.98 45 3.96 45 6 C38.73 6 32.46 6 26 6 C26 22.5 26 39 26 56 C23.69 56 21.38 56 19 56 C19 39.5 19 23 19 6 C12.73 6 6.46 6 0 6 C0 4.02 0 2.04 0 0 Z " fill="#474747" transform="translate(420,36)"/>
<path d="M0 0 C3.70877584 -0.08114826 7.41576511 -0.14057594 11.125 -0.1875 C12.17171875 -0.21263672 13.2184375 -0.23777344 14.296875 -0.26367188 C20.95143336 -0.32684806 25.86047285 -0.03487625 30.875 4.8125 C32.41542833 7.80777732 32.47570543 9.670062 32 13 C29.53828497 17.01168375 27.4177499 18.57414636 23 20 C20.32104492 20.22705078 20.32104492 20.22705078 17.48046875 20.1953125 C15.9480957 20.18564453 15.9480957 20.18564453 14.38476562 20.17578125 C13.32966797 20.15902344 12.27457031 20.14226563 11.1875 20.125 C10.11306641 20.11597656 9.03863281 20.10695313 7.93164062 20.09765625 C5.28766448 20.07415424 2.6438034 20.03828517 0 20 C0 13.4 0 6.8 0 0 Z " fill="#FDFDFD" transform="translate(378,42)"/>
<path d="M0 0 C3.70877584 -0.08114826 7.41576511 -0.14057594 11.125 -0.1875 C12.17171875 -0.21263672 13.2184375 -0.23777344 14.296875 -0.26367188 C20.95143336 -0.32684806 25.86047285 -0.03487625 30.875 4.8125 C32.41542833 7.80777732 32.47570543 9.670062 32 13 C29.53828497 17.01168375 27.4177499 18.57414636 23 20 C20.32104492 20.22705078 20.32104492 20.22705078 17.48046875 20.1953125 C15.9480957 20.18564453 15.9480957 20.18564453 14.38476562 20.17578125 C13.32966797 20.15902344 12.27457031 20.14226563 11.1875 20.125 C10.11306641 20.11597656 9.03863281 20.10695313 7.93164062 20.09765625 C5.28766448 20.07415424 2.6438034 20.03828517 0 20 C0 13.4 0 6.8 0 0 Z " fill="#FDFDFD" transform="translate(83,42)"/>
<path d="M0 0 C3.64789079 1.43023031 6.76984208 2.99109263 10.03515625 5.16796875 C8.90167257 8.56841978 8.18310765 9.04465062 5.34765625 11.04296875 C2.73772239 12.91988004 0.21722744 14.8155645 -2.21484375 16.91796875 C-5.80365608 19.85426975 -7.65437529 21.01961383 -12.27734375 21.54296875 C-16.97818155 21.06491745 -19.13895458 19.92260895 -22.96484375 17.16796875 C-23.66015625 15.02734375 -23.66015625 15.02734375 -23.96484375 13.16796875 C-19.08708273 8.32157597 -14.61515081 5.88709574 -7.96484375 4.16796875 C-13.57189743 4.30782723 -17.91863252 4.95837526 -22.390625 8.4921875 C-25.31621619 11.6065265 -27.15059938 15.33046568 -28.96484375 19.16796875 C-29.96484375 17.16796875 -29.96484375 17.16796875 -29.36328125 14.9609375 C-24.03491718 1.39598013 -14.41638747 -4.04570558 0 0 Z " fill="#90C845" transform="translate(87.96484375,12.83203125)"/>
<path d="M0 0 C0.66 0 1.32 0 2 0 C3.4304204 3.78795106 4.8543979 7.57825448 6.27246094 11.37084961 C6.75572265 12.66057458 7.24073669 13.94964438 7.72753906 15.23803711 C8.42713915 17.09054958 9.11991233 18.94563569 9.8125 20.80078125 C10.23144531 21.91622314 10.65039062 23.03166504 11.08203125 24.1809082 C12 27 12 27 12 30 C4.41 30 -3.18 30 -11 30 C-7.625 19.875 -7.625 19.875 -5.95703125 15.52734375 C-5.60576172 14.60888672 -5.25449219 13.69042969 -4.89257812 12.74414062 C-4.53615234 11.81794922 -4.17972656 10.89175781 -3.8125 9.9375 C-3.44447266 8.97650391 -3.07644531 8.01550781 -2.69726562 7.02539062 C-1.79990328 4.68292528 -0.90078716 2.34114999 0 0 Z " fill="#F3F3F3" transform="translate(341,43)"/>
<path d="M0 0 C3.70501872 2.76095145 5.1605812 5.67018667 6.1875 10.0859375 C1.20479893 13.07794221 -4.1805571 12.60407625 -9.8125 12.0859375 C-12.18224789 11.32954196 -13.72827651 10.47541983 -15.8125 9.0859375 C-14.69875 9.7253125 -13.585 10.3646875 -12.4375 11.0234375 C-7.79208779 13.69024821 -4.26740916 14.82978875 1.1875 14.0859375 C3.41889591 13.15748955 5.44459219 12.09319571 7.5234375 10.86328125 C8.07257813 10.60675781 8.62171875 10.35023437 9.1875 10.0859375 C9.8475 10.4159375 10.5075 10.7459375 11.1875 11.0859375 C9.89732586 12.06706993 8.60530894 13.04577949 7.3125 14.0234375 C6.59320313 14.56871094 5.87390625 15.11398438 5.1328125 15.67578125 C0.52286091 19.01753331 -4.28987589 18.63428316 -9.8125 18.0859375 C-16.58178946 14.89287643 -21.28647085 9.03251767 -23.8125 2.0859375 C-5.36305592 -2.70464458 -5.36305592 -2.70464458 0 0 Z " fill="#90C846" transform="translate(390.8125,93.9140625)"/>
<path d="M0 0 C0.99386719 0.00902344 1.98773438 0.01804687 3.01171875 0.02734375 C4.15060547 0.04474609 4.15060547 0.04474609 5.3125 0.0625 C5.3125 0.3925 5.3125 0.7225 5.3125 1.0625 C4.5390625 1.20945312 3.765625 1.35640625 2.96875 1.5078125 C-5.391707 3.30820794 -11.82093351 5.76265026 -16.6875 13.0625 C-17.3475 12.7325 -18.0075 12.4025 -18.6875 12.0625 C-17.37864898 6.49988316 -13.29864029 3.9478868 -8.6875 1.0625 C-5.53819107 0.01273036 -3.29935544 -0.03881595 0 0 Z " fill="#EEF7E4" transform="translate(79.6875,15.9375)"/>
<path d="M0 0 C4.75 1.875 4.75 1.875 7 3 C9.55157655 3.0716735 12.07472971 3.09308442 14.625 3.0625 C15.33140625 3.05798828 16.0378125 3.05347656 16.765625 3.04882812 C18.51045275 3.03703875 20.255237 3.01910324 22 3 C21.67 3.99 21.34 4.98 21 6 C15.45657546 7.84780818 10.8439663 7.67815423 5.625 5.1875 C2.67501385 3.65374226 1.94114712 2.91172069 0 0 Z " fill="#E4F1D2" transform="translate(374,102)"/>
</svg>
