<?xml version="1.0" encoding="UTF-8"?>
<svg version="1.1" xmlns="http://www.w3.org/2000/svg" width="500" height="116">
<path d="M0 0 C165 0 330 0 500 0 C500 38.28 500 76.56 500 116 C335 116 170 116 0 116 C0 77.72 0 39.44 0 0 Z " fill="#FEFEFE" transform="translate(0,0)"/>
<path d="M0 0 C0.33 -0.33 0.66 -0.66 1 -1 C3.4375 -1.1875 3.4375 -1.1875 6 -1 C8.90441659 1.90441659 8.25867736 4.06757845 8.265625 8.125 C8.26849518 9.17905029 8.26849518 9.17905029 8.27142334 10.25439453 C8.27278475 11.74056354 8.26909132 13.22674445 8.26074219 14.71289062 C8.25004154 16.99115646 8.26063839 19.26863377 8.2734375 21.546875 C8.2721159 22.98958508 8.26955349 24.43229466 8.265625 25.875 C8.26336914 27.19242188 8.26111328 28.50984375 8.25878906 29.8671875 C8 33 8 33 6 35 C3.4506556 35.20126403 1.44655037 35.13954699 -1 34.375 C-3.08623758 33.79469352 -3.08623758 33.79469352 -5.25 34.9375 C-10.54995622 36.98521036 -14.57016306 36.58162859 -19.6875 34.5 C-23.77590311 31.78064931 -26.37497004 28.65316949 -28 24 C-28.92109693 17.5747873 -29.20408667 11.17020691 -25.9375 5.375 C-19.33471141 -3.21969129 -9.7434124 -4.10248943 0 0 Z " fill="#FF9655" transform="translate(286,40)"/>
<path d="M0 0 C4.28707235 2.51402391 6.87958064 5.86449092 8.625 10.5 C9.09034148 13.57125377 9.22746446 16.44328558 8.625 19.5 C5.98508732 22.13991268 4.64553704 21.80240797 0.9609375 21.9140625 C-0.16054687 21.95273437 -1.28203125 21.99140625 -2.4375 22.03125 C-3.613125 22.0621875 -4.78875 22.093125 -6 22.125 C-7.18335937 22.16367187 -8.36671875 22.20234375 -9.5859375 22.2421875 C-12.51546691 22.33668845 -15.44498597 22.42224558 -18.375 22.5 C-15.27931382 26.14911388 -15.27931382 26.14911388 -11.05859375 28.05859375 C-9.94677734 27.99865234 -9.94677734 27.99865234 -8.8125 27.9375 C-7.69681641 27.90462891 -7.69681641 27.90462891 -6.55859375 27.87109375 C-4.18670007 27.46799912 -2.51219045 26.57079851 -0.375 25.5 C2.375 25.875 2.375 25.875 4.625 26.5 C5.375 28.25 5.375 28.25 5.625 30.5 C2.89899973 34.20736036 0.04784645 35.4986008 -4.375 36.5 C-10.89687926 37.29859746 -15.9787919 36.3443574 -21.375 32.5 C-25.05156589 29.00589395 -27.18861819 25.76102518 -27.61328125 20.609375 C-27.87205483 8.89646579 -27.87205483 8.89646579 -23.375 3.5 C-16.7158874 -2.62638359 -8.29373764 -3.48962923 0 0 Z " fill="#FF9655" transform="translate(129.375,39.5)"/>
<path d="M0 0 C2.5625 0.1875 2.5625 0.1875 4.5625 2.1875 C4.83241906 4.87589385 4.64987357 7.47891936 4.5625 10.1875 C7.2025 10.1875 9.8425 10.1875 12.5625 10.1875 C12.94468767 11.84364657 13.27645102 13.51207024 13.5625 15.1875 C13.2325 15.5175 12.9025 15.8475 12.5625 16.1875 C9.9225 16.1875 7.2825 16.1875 4.5625 16.1875 C4.8925 23.4475 5.2225 30.7075 5.5625 38.1875 C8.87493305 39.01560826 11.22226579 39.28028428 14.5625 39.1875 C15.2225 40.5075 15.8825 41.8275 16.5625 43.1875 C13.75530189 46.12229802 12.43404994 47.12172265 8.25 47.4375 C4.28503548 47.16868885 2.62619713 46.65547825 -0.4375 44.1875 C-3.03506639 40.55559792 -3.80495842 38.1125191 -3.73046875 33.66796875 C-3.72080078 32.64638672 -3.71113281 31.62480469 -3.70117188 30.57226562 C-3.67603516 29.51716797 -3.65089844 28.46207031 -3.625 27.375 C-3.61146484 26.30056641 -3.59792969 25.22613281 -3.58398438 24.11914062 C-3.54872577 21.47474545 -3.49944366 18.83138252 -3.4375 16.1875 C-5.37764063 16.41610572 -7.31467414 16.67119181 -9.25 16.9375 C-10.32894531 17.07671875 -11.40789062 17.2159375 -12.51953125 17.359375 C-16.00229354 18.34778947 -16.62469697 19.12975203 -18.4375 22.1875 C-18.90450608 24.65963836 -18.90450608 24.65963836 -18.87890625 27.3203125 C-18.90533203 28.29097656 -18.93175781 29.26164062 -18.95898438 30.26171875 C-18.97251953 31.26847656 -18.98605469 32.27523437 -19 33.3125 C-19.03435502 35.31527045 -19.07691343 37.3179223 -19.12890625 39.3203125 C-19.14123291 40.20605957 -19.15355957 41.09180664 -19.16625977 42.00439453 C-19.4375 44.1875 -19.4375 44.1875 -21.4375 46.1875 C-24 46.375 -24 46.375 -26.4375 46.1875 C-28.1704298 44.4545702 -27.56570046 42.22535664 -27.57644653 39.91601562 C-27.5744223 39.18060547 -27.57239807 38.44519531 -27.5703125 37.6875 C-27.57126923 36.93662109 -27.57222595 36.18574219 -27.57321167 35.41210938 C-27.57389338 33.82161373 -27.57203972 32.23111533 -27.56787109 30.640625 C-27.56252267 28.19785345 -27.56781634 25.75526579 -27.57421875 23.3125 C-27.57355797 21.77083293 -27.5722768 20.22916597 -27.5703125 18.6875 C-27.57233673 17.95208984 -27.57436096 17.21667969 -27.57644653 16.45898438 C-27.55245161 11.30245161 -27.55245161 11.30245161 -26.4375 10.1875 C-24.77132885 10.14686168 -23.10361905 10.144779 -21.4375 10.1875 C-21.1075 11.1775 -20.7775 12.1675 -20.4375 13.1875 C-19.91671875 12.69636719 -19.3959375 12.20523438 -18.859375 11.69921875 C-15.65007978 9.69599738 -13.43827664 9.8874767 -9.6875 10 C-8.51703125 10.02707031 -7.3465625 10.05414063 -6.140625 10.08203125 C-5.24859375 10.11683594 -4.3565625 10.15164062 -3.4375 10.1875 C-3.44910156 9.54941406 -3.46070313 8.91132812 -3.47265625 8.25390625 C-3.48167969 7.42761719 -3.49070312 6.60132813 -3.5 5.75 C-3.51160156 4.92628906 -3.52320313 4.10257813 -3.53515625 3.25390625 C-3.39211585 0.22717144 -3.02891307 0.23299331 0 0 Z " fill="#FF9351" transform="translate(328.4375,28.8125)"/>
<path d="M0 0 C3.28357299 1.89505664 4.98565639 3.20857325 6.46484375 6.7421875 C6.33984375 9.0546875 6.33984375 9.0546875 4.33984375 11.0546875 C1.96484375 11.4296875 1.96484375 11.4296875 -0.66015625 11.0546875 C-1.21703125 10.3946875 -1.77390625 9.7346875 -2.34765625 9.0546875 C-5.60919769 6.2338949 -8.23429507 6.65667769 -12.41796875 6.71875 C-14.85916351 6.85734271 -14.85916351 6.85734271 -16.66015625 9.0546875 C-16.66015625 10.0446875 -16.66015625 11.0346875 -16.66015625 12.0546875 C-14.92378906 12.30992188 -14.92378906 12.30992188 -13.15234375 12.5703125 C-11.61315827 12.81432971 -10.07410231 13.05916486 -8.53515625 13.3046875 C-7.77460938 13.41425781 -7.0140625 13.52382813 -6.23046875 13.63671875 C-1.08590926 14.47936211 2.25861691 15.77444911 6.33984375 19.0546875 C8.10275881 22.58051762 7.7438236 26.48365475 6.77734375 30.2421875 C3.91705824 33.84863445 -0.35597247 35.61995957 -4.66015625 37.0546875 C-11.74440696 37.75281237 -17.83581306 37.4549859 -23.66015625 33.0546875 C-25.72265625 30.5546875 -25.72265625 30.5546875 -26.66015625 28.0546875 C-26.34765625 25.7421875 -26.34765625 25.7421875 -25.66015625 24.0546875 C-23.34765625 23.3671875 -23.34765625 23.3671875 -20.66015625 23.0546875 C-18.84765625 24.3671875 -18.84765625 24.3671875 -17.66015625 26.0546875 C-17.66015625 26.7146875 -17.66015625 27.3746875 -17.66015625 28.0546875 C-15.36855306 28.08161234 -13.07686079 28.10104874 -10.78515625 28.1171875 C-8.87089844 28.13458984 -8.87089844 28.13458984 -6.91796875 28.15234375 C-3.77350973 28.28645319 -3.77350973 28.28645319 -1.66015625 27.0546875 C-1.00802333 25.03005495 -1.00802333 25.03005495 -0.66015625 23.0546875 C-1.74554688 22.94511719 -2.8309375 22.83554687 -3.94921875 22.72265625 C-5.39459777 22.56310142 -6.83990676 22.40291139 -8.28515625 22.2421875 C-8.99800781 22.17193359 -9.71085937 22.10167969 -10.4453125 22.02929688 C-15.87868231 21.40620401 -20.36035436 20.1245092 -24.53515625 16.3671875 C-26.20114794 12.94264902 -26.44948269 9.73090232 -25.66015625 6.0546875 C-19.38468852 -1.96396571 -9.48839101 -3.3717924 0 0 Z " fill="#FF9554" transform="translate(168.66015625,38.9453125)"/>
<path d="M0 0 C2.5625 0.1875 2.5625 0.1875 4.5625 2.1875 C4.7578125 4.5703125 4.7578125 4.5703125 4.6875 7.3125 C4.66945312 8.22257812 4.65140625 9.13265625 4.6328125 10.0703125 C4.60960937 10.76898438 4.58640625 11.46765625 4.5625 12.1875 C5.34625 11.6925 6.13 11.1975 6.9375 10.6875 C12.72223693 8.29381575 18.03815931 8.29930605 23.9375 10.375 C27.39986126 12.76567801 29.68278805 15.4280761 31.5625 19.1875 C31.65949022 21.13480751 31.69326186 23.0854359 31.6953125 25.03515625 C31.69724609 26.77829102 31.69724609 26.77829102 31.69921875 28.55664062 C31.69535156 29.77544922 31.69148438 30.99425781 31.6875 32.25 C31.69330078 34.08401367 31.69330078 34.08401367 31.69921875 35.95507812 C31.69792969 37.11587891 31.69664062 38.27667969 31.6953125 39.47265625 C31.69418457 40.54394775 31.69305664 41.61523926 31.69189453 42.71899414 C31.5625 45.1875 31.5625 45.1875 30.5625 46.1875 C28.125 46.375 28.125 46.375 25.5625 46.1875 C23.009775 43.634775 23.2896642 42.60997668 23.21875 39.06640625 C23.18910156 38.04869141 23.15945312 37.03097656 23.12890625 35.98242188 C23.10699219 34.91572266 23.08507812 33.84902344 23.0625 32.75 C23.01913789 30.64693751 22.96742679 28.54402593 22.90625 26.44140625 C22.88755859 25.50627197 22.86886719 24.5711377 22.84960938 23.60766602 C22.71702076 20.92872931 22.71702076 20.92872931 20.5625 18.1875 C17.58677068 17.21118017 14.68174177 16.99355751 11.5625 17.1875 C8.64106583 18.95253314 7.08326183 20.14597635 5.5625 23.1875 C5.43414914 24.75731592 5.36038751 26.3318099 5.31640625 27.90625 C5.28353516 28.83824219 5.25066406 29.77023438 5.21679688 30.73046875 C5.1556026 32.70170563 5.09831026 34.67306751 5.04492188 36.64453125 C5.01076172 37.57652344 4.97660156 38.50851563 4.94140625 39.46875 C4.9163501 40.32533203 4.89129395 41.18191406 4.86547852 42.06445312 C4.5625 44.1875 4.5625 44.1875 2.5625 46.1875 C0 46.375 0 46.375 -2.4375 46.1875 C-3.98251451 44.64248549 -3.56469131 43.2008978 -3.56689453 41.05078125 C-3.57004669 40.17317139 -3.57319885 39.29556152 -3.57644653 38.39135742 C-3.5744223 37.43720947 -3.57239807 36.48306152 -3.5703125 35.5 C-3.57126923 34.52716064 -3.57222595 33.55432129 -3.57321167 32.55200195 C-3.57389358 30.490722 -3.57203853 28.42943992 -3.56787109 26.36816406 C-3.562523 23.20112312 -3.56781572 20.034224 -3.57421875 16.8671875 C-3.57355797 14.86979135 -3.57227681 12.87239529 -3.5703125 10.875 C-3.57233673 9.92085205 -3.57436096 8.9667041 -3.57644653 7.98364258 C-3.57329437 7.10603271 -3.57014221 6.22842285 -3.56689453 5.32421875 C-3.56609894 4.54780029 -3.56530334 3.77138184 -3.56448364 2.97143555 C-3.36378898 0.1519673 -2.8208869 0.2169913 0 0 Z " fill="#FF9351" transform="translate(184.4375,28.8125)"/>
<path d="M0 0 C4.80834323 2.64949525 4.80834323 2.64949525 6.0625 4.6875 C5.75 7.375 5.75 7.375 5.0625 9.6875 C3.375 10.4375 3.375 10.4375 1.0625 10.6875 C0.32 10.048125 -0.4225 9.40875 -1.1875 8.75 C-4.4142178 6.32996165 -6.0809109 6.09624987 -10.00390625 6.2890625 C-13.06125762 6.91906218 -14.80398536 8.4893334 -16.9375 10.6875 C-18.53527918 13.88305836 -18.31160964 17.21086041 -17.9375 20.6875 C-16.37093215 25.00975496 -16.37093215 25.00975496 -12.9375 27.6875 C-10.63339956 27.92354169 -10.63339956 27.92354169 -8.0625 27.9375 C-6.76699219 27.97617188 -6.76699219 27.97617188 -5.4453125 28.015625 C-2.46499381 27.62567676 -1.23981212 26.54780705 1.0625 24.6875 C3.8125 24.5 3.8125 24.5 6.0625 24.6875 C6.5575 27.1625 6.5575 27.1625 7.0625 29.6875 C1.3778595 34.71113579 -2.83574873 37.19785628 -10.59375 37.00390625 C-15.84076112 36.29555975 -19.70587009 33.98395254 -23.3125 30.1875 C-27.34433579 23.98467571 -27.55034472 19.04163664 -26.9375 11.6875 C-25.22097789 6.23501802 -21.54130327 2.8996991 -16.9375 -0.3125 C-11.47643672 -2.13285443 -5.37715896 -2.18984512 0 0 Z " fill="#0AC169" transform="translate(248.9375,39.3125)"/>
<path d="M0 0 C2.30859375 1.52734375 2.30859375 1.52734375 4 3 C3.67 4.65 3.34 6.3 3 8 C1.0625 8.5625 1.0625 8.5625 -1 9 C-1.33 8.67 -1.66 8.34 -2 8 C-3.66617115 7.95936168 -5.33388095 7.957279 -7 8 C-7.33 8.99 -7.66 9.98 -8 11 C-6.576875 10.938125 -6.576875 10.938125 -5.125 10.875 C-2 11 -2 11 0 13 C-0.375 15.625 -0.375 15.625 -1 18 C-3.31 18 -5.62 18 -8 18 C-7.98952637 18.80743652 -7.97905273 19.61487305 -7.96826172 20.44677734 C-7.92680169 24.08948682 -7.90070562 27.73214675 -7.875 31.375 C-7.85824219 32.64601562 -7.84148437 33.91703125 -7.82421875 35.2265625 C-7.81777344 36.43828125 -7.81132813 37.65 -7.8046875 38.8984375 C-7.79421387 40.01911621 -7.78374023 41.13979492 -7.77294922 42.29443359 C-8 45 -8 45 -10 47 C-14.55555556 46.44444444 -14.55555556 46.44444444 -16 45 C-16.08758003 43.00035018 -16.10696576 40.9976389 -16.09765625 38.99609375 C-16.09443359 37.78115234 -16.09121094 36.56621094 -16.08789062 35.31445312 C-16.07951172 34.03505859 -16.07113281 32.75566406 -16.0625 31.4375 C-16.05798828 30.15423828 -16.05347656 28.87097656 -16.04882812 27.54882812 C-16.03699545 24.36583978 -16.02051068 21.18294238 -16 18 C-17.65 17.67 -19.3 17.34 -21 17 C-21.625 15.125 -21.625 15.125 -22 13 C-21.34 12.34 -20.68 11.68 -20 11 C-18.68 11 -17.36 11 -16 11 C-15.938125 9.9275 -15.87625 8.855 -15.8125 7.75 C-15 4 -15 4 -13.0625 1.5625 C-8.78613829 -0.6193172 -4.71845738 -0.85162402 0 0 Z " fill="#06C067" transform="translate(77,28)"/>
<path d="M0 0 C7.40067015 0.04458235 14.57100532 1.0699489 21.875 2.1875 C20.47477626 25.03325584 20.47477626 25.03325584 17.5 29.0390625 C15.875 30.1875 15.875 30.1875 12.75 29.9375 C9.875 29.1875 9.875 29.1875 8.875 28.1875 C9.05225127 22.07914861 10.45788498 16.10514941 11.875 10.1875 C10.67101562 10.15011719 9.46703125 10.11273438 8.2265625 10.07421875 C6.65100989 10.00857072 5.07549046 9.94212299 3.5 9.875 C2.7059375 9.85244141 1.911875 9.82988281 1.09375 9.80664062 C-0.98715581 9.70964925 -3.05941332 9.45755175 -5.125 9.1875 C-7.125 6.1875 -7.125 6.1875 -6.8125 3.5625 C-5.61032759 -0.59045924 -4.08154879 0.02721033 0 0 Z " fill="#0AC169" transform="translate(357.125,13.8125)"/>
<path d="M0 0 C7.84108366 0.10429495 15.60841466 0.51469947 23.41796875 1.23046875 C23.53178393 7.42707317 23.4248586 13.60319337 23.10546875 19.79296875 C23.04746094 20.96988281 22.98945313 22.14679687 22.9296875 23.359375 C22.76082031 24.30683594 22.59195312 25.25429688 22.41796875 26.23046875 C19.19583118 28.37856046 18.14021474 28.52433028 14.41796875 28.23046875 C13.41796875 27.23046875 13.41796875 27.23046875 13.28515625 25.48046875 C13.30421891 19.9904233 13.72627079 14.67759017 14.41796875 9.23046875 C13.21398437 9.25367188 12.01 9.276875 10.76953125 9.30078125 C9.1940166 9.31953738 7.61849527 9.33773774 6.04296875 9.35546875 C5.24890625 9.37222656 4.45484375 9.38898437 3.63671875 9.40625 C1.5630486 9.42382348 -0.51086366 9.33382043 -2.58203125 9.23046875 C-4.58203125 7.23046875 -4.58203125 7.23046875 -4.83203125 4.73046875 C-4.47679921 1.17814833 -3.54453001 0.31638014 0 0 Z " fill="#08C168" transform="translate(338.58203125,24.76953125)"/>
<path d="M0 0 C3.16015625 1.55078125 3.16015625 1.55078125 6 4 C6.76171875 7.53125 6.76171875 7.53125 6.6875 11.5 C6.69330078 13.46453125 6.69330078 13.46453125 6.69921875 15.46875 C6 19 6 19 3.73828125 21.4296875 C-0.29570261 23.74304201 -3.48187008 24.04578776 -8 23 C-11.46885352 20.3098687 -12.63979476 18.83972595 -13.47265625 14.5859375 C-13.73495174 10.13363962 -13.4844918 6.96931279 -10.625 3.4375 C-6.92459742 0.00141189 -5.02778268 -0.48344064 0 0 Z " fill="#FFFDFB" transform="translate(279,45)"/>
<path d="M0 0 C1.2065625 0.0309375 1.2065625 0.0309375 2.4375 0.0625 C2.7675 1.0525 3.0975 2.0425 3.4375 3.0625 C3.9325 2.5675 4.4275 2.0725 4.9375 1.5625 C8.55380158 -0.60728095 11.25981616 -0.14638419 15.4375 0.0625 C16.0625 2.4375 16.0625 2.4375 16.4375 5.0625 C14.4375 7.0625 14.4375 7.0625 10.9375 8 C7.20064255 8.7298234 7.20064255 8.7298234 5.4375 12.0625 C5.10334812 14.44779212 5.10334812 14.44779212 5.09375 17.09765625 C5.06410156 18.07154297 5.03445312 19.04542969 5.00390625 20.04882812 C4.95955113 22.10351381 4.91528062 24.15820132 4.87109375 26.21289062 C4.84144531 27.18548828 4.81179687 28.15808594 4.78125 29.16015625 C4.76255859 30.05226807 4.74386719 30.94437988 4.72460938 31.86352539 C4.4375 34.0625 4.4375 34.0625 2.4375 36.0625 C-0.125 36.25 -0.125 36.25 -2.5625 36.0625 C-4.2954298 34.3295702 -3.69070046 32.10035664 -3.70144653 29.79101562 C-3.6994223 29.05560547 -3.69739807 28.32019531 -3.6953125 27.5625 C-3.69626923 26.81162109 -3.69722595 26.06074219 -3.69821167 25.28710938 C-3.69889338 23.69661373 -3.69703972 22.10611533 -3.69287109 20.515625 C-3.68752267 18.07285345 -3.69281634 15.63026579 -3.69921875 13.1875 C-3.69855797 11.64583293 -3.6972768 10.10416597 -3.6953125 8.5625 C-3.69733673 7.82708984 -3.69936096 7.09167969 -3.70144653 6.33398438 C-3.67238936 0.08957047 -3.67238936 0.08957047 0 0 Z " fill="#FF9452" transform="translate(85.5625,38.9375)"/>
<path d="M0 0 C2.5 1.8125 2.5 1.8125 4 4 C4 5.32 4 6.64 4 8 C-2.6 8 -9.2 8 -16 8 C-13.64705882 2.11764706 -13.64705882 2.11764706 -11 0 C-7.15739926 -1.28086691 -3.86297532 -1.0104362 0 0 Z " fill="#FFFCFB" transform="translate(126,46)"/>
</svg>
