<?xml version="1.0" encoding="UTF-8"?>
<svg version="1.1" xmlns="http://www.w3.org/2000/svg" width="670" height="402">
<path d="M0 0 C221.1 0 442.2 0 670 0 C670 132.66 670 265.32 670 402 C448.9 402 227.8 402 0 402 C0 269.34 0 136.68 0 0 Z " fill="#FEFEFE" transform="translate(0,0)"/>
<path d="M0 0 C13.00387137 2.21246423 24.21291975 4.4562099 32.24609375 15.70703125 C39.91810456 28.39637785 32.58410272 55.18525757 30.75 69.07421875 C27.86926565 84.33953263 27.86926565 84.33953263 31.375 98.57421875 C35.9143235 102.16588031 40.03759893 102.01581567 45.5715332 102.0065918 C46.48909897 102.01678345 47.40666473 102.0269751 48.35203552 102.03747559 C51.37667956 102.06760417 54.40100687 102.07687142 57.42578125 102.0859375 C59.52614901 102.10278426 61.62650669 102.1209345 63.72685242 102.14033508 C69.24892018 102.18784132 74.77094707 102.21764678 80.29315186 102.24377441 C85.93054274 102.27357667 91.56779276 102.32010819 97.20507812 102.36523438 C108.26164508 102.45127468 119.31824101 102.51861685 130.375 102.57421875 C129.66236273 107.56762479 128.22785315 109.96474249 124.33789062 113.13613892 C117.42243377 116.49265129 109.14308367 115.49903057 101.625 115.3984375 C99.68261932 115.39553087 97.74023337 115.39514939 95.79785156 115.39717102 C91.73588159 115.39396123 87.67499821 115.36707984 83.61328125 115.32202148 C78.42144906 115.26535409 73.23097046 115.25716421 68.03887939 115.2654295 C64.0306353 115.26823466 60.02269013 115.25058068 56.01452637 115.22629738 C54.1008911 115.21612505 52.18722188 115.21098956 50.27355957 115.21109581 C47.59322521 115.20710398 44.91442491 115.17684683 42.234375 115.1394043 C41.45284058 115.14278809 40.67130615 115.14617187 39.86608887 115.1496582 C33.45278408 115.01430908 28.35021691 113.0292111 23.38671875 108.93359375 C17.68021905 101.99826079 15.5726863 95.55396057 16.375 86.57421875 C16.705 84.59421875 17.035 82.61421875 17.375 80.57421875 C7.145 80.57421875 -3.085 80.57421875 -13.625 80.57421875 C-13.625 79.91421875 -13.625 79.25421875 -13.625 78.57421875 C-3.395 77.58421875 6.835 76.59421875 17.375 75.57421875 C17.705 72.60421875 18.035 69.63421875 18.375 66.57421875 C-0.765 66.57421875 -19.905 66.57421875 -39.625 66.57421875 C-39.625 66.24421875 -39.625 65.91421875 -39.625 65.57421875 C-38.77841072 65.52117332 -38.77841072 65.52117332 -37.91471863 65.46705627 C-31.99258926 65.0956842 -26.07059893 64.72215058 -20.14868164 64.34741211 C-17.94428887 64.20819579 -15.73986227 64.06951408 -13.53540039 63.93139648 C-10.35033066 63.731744 -7.16539121 63.53011168 -3.98046875 63.328125 C-3.00917526 63.26766495 -2.03788177 63.2072049 -1.03715515 63.14491272 C5.44512489 62.73130529 11.90917983 62.19355282 18.375 61.57421875 C18.705 58.93421875 19.035 56.29421875 19.375 53.57421875 C6.505 53.57421875 -6.365 53.57421875 -19.625 53.57421875 C-19.625 53.24421875 -19.625 52.91421875 -19.625 52.57421875 C-15.67840563 52.02037154 -11.73145487 51.46914061 -7.78417969 50.92016602 C-5.79343372 50.6427709 -3.80296343 50.36339963 -1.8125 50.08398438 C5.24002697 49.10446674 12.28175838 48.20070824 19.375 47.57421875 C19.71470765 45.07494106 20.04688032 42.5750228 20.375 40.07421875 C20.47039062 39.378125 20.56578125 38.68203125 20.6640625 37.96484375 C22.22416182 28.37363213 22.22416182 28.37363213 19.375 19.57421875 C18.715 19.24421875 18.055 18.91421875 17.375 18.57421875 C17.375 17.91421875 17.375 17.25421875 17.375 16.57421875 C16.66891602 16.46875732 15.96283203 16.3632959 15.23535156 16.25463867 C12.02995243 15.76898012 8.82758943 15.26555862 5.625 14.76171875 C4.51382813 14.59607422 3.40265625 14.43042969 2.2578125 14.25976562 C1.18789063 14.08896484 0.11796875 13.91816406 -0.984375 13.7421875 C-1.96889648 13.59031982 -2.95341797 13.43845215 -3.96777344 13.28198242 C-6.86808388 12.50947232 -8.48791726 11.67422964 -10.625 9.57421875 C-11.370032 3.61396277 -11.370032 3.61396277 -9.390625 0.8515625 C-6.35769285 -1.34261629 -3.56721994 -0.44115885 0 0 Z " fill="#EE9D18" transform="translate(262.625,73.42578125)"/>
<path d="M0 0 C2.0625 1.05078125 2.0625 1.05078125 5.375 3.17578125 C6.70121709 3.85649445 8.0330109 4.52671463 9.375 5.17578125 C9.705 3.52578125 10.035 1.87578125 10.375 0.17578125 C14.665 0.17578125 18.955 0.17578125 23.375 0.17578125 C23.375 18.65578125 23.375 37.13578125 23.375 56.17578125 C18.755 56.17578125 14.135 56.17578125 9.375 56.17578125 C9.375 54.52578125 9.375 52.87578125 9.375 51.17578125 C8.67117188 51.60890625 7.96734375 52.04203125 7.2421875 52.48828125 C-1.49262779 57.4144434 -9.48843884 59.11931159 -19.3359375 56.4375 C-26.43591965 53.57156036 -30.7592986 48.70748362 -34.625 42.17578125 C-38.00144019 33.78913949 -38.10061429 23.0043582 -34.9375 14.48828125 C-31.85192825 8.03663124 -26.61860471 3.86852349 -20.625 0.17578125 C-14.51520864 -1.86081587 -6.18615277 -1.94237832 0 0 Z " fill="#EF9C16" transform="translate(480.625,265.82421875)"/>
<path d="M0 0 C4.41818222 2.82536116 4.41818222 2.82536116 5.859375 5.51953125 C5.8125 7.5625 5.8125 7.5625 4.16015625 9.703125 C3.40605469 10.39921875 2.65195312 11.0953125 1.875 11.8125 C1.12347656 12.51890625 0.37195313 13.2253125 -0.40234375 13.953125 C-0.99144531 14.48421875 -1.58054687 15.0153125 -2.1875 15.5625 C-5.25778096 14.40133752 -7.71046452 13.22701333 -10.5 11.4375 C-17.49582623 7.93294948 -26.91428632 8.16000936 -34.234375 10.5625 C-40.62283862 13.9696806 -44.354651 18.96645676 -47.1875 25.5625 C-49.44030483 34.51809452 -48.59358725 42.43238236 -44.1875 50.5625 C-40.77769842 55.79020733 -37.22646626 58.68025465 -31.1875 60.5625 C-21.3260109 61.88350944 -14.15602025 61.03154206 -5.640625 55.6796875 C-3.1875 54.5625 -3.1875 54.5625 -1.06640625 55.203125 C0.77895205 56.5382283 2.47968311 57.86158854 4.125 59.4375 C4.65738281 59.92992187 5.18976563 60.42234375 5.73828125 60.9296875 C6.8125 62.5625 6.8125 62.5625 6.75 64.5625 C5.49634941 67.23695458 3.99087629 68.13019273 1.5 69.6875 C0.72011719 70.18507813 -0.05976563 70.68265625 -0.86328125 71.1953125 C-11.17340317 77.2600901 -26.69743405 77.72162714 -38.29931641 75.08203125 C-41.99335126 73.8112266 -45.06172292 71.86814745 -48.1875 69.5625 C-48.92742187 69.07910156 -49.66734375 68.59570312 -50.4296875 68.09765625 C-58.26765002 62.2857331 -62.65338548 51.75016638 -65.1875 42.5625 C-66.46900464 28.51587773 -63.14987457 16.70010745 -54.25 5.75 C-41.14372431 -9.7253401 -16.17818958 -9.74035703 0 0 Z " fill="#EE9D19" transform="translate(431.1875,247.4375)"/>
<path d="M0 0 C6.0096139 3.83947554 8.97375059 8.01005011 11.40625 14.66796875 C12.30349382 19.70315939 12 24.88549208 12 30 C-2.19 30 -16.38 30 -31 30 C-28.46851243 35.61958718 -28.46851243 35.61958718 -24.1328125 39.30859375 C-16.31689466 41.84232536 -8.1584796 40.5792398 -1 37 C1.125 36.9375 1.125 36.9375 3 38 C4.8278551 39.91238019 6.38536812 41.89200838 8 44 C6.5438453 47.83672222 4.78641047 48.96544196 1.125 50.6875 C-0.17050781 51.31205078 -0.17050781 51.31205078 -1.4921875 51.94921875 C-9.9485148 55.49244623 -21.97576872 55.56083352 -30.625 52.4375 C-38.85421772 48.39973443 -42.92291672 42.52647813 -46.12109375 34.05078125 C-48.7760392 24.8351706 -46.72172314 15.97418367 -42.1875 7.6875 C-31.84856371 -5.01462173 -14.34861094 -8.37002305 0 0 Z " fill="#639F42" transform="translate(222,269)"/>
<path d="M0 0 C4.95 0 9.9 0 15 0 C15.33 9.24 15.66 18.48 16 28 C18.31 26.35 20.62 24.7 23 23 C29.09038752 20.96987083 36.39505748 21.10011077 42.4375 23.1875 C47.91774424 27.06377032 52.47904794 30.59834676 55 37 C55.50975974 40.30503812 55.46869747 43.53353354 55.390625 46.87109375 C55.38496521 47.793423 55.37930542 48.71575226 55.37347412 49.66603088 C55.35121637 52.59039858 55.30104047 55.51350731 55.25 58.4375 C55.22992127 60.42901867 55.21167291 62.42055669 55.1953125 64.41210938 C55.1513864 69.27521917 55.08243313 74.13739668 55 79 C50.05 79 45.1 79 40 79 C39.98541748 77.93563721 39.97083496 76.87127441 39.95581055 75.7746582 C39.8977022 71.81403531 39.82047055 67.85397352 39.73754883 63.89379883 C39.70435831 62.18197762 39.67630811 60.47004852 39.65356445 58.75805664 C39.61990968 56.29266521 39.56759026 53.82825719 39.51171875 51.36328125 C39.50532883 50.60163162 39.4989389 49.83998199 39.49235535 49.05525208 C39.3687551 44.55706444 38.79279553 41.57606233 36 38 C32.31064308 36.15532154 28.03564658 36.64990448 24 37 C19.70418517 38.736606 18.00438047 40.88277164 16 45 C15.68192703 47.7135881 15.51243644 50.21196723 15.48828125 52.92578125 C15.47033005 53.67337204 15.45237885 54.42096283 15.43388367 55.19120789 C15.37996151 57.56491558 15.34594446 59.93842432 15.3125 62.3125 C15.27931079 63.92776195 15.24481965 65.54299771 15.20898438 67.15820312 C15.12180742 71.10549447 15.06158958 75.05189571 15 79 C10.05 79 5.1 79 0 79 C0 52.93 0 26.86 0 0 Z " fill="#629E40" transform="translate(301,243)"/>
<path d="M0 0 C18.48 0 36.96 0 56 0 C56 4.62 56 9.24 56 14 C42.47 14 28.94 14 15 14 C15 21.26 15 28.52 15 36 C27.87 36 40.74 36 54 36 C54 40.29 54 44.58 54 49 C41.13 49 28.26 49 15 49 C15 58.9 15 68.8 15 79 C10.05 79 5.1 79 0 79 C0 52.93 0 26.86 0 0 Z " fill="#609D3E" transform="translate(63,243)"/>
<path d="M0 0 C24.09 0 48.18 0 73 0 C70.21273622 2.78726378 66.95535044 3.25442425 63.25 4.25 C39.90454549 10.85589898 18.23377863 23.45089445 6.0625 45.0625 C5.37201934 46.37343438 4.68399096 47.6856679 4 49 C12.2372684 47.76954519 19.89755554 45.62614506 27.75 42.875 C28.89017578 42.47684082 30.03035156 42.07868164 31.20507812 41.66845703 C51.71916626 34.71628772 51.71916626 34.71628772 67 21 C67.66 21.33 68.32 21.66 69 22 C68.54109375 22.51949219 68.0821875 23.03898437 67.609375 23.57421875 C66.99578125 24.27160156 66.3821875 24.96898437 65.75 25.6875 C65.14671875 26.37199219 64.5434375 27.05648437 63.921875 27.76171875 C62.58863741 29.31445277 61.30066226 30.90675655 60.05078125 32.52734375 C47.82880044 47.26356061 25.76719139 57.2720637 7 60 C2.64890286 60.20652457 -1.64936751 60.15562325 -6 60 C-5.35691211 49.68309337 -4.37245636 39.42412035 -3.27050781 29.14794922 C-2.99817772 26.60800407 -2.7292693 24.06771413 -2.4609375 21.52734375 C-2.28665421 19.88539586 -2.11218181 18.24346804 -1.9375 16.6015625 C-1.85830322 15.85556793 -1.77910645 15.10957336 -1.69750977 14.3409729 C-1.58234009 13.26847794 -1.58234009 13.26847794 -1.46484375 12.17431641 C-1.399021 11.55924225 -1.33319824 10.94416809 -1.26538086 10.31045532 C-0.87026102 6.87046823 -0.42948325 3.43586597 0 0 Z " fill="#65A145" transform="translate(305,104)"/>
<path d="M0 0 C0.66 0.99 1.32 1.98 2 3 C0.35 5.97 -1.3 8.94 -3 12 C-5.95829383 11.40834123 -8.90636606 10.74740618 -11.8125 9.9375 C-18.21803528 8.33310039 -23.78038075 8.5121523 -30 11 C-29.36078035 13.47627099 -29.36078035 13.47627099 -28 16 C-24.55297172 17.78139335 -21.08943367 18.39767926 -17.27587891 18.98803711 C-3.95660319 21.05739851 -3.95660319 21.05739851 1 26 C4.30533428 31.04146945 3.8919722 37.25020996 3 43 C0.28330988 48.19225389 -3.53697952 51.24380917 -8.96801758 53.42431641 C-12.8715703 54.53023702 -16.78289833 54.44027514 -20.8125 54.375 C-21.6988916 54.36629883 -22.5852832 54.35759766 -23.49853516 54.34863281 C-32.57469205 54.14489939 -39.71420021 52.56021563 -47 47 C-45.18690997 43.22272911 -43.0926741 39.62730178 -41 36 C-40.28457031 36.29648437 -39.56914062 36.59296875 -38.83203125 36.8984375 C-31.72523681 39.66273547 -24.65556801 41.79195531 -17 41 C-14.0745356 39.6490712 -14.0745356 39.6490712 -12 38 C-12.19471111 36.05000871 -12.19471111 36.05000871 -13 34 C-16.25146219 31.8911507 -19.45190595 31.5350117 -23.25 31.0625 C-31.61441452 29.82610278 -37.3936914 28.52445973 -42.87109375 21.71875 C-45.44059751 17.80670275 -45.59464016 13.52443598 -45 9 C-42.42563587 3.63674139 -38.12078142 -0.07247691 -33 -3 C-22.92546978 -5.90847307 -9.11993775 -5.31551927 0 0 Z " fill="#639F42" transform="translate(287,269)"/>
<path d="M0 0 C0 4.95 0 9.9 0 15 C4.95 15 9.9 15 15 15 C15 19.29 15 23.58 15 28 C10.05 28 5.1 28 0 28 C0.08667744 32.43848257 0.19353463 36.87486741 0.3125 41.3125 C0.33505859 42.57513672 0.35761719 43.83777344 0.38085938 45.13867188 C0.4340332 46.95141602 0.4340332 46.95141602 0.48828125 48.80078125 C0.51446533 49.91622314 0.54064941 51.03166504 0.56762695 52.1809082 C0.77833721 55.00058647 0.77833721 55.00058647 2.37695312 56.8828125 C4.75531605 58.51990467 6.37994908 58.0885787 9.1875 57.6875 C10.08855469 57.56761719 10.98960937 57.44773437 11.91796875 57.32421875 C12.60503906 57.21722656 13.29210937 57.11023438 14 57 C14.53394179 58.4117783 15.05165104 59.82970244 15.5625 61.25 C15.85253906 62.03890625 16.14257812 62.8278125 16.44140625 63.640625 C17.06982047 66.29490605 17.21067531 67.54720326 16 70 C12.1203359 72.24649667 8.41262241 72.29823506 4 72.3125 C2.80375 72.32925781 1.6075 72.34601563 0.375 72.36328125 C-4.88811984 71.79676488 -7.92573138 69.48912235 -11.25 65.5 C-11.75015625 64.9121875 -12.2503125 64.324375 -12.765625 63.71875 C-15.4497051 59.98142329 -15.11577876 56.36579584 -15.09765625 51.92578125 C-15.0962413 51.2419487 -15.09482635 50.55811615 -15.09336853 49.8535614 C-15.08777876 47.67316278 -15.07522822 45.49286749 -15.0625 43.3125 C-15.05748367 41.83268378 -15.052921 40.35286594 -15.04882812 38.87304688 C-15.03781271 35.24866443 -15.02055512 31.6243423 -15 28 C-18.3 28 -21.6 28 -25 28 C-25 23.71 -25 19.42 -25 15 C-21.7 15 -18.4 15 -15 15 C-15 10.38 -15 5.76 -15 1 C-9.74364995 -0.05127001 -5.33678117 -0.07115708 0 0 Z " fill="#EE9E1B" transform="translate(590,251)"/>
<path d="M0 0 C1.87907267 0.9496028 3.697652 2.01725864 5.5 3.10546875 C4.85632481 6.05841163 3.90722839 8.58828863 2.5625 11.29296875 C2.22347656 11.98777344 1.88445312 12.68257813 1.53515625 13.3984375 C0.5 15.10546875 0.5 15.10546875 -1.5 16.10546875 C-2.221875 15.79609375 -2.94375 15.48671875 -3.6875 15.16796875 C-8.23053663 13.45171047 -12.12886817 13.79502381 -16.8125 14.85546875 C-19.50073056 15.84272044 -19.50073056 15.84272044 -20.64208984 17.66699219 C-21.88231923 21.19215186 -21.8583908 24.67540522 -21.9140625 28.37109375 C-21.93342865 29.16449158 -21.9527948 29.9578894 -21.9727478 30.77532959 C-22.03238361 33.30193432 -22.07886443 35.828585 -22.125 38.35546875 C-22.16319455 40.07163412 -22.20224715 41.78778062 -22.2421875 43.50390625 C-22.33968276 47.70432723 -22.41937639 51.90455457 -22.5 56.10546875 C-27.78 56.10546875 -33.06 56.10546875 -38.5 56.10546875 C-38.5 37.62546875 -38.5 19.14546875 -38.5 0.10546875 C-33.88 0.10546875 -29.26 0.10546875 -24.5 0.10546875 C-24.5 2.08546875 -24.5 4.06546875 -24.5 6.10546875 C-23.95730469 5.68394531 -23.41460937 5.26242187 -22.85546875 4.828125 C-22.14003906 4.28027344 -21.42460937 3.73242188 -20.6875 3.16796875 C-19.97980469 2.62269531 -19.27210938 2.07742188 -18.54296875 1.515625 C-13.35042 -2.06852433 -5.82493005 -2.08423278 0 0 Z " fill="#66A145" transform="translate(167.5,265.89453125)"/>
<path d="M0 0 C3 1.75 3 1.75 5 5.75 C3.02 8.72 1.04 11.69 -1 14.75 C-1.825 14.585 -2.65 14.42 -3.5 14.25 C-10.29206121 13.04077845 -10.29206121 13.04077845 -16.7734375 14.69140625 C-20.14925236 17.31795488 -21.7609341 19.73549668 -23 23.75 C-23.22647164 26.23962735 -23.35432084 28.73908844 -23.4140625 31.23828125 C-23.43342865 31.94147995 -23.4527948 32.64467865 -23.4727478 33.3691864 C-23.53220183 35.60017019 -23.57879049 37.83120654 -23.625 40.0625 C-23.66321137 41.58140186 -23.70226492 43.10028278 -23.7421875 44.61914062 C-23.83945037 48.3293139 -23.91928606 52.03928263 -24 55.75 C-28.95 55.75 -33.9 55.75 -39 55.75 C-39 37.27 -39 18.79 -39 -0.25 C-34.38 -0.25 -29.76 -0.25 -25 -0.25 C-25 1.73 -25 3.71 -25 5.75 C-24.45730469 5.32847656 -23.91460938 4.90695312 -23.35546875 4.47265625 C-22.64003906 3.92480469 -21.92460938 3.37695312 -21.1875 2.8125 C-20.47980469 2.26722656 -19.77210938 1.72195313 -19.04296875 1.16015625 C-13.66708792 -2.55053779 -5.95965693 -2.30373293 0 0 Z " fill="#EE9C17" transform="translate(557,266.25)"/>
<path d="M0 0 C0.33 0 0.66 0 1 0 C0.06908065 8.89372349 -1.30688987 17.6779629 -2.79150391 26.49414062 C-3.09813744 28.33720733 -3.39659438 30.18165234 -3.68701172 32.02734375 C-4.11057533 34.71451898 -4.56024335 37.39618162 -5.015625 40.078125 C-5.13979797 40.89903625 -5.26397095 41.71994751 -5.39190674 42.56573486 C-6.32587862 47.84235225 -7.71577475 50.47756731 -12 54 C-12.33 54.33 -12.66 54.66 -13 55 C-15.75315884 55.11647097 -18.48156775 55.16801311 -21.23583984 55.17700195 C-22.09923477 55.18357315 -22.9626297 55.19014435 -23.85218811 55.19691467 C-26.72177201 55.21669602 -29.59130349 55.22832028 -32.4609375 55.23828125 C-33.92679228 55.24439454 -33.92679228 55.24439454 -35.42226028 55.25063133 C-40.59335369 55.27151161 -45.76442039 55.28580546 -50.93554688 55.29516602 C-56.28819863 55.30624138 -61.6404359 55.34064869 -66.9929409 55.38033772 C-71.09867142 55.40642928 -75.20430204 55.41485114 -79.31010818 55.41844749 C-81.28374662 55.42333193 -83.25738006 55.43499828 -85.23093796 55.45348549 C-87.98942054 55.47772129 -90.74681562 55.47694076 -93.50537109 55.4699707 C-94.73515938 55.48918579 -94.73515938 55.48918579 -95.98979187 55.50878906 C-101.54216449 55.45748809 -101.54216449 55.45748809 -104.03091431 52.97062683 C-104.35071259 52.32031998 -104.67051086 51.67001312 -105 51 C-103.46629761 50.970271 -103.46629761 50.970271 -101.90161133 50.93994141 C-98.04527435 50.8628736 -94.18926612 50.77432861 -90.33325195 50.68261719 C-88.67609224 50.64473925 -87.01886174 50.60982134 -85.36157227 50.578125 C-75.4207712 50.38574179 -65.79317458 49.89808787 -56 48 C-55.28593994 47.86513184 -54.57187988 47.73026367 -53.83618164 47.59130859 C-34.2376734 43.58258129 -19.07251301 33.11090096 -8.015625 16.40625 C-4.89259475 11.12857098 -2.36255523 5.66086763 0 0 Z " fill="#629F40" transform="translate(405,116)"/>
<path d="M0 0 C4.95520521 2.57289501 8.49116963 5.98233926 11 11 C11.39943215 16.79176614 11.18807359 21.98252847 8 27 C4.32303316 30.56475893 0.48743811 32.29478787 -4.625 32.5625 C-8.98869113 32.30669742 -11.62268287 30.81443094 -15 28 C-15.5775 27.525625 -16.155 27.05125 -16.75 26.5625 C-20.08178629 22.39776714 -20.52912458 18.20305839 -20 13 C-18.17322864 7.72704914 -15.77479176 4.06076395 -11 1 C-7.27200105 -0.24266632 -3.87217006 -0.52902513 0 0 Z " fill="#FEFDF7" transform="translate(478,278)"/>
<path d="M0 0 C3.29110633 2.10070617 4.8333853 3.75007795 7 7 C7.72517392 11.50282411 7.60000036 14.99285654 5.25 18.9375 C1.2021315 22.64804612 -1.42329719 23.36104358 -7.0390625 23.18359375 C-10.94456395 22.81793923 -13.17299613 21.912556 -15.8125 19 C-17.53974498 14.63643373 -17.69305389 10.63051391 -17 6 C-12.85351868 -1.1082537 -7.52274689 -1.88068672 0 0 Z " fill="#EF9C12" transform="translate(307,193)"/>
<path d="M0 0 C3.40654184 2.14760246 5.77828524 4.11272577 7 8 C7.45295055 12.98245604 7.1745053 16.05923481 4 20 C0.14364486 23.38891815 -3.68456023 23.5065146 -8.62109375 23.359375 C-12.01453183 22.84673739 -13.74975586 21.54059822 -16 19 C-17.4472889 14.65813329 -17.52187856 10.53744415 -17 6 C-15.22622661 2.84662509 -13.80337044 1.4909486 -10.75 -0.375 C-6.95321356 -1.23790601 -3.74686178 -1.05427892 0 0 Z " fill="#EF9D19" transform="translate(364,193)"/>
<path d="M0 0 C20.295 0.495 20.295 0.495 41 1 C41 3.64 41 6.28 41 9 C38.81982885 11.18017115 33.96905669 10.54815218 30.93359375 10.75390625 C30.1286145 10.81187378 29.32363525 10.86984131 28.4942627 10.92956543 C25.47569744 11.14557233 22.45656162 11.3535451 19.4375 11.5625 C9.3209375 12.2740625 9.3209375 12.2740625 -1 13 C19.295 13.495 19.295 13.495 40 14 C40 16.97 40 19.94 40 23 C39.67 23 39.34 23 39 23 C39 20.36 39 17.72 39 15 C19.86 15 0.72 15 -19 15 C-18.67 13.68 -18.34 12.36 -18 11 C-16.85402344 10.93941406 -15.70804688 10.87882813 -14.52734375 10.81640625 C-12.99738703 10.73193011 -11.46743959 10.64728573 -9.9375 10.5625 C-8.80924805 10.50352539 -8.80924805 10.50352539 -7.65820312 10.44335938 C-6.54155273 10.38051758 -6.54155273 10.38051758 -5.40234375 10.31640625 C-4.72679443 10.27974854 -4.05124512 10.24309082 -3.35522461 10.20532227 C-1.45538555 10.03969931 0.43645828 9.78381345 2.32226562 9.5 C5.98762049 9.00168303 9.54991112 8.79463786 13.24609375 8.68359375 C13.90207047 8.66281265 14.55804718 8.64203156 15.23390198 8.62062073 C17.30167546 8.55594062 19.36956101 8.49662534 21.4375 8.4375 C22.85092242 8.39423693 24.26433407 8.35062035 25.67773438 8.30664062 C29.11837471 8.20034484 32.55913692 8.09885528 36 8 C36.66 6.35 37.32 4.7 38 3 C25.46 3 12.92 3 0 3 C0 2.01 0 1.02 0 0 Z " fill="#F9DFA9" transform="translate(241,126)"/>
<path d="M0 0 C0.33 0 0.66 0 1 0 C1 4.95 1 9.9 1 15 C-12.53 15 -26.06 15 -40 15 C-40 21.6 -40 28.2 -40 35 C-35.81183594 34.96519531 -35.81183594 34.96519531 -31.5390625 34.9296875 C-28.8418015 34.91410043 -26.14454547 34.90195031 -23.44726562 34.89013672 C-21.56931318 34.88006466 -19.69137647 34.86640638 -17.81347656 34.84912109 C-15.1177991 34.82492547 -12.42232854 34.81352917 -9.7265625 34.8046875 C-8.88380768 34.79436493 -8.04105286 34.78404236 -7.17276001 34.77340698 C-5.11378753 34.77300856 -3.05532065 34.87742412 -1 35 C1 37 1 37 1.01171875 40.00390625 C0.90472656 41.17824219 0.79773438 42.35257812 0.6875 43.5625 C0.58824219 44.73941406 0.48898438 45.91632813 0.38671875 47.12890625 C0 50 0 50 -1 51 C-3.8116338 51.08861992 -6.59858255 51.11522355 -9.41015625 51.09765625 C-10.25219101 51.0962413 -11.09422577 51.09482635 -11.96177673 51.09336853 C-14.66205335 51.08775263 -17.36224828 51.07519748 -20.0625 51.0625 C-21.88867068 51.05748705 -23.71484266 51.05292379 -25.54101562 51.04882812 C-30.02740085 51.03862716 -34.51360855 51.01905499 -39 51 C-39.33 60.24 -39.66 69.48 -40 79 C-40.33 79 -40.66 79 -41 79 C-41 69.1 -41 59.2 -41 49 C-28.13 49 -15.26 49 -2 49 C-2 44.71 -2 40.42 -2 36 C-14.87 36 -27.74 36 -41 36 C-41 28.74 -41 21.48 -41 14 C-27.47 14 -13.94 14 0 14 C0 9.38 0 4.76 0 0 Z " fill="#C9E9B6" transform="translate(119,243)"/>
<path d="M0 0 C2.56939316 1.75470752 4.07618617 3.02509132 5.5625 5.75 C5.5625 7.07 5.5625 8.39 5.5625 9.75 C-3.6775 9.75 -12.9175 9.75 -22.4375 9.75 C-20.10416667 2.75 -20.10416667 2.75 -16.4375 -0.25 C-10.96290202 -2.07486599 -5.4099833 -1.96726665 0 0 Z " fill="#F6FCF2" transform="translate(213.4375,279.25)"/>
<path d="M0 0 C0.66 0 1.32 0 2 0 C2 4.62 2 9.24 2 14 C-1.3 14 -4.6 14 -8 14 C-8 18.29 -8 22.58 -8 27 C-4.7 27 -1.4 27 2 27 C2.01458252 27.90766113 2.02916504 28.81532227 2.04418945 29.75048828 C2.10548149 33.1390931 2.17967576 36.52691689 2.26245117 39.91503906 C2.29557135 41.37749708 2.32364305 42.84007895 2.34643555 44.30273438 C2.38022175 46.41329403 2.4325438 48.52273186 2.48828125 50.6328125 C2.51446533 51.90012207 2.54064941 53.16743164 2.56762695 54.47314453 C3.18220635 59.48625234 5.23503819 62.85255728 8 67 C5.6875 66.5625 5.6875 66.5625 3 65 C-0.96518801 57.92719141 -0.34987586 49.76901263 -0.1875 41.9375 C-0.17396484 40.69033203 -0.16042969 39.44316406 -0.14648438 38.15820312 C-0.1113902 35.10501033 -0.06222267 32.0527401 0 29 C-2.97 29 -5.94 29 -9 29 C-9.268125 27.5975 -9.53625 26.195 -9.8125 24.75 C-10.90848754 19.84736852 -10.90848754 19.84736852 -14 16 C-19.04850355 13.53731534 -24.49016771 13.26651995 -30 14 C-32.65105788 15.06645972 -34.60608192 16.37213571 -37 18 C-38.32646156 18.6802367 -39.65608877 19.35492261 -41 20 C-41 19.01 -41 18.02 -41 17 C-40.01 17 -39.02 17 -38 17 C-38 16.34 -38 15.68 -38 15 C-37.01 15 -36.02 15 -35 15 C-35 14.34 -35 13.68 -35 13 C-29.62941155 10.56235497 -24.81887441 10.42751162 -19 11 C-15.56673358 12.34878324 -13.05974699 13.96016867 -10 16 C-9.67 15.01 -9.34 14.02 -9 13 C-6.03 13 -3.06 13 0 13 C0 8.71 0 4.42 0 0 Z " fill="#FEF0C7" transform="translate(573,252)"/>
<path d="M0 0 C0.495 0.99 0.495 0.99 1 2 C0.34 2 -0.32 2 -1 2 C-1 2.66 -1 3.32 -1 4 C-4.7761016 5.21208524 -8.50963317 5.13377197 -12.43066406 5.11352539 C-13.17251953 5.11367142 -13.914375 5.11381744 -14.67871094 5.1139679 C-17.12437897 5.11327269 -19.56997031 5.10549866 -22.015625 5.09765625 C-23.71384642 5.09579068 -25.41206838 5.09436743 -27.11029053 5.09336853 C-31.57533255 5.08955432 -36.04034194 5.07973339 -40.50537109 5.06866455 C-45.06347207 5.05842687 -49.62157833 5.05386586 -54.1796875 5.04882812 C-63.11980599 5.03811014 -72.05990028 5.02104687 -81 5 C-81 5.66 -81 6.32 -81 7 C-80.01 7.33 -79.02 7.66 -78 8 C-81.01131471 9.50565735 -83.64600316 8.62199955 -86.90625 8.15625 C-89.05865882 7.81577246 -89.05865882 7.81577246 -91 9 C-90.34 7.68 -89.68 6.36 -89 5 C-90.32 4.67 -91.64 4.34 -93 4 C-93 3.34 -93 2.68 -93 2 C-91.31870247 2.00666183 -91.31870247 2.00666183 -89.60343933 2.01345825 C-79.05291031 2.05395878 -68.50239702 2.08396248 -57.95180798 2.10362434 C-52.52732802 2.11407242 -47.1029107 2.1282503 -41.6784668 2.15087891 C-36.4459757 2.17257077 -31.21354493 2.18456091 -25.98101234 2.18975449 C-23.98227297 2.19345682 -21.98353699 2.20068632 -19.98482323 2.21146011 C-17.19057388 2.2259264 -14.39657554 2.22797998 -11.60229492 2.22705078 C-10.77151428 2.23424133 -9.94073364 2.24143188 -9.08477783 2.24884033 C-5.19691111 2.23480165 -3.31091499 2.20727666 0 0 Z " fill="#FCEAC1" transform="translate(387,185)"/>
<path d="M0 0 C9.9 0 19.8 0 30 0 C30 0.33 30 0.66 30 1 C23.07 1 16.14 1 9 1 C9 1.66 9 2.32 9 3 C36.39 3 63.78 3 92 3 C92 3.33 92 3.66 92 4 C80.4477222 4.09258239 68.8955323 4.16370523 57.3429594 4.20724869 C51.97891344 4.22814488 46.61512083 4.25649971 41.2512207 4.30175781 C36.07706517 4.34514291 30.90315369 4.36912179 25.72883034 4.37950897 C23.75239022 4.38691353 21.77596383 4.40137253 19.7996273 4.42292023 C17.03628803 4.45185677 14.27396386 4.45596011 11.51049805 4.45410156 C10.68906815 4.46848267 9.86763824 4.48286377 9.02131653 4.49768066 C6.73954773 4.48101807 6.73954773 4.48101807 3 4 C2.01 2.68 1.02 1.36 0 0 Z " fill="#81AA69" transform="translate(300,167)"/>
<path d="M0 0 C0.66 0.33 1.32 0.66 2 1 C1.85970581 3.1462026 1.71261836 5.29196218 1.5625 7.4375 C1.48128906 8.63246094 1.40007812 9.82742188 1.31640625 11.05859375 C1 14 1 14 0 15 C-2.8116338 15.08861992 -5.59858255 15.11522355 -8.41015625 15.09765625 C-9.25219101 15.0962413 -10.09422577 15.09482635 -10.96177673 15.09336853 C-13.66205335 15.08775263 -16.36224828 15.07519748 -19.0625 15.0625 C-20.88867068 15.05748705 -22.71484266 15.05292379 -24.54101562 15.04882812 C-29.02740085 15.03862716 -33.51360855 15.01905499 -38 15 C-38.33 24.24 -38.66 33.48 -39 43 C-39.33 43 -39.66 43 -40 43 C-40 33.1 -40 23.2 -40 13 C-26.8 13 -13.6 13 0 13 C0 8.71 0 4.42 0 0 Z " fill="#D6E8CA" transform="translate(118,279)"/>
<path d="M0 0 C0 0.66 0 1.32 0 2 C-0.804375 2.226875 -1.60875 2.45375 -2.4375 2.6875 C-3.283125 3.120625 -4.12875 3.55375 -5 4 C-5.33 5.65 -5.66 7.3 -6 9 C-14.58 9 -23.16 9 -32 9 C-32.33 8.01 -32.66 7.02 -33 6 C-31.90558594 5.97873047 -31.90558594 5.97873047 -30.7890625 5.95703125 C-21.95353094 5.55343289 -14.1175853 3.57753397 -5.67578125 1.05859375 C-2 0 -2 0 0 0 Z " fill="#F6FDF1" transform="translate(332,158)"/>
<path d="M0 0 C1.22536972 0.24398781 1.22536972 0.24398781 2.47549438 0.49290466 C6.46839773 1.06739167 10.36933511 1.13245862 14.39208984 1.11352539 C15.21226593 1.11367142 16.03244202 1.11381744 16.87747192 1.1139679 C19.57198792 1.11327462 22.26643367 1.10550972 24.9609375 1.09765625 C26.83566246 1.09578999 28.7103879 1.09436707 30.58511353 1.09336853 C35.50715493 1.08955973 40.42916659 1.07974346 45.35119629 1.06866455 C50.37865802 1.05841519 55.40612457 1.05386337 60.43359375 1.04882812 C70.28907553 1.03811968 80.14453529 1.02106297 90 1 C90 0.67 90 0.34 90 0 C91.98 0 93.96 0 96 0 C95.02120972 1.47673035 95.02120972 1.47673035 93 3 C90.1472592 3.29105119 87.51368196 3.39943112 84.66064453 3.37231445 C83.80992371 3.37596512 82.95920288 3.37961578 82.08270264 3.38337708 C79.26587051 3.39149356 76.44961178 3.37786115 73.6328125 3.36328125 C71.6760966 3.36276268 69.71938018 3.36328026 67.76266479 3.36479187 C63.65859209 3.36470209 59.55471559 3.35426286 55.45068359 3.33618164 C50.1925537 3.31352429 44.93471134 3.3129444 39.6765461 3.31969929 C35.63420054 3.32304324 31.59192039 3.31640063 27.54958725 3.30657005 C25.61112689 3.30272287 23.67265924 3.30156784 21.73419571 3.3031559 C19.02203813 3.30352727 16.310247 3.29088503 13.59814453 3.2746582 C12.39788132 3.27837433 12.39788132 3.27837433 11.17337036 3.28216553 C7.01335068 3.24249715 3.74147887 2.87364833 0 1 C0 0.67 0 0.34 0 0 Z " fill="#E59E2C" transform="translate(291,185)"/>
<path d="M0 0 C20.295 0.495 20.295 0.495 41 1 C41 3.64 41 6.28 41 9 C39.35 9 37.7 9 36 9 C36.66 7.02 37.32 5.04 38 3 C25.46 3 12.92 3 0 3 C0 2.01 0 1.02 0 0 Z " fill="#FCEFC3" transform="translate(241,126)"/>
<path d="M0 0 C0 0.33 0 0.66 0 1 C-4.29 1.66 -8.58 2.32 -13 3 C-8.71 3.33 -4.42 3.66 0 4 C0 4.33 0 4.66 0 5 C-12.87 5 -25.74 5 -39 5 C-39 4.67 -39 4.34 -39 4 C-35.05432929 3.42127085 -31.10740632 2.85204928 -27.15917969 2.29101562 C-25.16792159 2.00614049 -23.17769479 1.71408614 -21.1875 1.421875 C-14.07248721 0.41571158 -7.18819643 -0.30524927 0 0 Z " fill="#DFA541" transform="translate(282,122)"/>
<path d="M0 0 C0.33 0 0.66 0 1 0 C1 3.3 1 6.6 1 10 C-0.98 10.66 -2.96 11.32 -5 12 C-4.34 12.66 -3.68 13.32 -3 14 C-12.57 14 -22.14 14 -32 14 C-32 13.34 -32 12.68 -32 12 C-21.77 11.01 -11.54 10.02 -1 9 C-0.67 6.03 -0.34 3.06 0 0 Z " fill="#E4A73D" transform="translate(281,140)"/>
<path d="M0 0 C0 0.33 0 0.66 0 1 C6.93 1.495 6.93 1.495 14 2 C14 2.33 14 2.66 14 3 C-5.14 3 -24.28 3 -44 3 C-44 2.67 -44 2.34 -44 2 C-39.50198002 1.71072342 -35.00369496 1.42610164 -30.50512695 1.14550781 C-28.97965851 1.04973417 -27.45426482 0.95276098 -25.92895508 0.85449219 C-17.27622384 0.29790035 -8.67641675 -0.169273 0 0 Z " fill="#DE9A28" transform="translate(267,137)"/>
<path d="M0 0 C0 0.99 0 1.98 0 3 C-10.56 3 -21.12 3 -32 3 C-32 2.34 -32 1.68 -32 1 C-9.19872014 -0.19388403 -9.19872014 -0.19388403 0 0 Z " fill="#61973E" transform="translate(341,167)"/>
<path d="M0 0 C0.66 0 1.32 0 2 0 C4.8352113 5.5522888 5.37952295 9.80112515 5 16 C4.34 16 3.68 16 3 16 C2.731875 17.093125 2.46375 18.18625 2.1875 19.3125 C0.61744966 24.18791946 0.61744966 24.18791946 -2 26 C-5.57308791 27.20487848 -9.00576055 27.09994239 -12.75 27.0625 C-13.92046875 27.05347656 -15.0909375 27.04445313 -16.296875 27.03515625 C-17.18890625 27.02355469 -18.0809375 27.01195312 -19 27 C-19 26.34 -19 25.68 -19 25 C-18.28714844 25.04640625 -17.57429688 25.0928125 -16.83984375 25.140625 C-10.28615753 25.38760106 -6.1270541 25.27254508 -1 21 C2.11892454 15.94711866 2.47522213 10.79771 2 5 C1.11785113 2.11785113 1.11785113 2.11785113 0 0 Z " fill="#E5A02E" transform="translate(486,284)"/>
<path d="M0 0 C0.33 0 0.66 0 1 0 C1 7.26 1 14.52 1 22 C1.66 22 2.32 22 3 22 C3 23.65 3 25.3 3 27 C-2.09150316 20.98276899 -2.62196499 14.59514937 -2 7 C-1.49703694 4.55889483 -0.82122378 2.36101837 0 0 Z " fill="#FDEFCC" transform="translate(384,271)"/>
<path d="M0 0 C6.18461538 6.18461538 6.18461538 6.18461538 6.3125 10.25 C6.2741963 13.69186104 6.0692101 14.88382591 4.25 17.9375 C-0.47978939 22.27314028 -3.74633697 22.20845543 -10 22 C-10 21.67 -10 21.34 -10 21 C-7.69 21 -5.38 21 -3 21 C-3 20.34 -3 19.68 -3 19 C-1.68 19 -0.36 19 1 19 C0.67 17.68 0.34 16.36 0 15 C0.66 15.33 1.32 15.66 2 16 C2.36402369 14.56496445 2.71586591 13.12683494 3.0625 11.6875 C3.25972656 10.88699219 3.45695312 10.08648437 3.66015625 9.26171875 C4.19885554 6.84042821 4.19885554 6.84042821 3 4 C2.34 4 1.68 4 1 4 C0.67 2.68 0.34 1.36 0 0 Z " fill="#E6A438" transform="translate(308,194)"/>
<path d="M0 0 C1.46373047 0.02707031 1.46373047 0.02707031 2.95703125 0.0546875 C3.69308594 0.07789063 4.42914062 0.10109375 5.1875 0.125 C5.5175 0.785 5.8475 1.445 6.1875 2.125 C5.00994141 2.16367187 5.00994141 2.16367187 3.80859375 2.203125 C-2.93787096 2.56735132 -7.24359614 3.29637859 -12.8125 7.125 C-14.13896156 7.8052367 -15.46858877 8.47992261 -16.8125 9.125 C-16.8125 8.135 -16.8125 7.145 -16.8125 6.125 C-15.8225 6.125 -14.8325 6.125 -13.8125 6.125 C-13.8125 5.465 -13.8125 4.805 -13.8125 4.125 C-12.8225 4.125 -11.8325 4.125 -10.8125 4.125 C-10.8125 3.465 -10.8125 2.805 -10.8125 2.125 C-7.04027911 0.37336544 -4.145861 -0.09990027 0 0 Z " fill="#FFFBDE" transform="translate(548.8125,262.875)"/>
<path d="M0 0 C0.66 0.33 1.32 0.66 2 1 C-1.86364295 5.48717034 -5.74790208 9.87675353 -10 14 C-10.99 12.68 -11.98 11.36 -13 10 C-12.14535156 9.44570312 -11.29070312 8.89140625 -10.41015625 8.3203125 C-9.29411027 7.58878657 -8.1782336 6.85700229 -7.0625 6.125 C-5.96035156 5.40570313 -4.85820312 4.68640625 -3.72265625 3.9453125 C-0.94618034 2.28216717 -0.94618034 2.28216717 0 0 Z " fill="#76A15B" transform="translate(372,125)"/>
<path d="M0 0 C0 0.99 0 1.98 0 3 C-1.93359375 4.71875 -1.93359375 4.71875 -4.4375 6.5 C-8.14968451 9.02553584 -8.14968451 9.02553584 -10 13 C-11.62890625 14.60546875 -11.62890625 14.60546875 -13.5625 16.1875 C-14.20316406 16.71730469 -14.84382813 17.24710938 -15.50390625 17.79296875 C-15.99761719 18.19128906 -16.49132812 18.58960938 -17 19 C-17.66 18.67 -18.32 18.34 -19 18 C-13.11891386 11.21035358 -7.36891274 5.2151967 0 0 Z " fill="#EAF8E0" transform="translate(334,123)"/>
<path d="M0 0 C1 4 1 4 0.125 6.125 C-0.24625 6.74375 -0.6175 7.3625 -1 8 C-1.33 8.66 -1.66 9.32 -2 10 C-0.9275 9.649375 0.145 9.29875 1.25 8.9375 C4.78720743 8.05319814 5.74811124 7.97119449 9 9 C7.25364835 9.53293835 5.50272348 10.05090663 3.75 10.5625 C2.77546875 10.85253906 1.8009375 11.14257812 0.796875 11.44140625 C-2 12 -2 12 -6 11 C-4.02 7.37 -2.04 3.74 0 0 Z " fill="#E9F6DE" transform="translate(314,142)"/>
<path d="M0 0 C1.32 0.66 2.64 1.32 4 2 C2.02 4.31 0.04 6.62 -2 9 C-3.32 7.35 -4.64 5.7 -6 4 C-4.03617993 2.49440461 -2.21736634 1.10868317 0 0 Z " fill="#6EA14E" transform="translate(358,136)"/>
<path d="M0 0 C-0.33 0.66 -0.66 1.32 -1 2 C-2.99802178 2.26203564 -4.9977082 2.51749739 -7.00390625 2.70703125 C-9.12215772 2.90462876 -9.12215772 2.90462876 -11.25 4.1875 C-11.8275 4.455625 -12.405 4.72375 -13 5 C-15.25 4.125 -15.25 4.125 -17 3 C-11.42531458 -0.61601216 -6.39432346 -0.30720059 0 0 Z " fill="#71A358" transform="translate(165,265)"/>
<path d="M0 0 C2.5 1.5 2.5 1.5 4 3 C3.43152344 2.98839844 2.86304688 2.97679687 2.27734375 2.96484375 C-2.59630485 2.90788959 -7.17331792 3.22773087 -12 4 C-12.99 4 -13.98 4 -15 4 C-10.26993842 0.24857185 -6.02364297 -0.72720036 0 0 Z " fill="#FCECC2" transform="translate(478,278)"/>
<path d="M0 0 C1.875 0.1875 1.875 0.1875 4 1 C6.70225004 4.98903577 5.99211714 9.12181225 5.58203125 13.6953125 C4.92137776 16.31132297 4.05410604 17.30577777 2 19 C1.01 18.67 0.02 18.34 -1 18 C-0.34 18 0.32 18 1 18 C3.0088583 13.85672976 3.40215934 10.58461644 3 6 C1.61785878 2.64838754 1.61785878 2.64838754 0 0 Z " fill="#FEF9DB" transform="translate(367,195)"/>
<path d="M0 0 C0.33 0 0.66 0 1 0 C1 4.29 1 8.58 1 13 C1.99 13 2.98 13 4 13 C4.33 14.65 4.66 16.3 5 18 C0.125 15.375 0.125 15.375 -1 12 C-1.09287771 10.31454276 -1.12997204 8.625507 -1.125 6.9375 C-1.12757813 6.05964844 -1.13015625 5.18179688 -1.1328125 4.27734375 C-1 2 -1 2 0 0 Z " fill="#E6A432" transform="translate(348,197)"/>
<path d="M0 0 C0.66 0.33 1.32 0.66 2 1 C0.47940093 4.88014936 -1.86078531 6.73906562 -5.125 9.25 C-6.03507812 9.95640625 -6.94515625 10.6628125 -7.8828125 11.390625 C-8.58148438 11.92171875 -9.28015625 12.4528125 -10 13 C-10 8.41771462 -7.08388033 6.1816619 -4 3 C-1.625 1.0625 -1.625 1.0625 0 0 Z " fill="#E8A633" transform="translate(384,247)"/>
<path d="M0 0 C1.98 0 3.96 0 6 0 C6.33 5.28 6.66 10.56 7 16 C6.01 15.67 5.02 15.34 4 15 C4 10.38 4 5.76 4 1 C2.68 0.67 1.36 0.34 0 0 Z " fill="#FEF7D7" transform="translate(273,156)"/>
<path d="M0 0 C0.66 0.33 1.32 0.66 2 1 C1.43040847 4.62613199 0.07625466 6.25517741 -2.5625 8.75 C-3.20316406 9.36359375 -3.84382813 9.9771875 -4.50390625 10.609375 C-5.24447266 11.29773438 -5.24447266 11.29773438 -6 12 C-10.875 10.25 -10.875 10.25 -12 8 C-10.02 8.66 -8.04 9.32 -6 10 C-5.67 8.68 -5.34 7.36 -5 6 C-4.01 6 -3.02 6 -2 6 C-2 5.34 -2 4.68 -2 4 C-1.34 4 -0.68 4 0 4 C0 2.68 0 1.36 0 0 Z " fill="#E3A434" transform="translate(435,251)"/>
<path d="M0 0 C4.59092706 -0.22058508 8.05455252 0.4638409 12.375 2 C13.43460937 2.37125 14.49421875 2.7425 15.5859375 3.125 C16.38257813 3.41375 17.17921875 3.7025 18 4 C14.82240197 5.02804642 12.83203771 4.92333644 9.625 4.0625 C5.99468384 3.16842214 2.75974371 2.80719263 -1 3 C-0.67 2.01 -0.34 1.02 0 0 Z " fill="#FEF6D0" transform="translate(255,71)"/>
<path d="M0 0 C6.875 2.75 6.875 2.75 8 5 C7.06553465 7.03144641 6.06775224 9.03533587 5 11 C3 9 3 9 2.875 5.375 C2.91625 4.26125 2.9575 3.1475 3 2 C2.01 2 1.02 2 0 2 C0 1.34 0 0.68 0 0 Z " fill="#6E9E50" transform="translate(281,267)"/>
<path d="M0 0 C1.11375 0.3403125 1.11375 0.3403125 2.25 0.6875 C-1.21044155 3.71538635 -5.27249221 5.67306464 -9.75 6.6875 C-12 6.265625 -12 6.265625 -13.75 5.6875 C-13.75 5.3575 -13.75 5.0275 -13.75 4.6875 C-12.6775 4.419375 -11.605 4.15125 -10.5 3.875 C-6.83224345 2.95866628 -6.83224345 2.95866628 -4.625 1 C-2.75 -0.3125 -2.75 -0.3125 0 0 Z " fill="#EDFAE1" transform="translate(367.75,156.3125)"/>
<path d="M0 0 C0.33 0.99 0.66 1.98 1 3 C0.34 3.66 -0.32 4.32 -1 5 C-1.99 5 -2.98 5 -4 5 C-4.309375 5.639375 -4.61875 6.27875 -4.9375 6.9375 C-6 9 -6 9 -7 10 C-8.66617115 10.04063832 -10.33388095 10.042721 -12 10 C-9.62226815 7.49914935 -7.04733058 5.41316697 -4.3125 3.3125 C-3.50425781 2.68988281 -2.69601562 2.06726563 -1.86328125 1.42578125 C-1.24839844 0.95527344 -0.63351562 0.48476562 0 0 Z " fill="#72A054" transform="translate(386,146)"/>
<path d="M0 0 C0.33 0 0.66 0 1 0 C0.42978066 5.3503559 -0.20734361 10.67787852 -1 16 C-1.66 14.68 -2.32 13.36 -3 12 C-3.99 12.495 -3.99 12.495 -5 13 C-3.58192622 8.52761347 -1.88695626 4.28853694 0 0 Z " fill="#79A462" transform="translate(405,116)"/>
<path d="M0 0 C0.70189453 0.00451172 1.40378906 0.00902344 2.12695312 0.01367188 C3.85550538 0.02543073 5.58401365 0.04336546 7.3125 0.0625 C7.3125 0.3925 7.3125 0.7225 7.3125 1.0625 C6.29929687 1.19527344 5.28609375 1.32804687 4.2421875 1.46484375 C2.89061796 1.64317584 1.53905586 1.82156425 0.1875 2 C-0.47765625 2.08701172 -1.1428125 2.17402344 -1.828125 2.26367188 C-5.79580188 2.78880558 -9.74376998 3.38064014 -13.6875 4.0625 C-9.67101983 -0.33650209 -5.64545497 -0.0685256 0 0 Z " fill="#E8AB4D" transform="translate(470.6875,264.9375)"/>
<path d="M0 0 C3.96 0 7.92 0 12 0 C12 0.66 12 1.32 12 2 C5.565 2.495 5.565 2.495 -1 3 C-0.67 2.01 -0.34 1.02 0 0 Z " fill="#FDF4CD" transform="translate(578,249)"/>
<path d="M0 0 C1.03125 0.33 2.0625 0.66 3.125 1 C8.27048102 2.46272747 12.81008785 2.2211558 18 1 C15.37072604 3.74359022 13.23366026 4.26486519 9.5625 4.375 C5.64717157 4.25224218 3.11686033 3.51359704 0 1 C0 0.67 0 0.34 0 0 Z " fill="#FEF3C9" transform="translate(464,306)"/>
<path d="M0 0 C4.62 0 9.24 0 14 0 C14 0.33 14 0.66 14 1 C9.71 1 5.42 1 1 1 C1 2.65 1 4.3 1 6 C-0.32 6 -1.64 6 -3 6 C-3.33 5.34 -3.66 4.68 -4 4 C-3.01 4 -2.02 4 -1 4 C-0.67 2.68 -0.34 1.36 0 0 Z " fill="#FDECBB" transform="translate(490,265)"/>
<path d="M0 0 C0 0.66 0 1.32 0 2 C-1.72290605 2.70304222 -3.45367466 3.38683491 -5.1875 4.0625 C-6.63189453 4.63677734 -6.63189453 4.63677734 -8.10546875 5.22265625 C-11.20934675 6.05622133 -12.94919117 5.88679818 -16 5 C-13.02880106 3.41075405 -10.10429288 2.32932834 -6.875 1.375 C-6.00617188 1.11460937 -5.13734375 0.85421875 -4.2421875 0.5859375 C-2 0 -2 0 0 0 Z " fill="#E4F5D7" transform="translate(332,158)"/>
<path d="M0 0 C2.31309705 0.11341637 4.62550185 0.24103807 6.9375 0.375 C8.86916016 0.47941406 8.86916016 0.47941406 10.83984375 0.5859375 C12.40412109 0.79089844 12.40412109 0.79089844 14 1 C14.33 1.66 14.66 2.32 15 3 C14.34773438 2.97679687 13.69546875 2.95359375 13.0234375 2.9296875 C7.91301097 2.82416247 3.79574967 2.98073698 -1 5 C-0.67 3.35 -0.34 1.7 0 0 Z " fill="#E59F2E" transform="translate(465,276)"/>
<path d="M0 0 C0.55171875 0.33773438 1.1034375 0.67546875 1.671875 1.0234375 C4.50305405 2.21101261 6.22704656 2.02275703 9.25 1.625 C10.58804688 1.45871094 10.58804688 1.45871094 11.953125 1.2890625 C12.62859375 1.19367188 13.3040625 1.09828125 14 1 C14 1.99 14 2.98 14 4 C10.04 4 6.08 4 2 4 C1.34 2.68 0.68 1.36 0 0 Z " fill="#E2A135" transform="translate(590,307)"/>
<path d="M0 0 C0.99 0 1.98 0 3 0 C3.66 0.99 4.32 1.98 5 3 C4.01 3.99 3.02 4.98 2 6 C0.68 5.34 -0.64 4.68 -2 4 C-1.34 2.68 -0.68 1.36 0 0 Z " fill="#6FA350" transform="translate(242,312)"/>
<path d="M0 0 C1.32 0.33 2.64 0.66 4 1 C4 1.66 4 2.32 4 3 C4.99 3.33 5.98 3.66 7 4 C7.33 5.65 7.66 7.3 8 9 C7.01 9 6.02 9 5 9 C4.9175 8.443125 4.835 7.88625 4.75 7.3125 C3.77389987 4.30285794 2.04811186 2.37845248 0 0 Z " fill="#FDF3D5" transform="translate(432,304)"/>
<path d="M0 0 C-2.85478326 1.90318884 -4.41941308 2.4619099 -7.6875 3.125 C-8.49574219 3.29257813 -9.30398438 3.46015625 -10.13671875 3.6328125 C-10.75160156 3.75398437 -11.36648438 3.87515625 -12 4 C-12 2 -12 2 -10.5 0.3125 C-6.74670195 -1.65798148 -4.12026476 -0.75538187 0 0 Z " fill="#FEF3CB" transform="translate(401,241)"/>
<path d="M0 0 C2 2 2 2 2 5 C2.66 5 3.32 5 4 5 C4 5.99 4 6.98 4 8 C2.68 7.67 1.36 7.34 0 7 C0 6.01 0 5.02 0 4 C-0.66 3.67 -1.32 3.34 -2 3 C-1.34 2.01 -0.68 1.02 0 0 Z " fill="#699F4A" transform="translate(398,131)"/>
<path d="M0 0 C0.53625 0.2475 1.0725 0.495 1.625 0.75 C-5.80357143 5.03571429 -5.80357143 5.03571429 -9.375 6.75 C-9.375 5.1 -9.375 3.45 -9.375 1.75 C-9.045 2.41 -8.715 3.07 -8.375 3.75 C-7.4675 3.069375 -6.56 2.38875 -5.625 1.6875 C-2.375 -0.25 -2.375 -0.25 0 0 Z " fill="#E4F7DA" transform="translate(152.375,265.25)"/>
<path d="M0 0 C5.16093535 6.81980743 5.16093535 6.81980743 4.625 10.75 C4.41875 11.4925 4.2125 12.235 4 13 C3.34 12.67 2.68 12.34 2 12 C1.3671875 9.27734375 1.3671875 9.27734375 0.875 5.9375 C0.70742188 4.83277344 0.53984375 3.72804688 0.3671875 2.58984375 C0.24601563 1.73519531 0.12484375 0.88054687 0 0 Z " fill="#FDEECB" transform="translate(604,308)"/>
<path d="M0 0 C1.17514114 2.35028228 2.3441341 4.70260711 3.5 7.0625 C4.96835739 10.07779265 4.96835739 10.07779265 7 13 C4.625 12.375 4.625 12.375 2 11 C0.25948202 7.27031861 -0.24058415 4.08993061 0 0 Z " fill="#FDF3CA" transform="translate(574,306)"/>
<path d="M0 0 C1.7397511 3.23096633 3.02103997 6.46068295 4 10 C3.67 10.99 3.34 11.98 3 13 C0.33409063 8.44573816 -0.31563182 5.26053037 0 0 Z " fill="#FAE4B4" transform="translate(458,291)"/>
<path d="M0 0 C1.65 0 3.3 0 5 0 C4.690625 0.845625 4.38125 1.69125 4.0625 2.5625 C2.98461179 6.0497854 2.43418696 9.38177535 2 13 C1.67 13 1.34 13 1 13 C1.01740234 11.84371094 1.01740234 11.84371094 1.03515625 10.6640625 C1.04417969 9.66117187 1.05320312 8.65828125 1.0625 7.625 C1.07410156 6.62726563 1.08570313 5.62953125 1.09765625 4.6015625 C1.18006602 2.01567547 1.18006602 2.01567547 0 0 Z " fill="#E99D29" transform="translate(456,285)"/>
<path d="M0 0 C1.65 0 3.3 0 5 0 C4.443125 0.4125 3.88625 0.825 3.3125 1.25 C1.63388406 2.52030395 -0.00782147 3.83985123 -1.625 5.1875 C-4 7 -4 7 -6 7 C-6 6.01 -6 5.02 -6 4 C-5.01 4 -4.02 4 -3 4 C-3 3.34 -3 2.68 -3 2 C-2.01 2 -1.02 2 0 2 C0 1.34 0 0.68 0 0 Z " fill="#FEF1C6" transform="translate(538,265)"/>
<path d="M0 0 C2.97 0.33 5.94 0.66 9 1 C9 1.66 9 2.32 9 3 C10.65 3.33 12.3 3.66 14 4 C14 4.66 14 5.32 14 6 C9.27775484 4.46527032 4.64144669 2.76054874 0 1 C0 0.67 0 0.34 0 0 Z " fill="#FCEBBD" transform="translate(418,242)"/>
<path d="M0 0 C1.1055189 0.93590504 2.20935453 1.87379858 3.3125 2.8125 C3.92738281 3.33457031 4.54226563 3.85664063 5.17578125 4.39453125 C6.85424679 5.87172469 8.43882034 7.40039131 10 9 C7.03824877 8.38722388 5.61941217 7.74627478 3 6 C3 5.34 3 4.68 3 4 C2.01 4 1.02 4 0 4 C0 2.68 0 1.36 0 0 Z " fill="#FDF1C5" transform="translate(448,312)"/>
<path d="M0 0 C0.33 0.99 0.66 1.98 1 3 C0.01 3.33 -0.98 3.66 -2 4 C-3.22520264 7.00847418 -3.22520264 7.00847418 -4 10 C-4.66 10 -5.32 10 -6 10 C-4.6302836 6.00499382 -2.74277578 3.19990508 0 0 Z " fill="#FEF3CC" transform="translate(391,261)"/>
<path d="M0 0 C0.66 0.33 1.32 0.66 2 1 C1.21654285 2.17219543 0.42297164 3.33763668 -0.375 4.5 C-0.81585938 5.1496875 -1.25671875 5.799375 -1.7109375 6.46875 C-2.13632812 6.9740625 -2.56171875 7.479375 -3 8 C-3.66 8 -4.32 8 -5 8 C-3.8141763 4.62496331 -2.72426311 2.35277269 0 0 Z " fill="#F0FBE1" transform="translate(322,280)"/>
<path d="M0 0 C0.66 0.33 1.32 0.66 2 1 C-0.97 4.96 -0.97 4.96 -4 9 C-4.33 7.68 -4.66 6.36 -5 5 C-2.5625 2.25 -2.5625 2.25 0 0 Z " fill="#EFFCE9" transform="translate(197,279)"/>
<path d="M0 0 C0.99 0.33 1.98 0.66 3 1 C2.01 1.33 1.02 1.66 0 2 C-0.33 2.99 -0.66 3.98 -1 5 C-2.5625 6.6875 -2.5625 6.6875 -4 8 C-4.66 7.67 -5.32 7.34 -6 7 C-4.02 4.69 -2.04 2.38 0 0 Z " fill="#6D9D54" transform="translate(249,269)"/>
<path d="M0 0 C-2.87164566 2.70272533 -4.30991841 3.94791837 -8.3125 4.25 C-9.199375 4.1675 -10.08625 4.085 -11 4 C-8.74499851 -0.51000297 -4.55950767 -0.20725035 0 0 Z " fill="#E7AB3F" transform="translate(304,192)"/>
<path d="M0 0 C2.125 0.9375 2.125 0.9375 4 2 C3.01 2.99 2.02 3.98 1 5 C0.01 4.67 -0.98 4.34 -2 4 C-2 3.01 -2 2.02 -2 1 C-1.34 0.67 -0.68 0.34 0 0 Z " fill="#689948" transform="translate(358,136)"/>
<path d="M0 0 C0.66 0.33 1.32 0.66 2 1 C-0.31 3.64 -2.62 6.28 -5 9 C-5.33 8.34 -5.66 7.68 -6 7 C-4.02 4.69 -2.04 2.38 0 0 Z " fill="#7FA366" transform="translate(372,125)"/>
<path d="M0 0 C1.875 0.25 1.875 0.25 4 1 C5.25 3.0625 5.25 3.0625 6 5 C5.01 5.99 4.02 6.98 3 8 C3 6.02 3 4.04 3 2 C2.01 1.67 1.02 1.34 0 1 C0 0.67 0 0.34 0 0 Z " fill="#E29F2D" transform="translate(556,267)"/>
<path d="M0 0 C0.5625 1.9375 0.5625 1.9375 1 4 C0.67 4.33 0.34 4.66 0 5 C-0.23075082 6.34747084 -0.41153063 7.70377565 -0.5625 9.0625 C-0.706875 10.361875 -0.85125 11.66125 -1 13 C-1.33 13 -1.66 13 -2 13 C-2.05416188 11.39620659 -2.09286638 9.79188594 -2.125 8.1875 C-2.14820313 7.29417969 -2.17140625 6.40085938 -2.1953125 5.48046875 C-2 3 -2 3 0 0 Z " fill="#E8AB46" transform="translate(292,196)"/>
<path d="M0 0 C2.1387261 3.20808915 2.47730962 4.27698497 2 8 C1.01 8.66 0.02 9.32 -1 10 C-0.67 6.7 -0.34 3.4 0 0 Z " fill="#E0F3D5" transform="translate(402,136)"/>
<path d="M0 0 C0.33 0.99 0.66 1.98 1 3 C-1 5 -1 5 -3.625 5.125 C-4.40875 5.08375 -5.1925 5.0425 -6 5 C-2.25 1.125 -2.25 1.125 0 0 Z " fill="#FEF6D4" transform="translate(436,314)"/>
<path d="M0 0 C1.32 0.33 2.64 0.66 4 1 C4 1.99 4 2.98 4 4 C4.99 4.33 5.98 4.66 7 5 C6.34 5.66 5.68 6.32 5 7 C0 1.125 0 1.125 0 0 Z " fill="#6DA053" transform="translate(243,288)"/>
<path d="M0 0 C0.625 1.8125 0.625 1.8125 1 4 C0.01 5.485 0.01 5.485 -1 7 C-1.99 7 -2.98 7 -4 7 C-2.79618552 4.50638429 -1.54571278 2.31856917 0 0 Z " fill="#77A557" transform="translate(395,135)"/>
<path d="M0 0 C0.33 1.32 0.66 2.64 1 4 C0.34 3.67 -0.32 3.34 -1 3 C-1.33 3.33 -1.66 3.66 -2 4 C-2.99 4.33 -3.98 4.66 -5 5 C-4.67 3.68 -4.34 2.36 -4 1 C-2.68 0.67 -1.36 0.34 0 0 Z " fill="#E4EFDD" transform="translate(374,123)"/>
</svg>
