<?xml version="1.0" encoding="UTF-8"?>
<svg version="1.1" xmlns="http://www.w3.org/2000/svg" width="500" height="136">
<path d="M0 0 C4.01188466 3.45596531 6.07651465 7.23045267 6.69140625 12.45703125 C4.05140625 13.11703125 1.41140625 13.77703125 -1.30859375 14.45703125 C-1.72109375 13.36390625 -2.13359375 12.27078125 -2.55859375 11.14453125 C-3.97974792 7.90272795 -5.02247355 6.05568432 -8.30859375 4.45703125 C-13.00314467 3.39697137 -15.18744591 3.02102931 -19.68359375 4.76953125 C-22.33736026 6.344178 -22.33736026 6.344178 -24.30859375 8.45703125 C-24.87178327 13.04603454 -24.87178327 13.04603454 -23.08129883 17.08813477 C-20.96088584 18.72553397 -19.22592589 19.26189716 -16.6328125 19.921875 C-15.72208984 20.16486328 -14.81136719 20.40785156 -13.87304688 20.65820312 C-11.96701454 21.14603353 -10.0607669 21.63302353 -8.15429688 22.11914062 C-1.71304427 23.83953156 2.90706281 25.67268781 7.69140625 30.45703125 C8.02140625 20.22703125 8.35140625 9.99703125 8.69140625 -0.54296875 C11.33140625 -0.54296875 13.97140625 -0.54296875 16.69140625 -0.54296875 C16.69140625 7.04703125 16.69140625 14.63703125 16.69140625 22.45703125 C25.93140625 22.45703125 35.17140625 22.45703125 44.69140625 22.45703125 C44.69140625 14.86703125 44.69140625 7.27703125 44.69140625 -0.54296875 C47.00140625 -0.54296875 49.31140625 -0.54296875 51.69140625 -0.54296875 C52.18640625 6.38703125 52.18640625 6.38703125 52.69140625 13.45703125 C53.49578125 11.93078125 54.30015625 10.40453125 55.12890625 8.83203125 C59.13268837 2.1810426 64.32412525 -1.79805978 71.81640625 -3.91796875 C80.11975773 -5.25721899 87.72901619 -4.6838297 94.96875 -0.1015625 C99.97545772 3.91685655 102.79463537 8.32996217 104.69140625 14.45703125 C104.69140625 15.11703125 104.69140625 15.77703125 104.69140625 16.45703125 C101.9826129 17.81142793 99.68207357 17.52204576 96.69140625 17.45703125 C96.36269531 16.55210938 96.36269531 16.55210938 96.02734375 15.62890625 C93.88301328 10.22449611 92.23890666 6.92258699 86.69140625 4.45703125 C80.22944105 2.75769092 74.95649223 3.32268664 68.890625 6.09375 C64.20683052 8.99720342 62.32966688 12.81578962 60.37890625 17.83203125 C58.79229471 26.19780121 59.32462137 33.79639294 63.7578125 41.25 C67.56022448 46.33243186 72.56185191 48.22266697 78.62890625 49.26953125 C84.32405748 49.79828804 88.88159841 48.36193517 93.94140625 45.83203125 C98.42234361 41.9621308 100.4044915 37.16532636 101.69140625 31.45703125 C104.00140625 31.78703125 106.31140625 32.11703125 108.69140625 32.45703125 C110.29705656 37.27398219 107.81093937 41.03365779 105.69140625 45.45703125 C101.78314485 51.44969874 96.51083765 54.58990138 89.69140625 56.45703125 C80.78379508 57.48266747 71.32603751 57.6325076 63.69140625 52.45703125 C63.04816406 52.02132812 62.40492188 51.585625 61.7421875 51.13671875 C57.1162528 47.58725942 54.98335169 43.77434468 52.69140625 38.45703125 C52.36140625 43.40703125 52.03140625 48.35703125 51.69140625 53.45703125 C49.38140625 53.45703125 47.07140625 53.45703125 44.69140625 53.45703125 C44.69140625 45.53703125 44.69140625 37.61703125 44.69140625 29.45703125 C35.45140625 29.45703125 26.21140625 29.45703125 16.69140625 29.45703125 C16.69140625 37.37703125 16.69140625 45.29703125 16.69140625 53.45703125 C14.05140625 53.45703125 11.41140625 53.45703125 8.69140625 53.45703125 C8.36140625 51.80703125 8.03140625 50.15703125 7.69140625 48.45703125 C7.24410156 48.86695313 6.79679687 49.276875 6.3359375 49.69921875 C5.73136719 50.23804688 5.12679687 50.776875 4.50390625 51.33203125 C3.91222656 51.86570313 3.32054687 52.399375 2.7109375 52.94921875 C-3.77976858 57.79527784 -11.60756146 57.20815863 -19.30859375 56.45703125 C-25.89739016 54.60769544 -30.4416264 51.18174907 -34.2578125 45.52734375 C-35.82160056 42.44627434 -36.16534086 39.89510056 -36.30859375 36.45703125 C-32.84359375 35.96203125 -32.84359375 35.96203125 -29.30859375 35.45703125 C-29.07785156 35.988125 -28.84710938 36.51921875 -28.609375 37.06640625 C-26.50886406 41.61612955 -24.80574602 44.91516258 -20.30859375 47.45703125 C-14.07751611 49.654306 -9.31935875 49.72343356 -3.12109375 47.4765625 C-0.9770981 46.45080501 -0.9770981 46.45080501 0.69140625 43.45703125 C0.93247951 41.17054277 0.93247951 41.17054277 0.81640625 38.76953125 C0.79835937 37.96128906 0.7803125 37.15304688 0.76171875 36.3203125 C0.73851562 35.70542969 0.7153125 35.09054688 0.69140625 34.45703125 C-4.73737934 32.03683645 -10.50699407 30.84358292 -16.27148438 29.48828125 C-22.63037064 27.89981638 -28.00694828 25.66428629 -32.30859375 20.45703125 C-33.83880245 15.86640516 -34.24997025 11.08162987 -32.58984375 6.453125 C-29.66765433 0.99758589 -26.38669194 -1.80330668 -20.62109375 -3.85546875 C-13.08386284 -5.41685368 -6.3329796 -4.43948267 0 0 Z " fill="#3B3B3A" transform="translate(206.30859375,37.54296875)"/>
<path d="M0 0 C34.86486486 0 34.86486486 0 42 6 C45.26011814 9.97896406 46.7001555 13.86423051 46.37109375 19.01953125 C45.70072453 22.59718593 44.44187169 25.35944583 42 28 C39.12510878 29.95947835 36.15362248 31.53774342 33 33 C33.598125 33.721875 34.19625 34.44375 34.8125 35.1875 C38.17636081 40.13153742 38.87063691 46.23340359 40 52 C42.47266765 51.65555119 42.47266765 51.65555119 45 51 C45.495 50.01 45.495 50.01 46 49 C47.32 49.66 48.64 50.32 50 51 C50 55 50 55 48 57.25 C44.73189842 59.15639259 42.74643613 59.53345294 39.0625 59.7265625 C35.6738745 58.53284215 33.85988205 55.93589964 32 53 C30.89345606 50.49474221 30.11493014 47.94654708 29.375 45.3125 C27.82479921 39.480572 27.82479921 39.480572 24 35 C22.08034352 34.50176904 22.08034352 34.50176904 19.98828125 34.48828125 C19.30548096 34.45516846 18.62268066 34.42205566 17.91918945 34.38793945 C16.62887817 34.35059692 16.62887817 34.35059692 15.3125 34.3125 C12.569375 34.209375 9.82625 34.10625 7 34 C7 41.59 7 49.18 7 57 C4.69 57 2.38 57 0 57 C0 38.19 0 19.38 0 0 Z M7 7 C7 13.6 7 20.2 7 27 C10.54213083 27.08118636 14.08238743 27.14059277 17.625 27.1875 C18.62402344 27.21263672 19.62304688 27.23777344 20.65234375 27.26367188 C27.17429051 27.32845943 31.96495204 26.93387969 36.875 22.1875 C38.41542833 19.19222268 38.47570543 17.329938 38 14 C36.17546674 10.91232833 34.79924435 9.36674187 31.53125 7.8671875 C26.68963206 6.6782061 22.0882645 6.78757122 17.125 6.875 C16.15046875 6.88402344 15.1759375 6.89304687 14.171875 6.90234375 C11.78114328 6.9257823 9.39053901 6.96164911 7 7 Z " fill="#3B3C3B" transform="translate(371,35)"/>
<path d="M0 0 C34.86486486 0 34.86486486 0 42 6 C45.26011814 9.97896406 46.7001555 13.86423051 46.37109375 19.01953125 C45.70072453 22.59718593 44.44187169 25.35944583 42 28 C39.12510878 29.95947835 36.15362248 31.53774342 33 33 C33.598125 33.721875 34.19625 34.44375 34.8125 35.1875 C38.17636081 40.13153742 38.87063691 46.23340359 40 52 C42.47266765 51.65555119 42.47266765 51.65555119 45 51 C45.495 50.01 45.495 50.01 46 49 C47.32 49.66 48.64 50.32 50 51 C50 55 50 55 48 57.25 C44.73189842 59.15639259 42.74643613 59.53345294 39.0625 59.7265625 C35.6738745 58.53284215 33.85988205 55.93589964 32 53 C30.89345606 50.49474221 30.11493014 47.94654708 29.375 45.3125 C27.82479921 39.480572 27.82479921 39.480572 24 35 C22.08034352 34.50176904 22.08034352 34.50176904 19.98828125 34.48828125 C19.30548096 34.45516846 18.62268066 34.42205566 17.91918945 34.38793945 C16.62887817 34.35059692 16.62887817 34.35059692 15.3125 34.3125 C12.569375 34.209375 9.82625 34.10625 7 34 C7 41.59 7 49.18 7 57 C4.69 57 2.38 57 0 57 C0 38.19 0 19.38 0 0 Z M7 7 C7 13.6 7 20.2 7 27 C10.54213083 27.08118636 14.08238743 27.14059277 17.625 27.1875 C18.62402344 27.21263672 19.62304688 27.23777344 20.65234375 27.26367188 C27.17429051 27.32845943 31.96495204 26.93387969 36.875 22.1875 C38.41542833 19.19222268 38.47570543 17.329938 38 14 C36.17546674 10.91232833 34.79924435 9.36674187 31.53125 7.8671875 C26.68963206 6.6782061 22.0882645 6.78757122 17.125 6.875 C16.15046875 6.88402344 15.1759375 6.89304687 14.171875 6.90234375 C11.78114328 6.9257823 9.39053901 6.96164911 7 7 Z " fill="#3C3C3C" transform="translate(76,35)"/>
<path d="M0 0 C5.00670772 4.01841905 7.82588537 8.43152467 9.72265625 14.55859375 C9.72265625 15.21859375 9.72265625 15.87859375 9.72265625 16.55859375 C7.0138629 17.91299043 4.71332357 17.62360826 1.72265625 17.55859375 C1.50351562 16.9553125 1.284375 16.35203125 1.05859375 15.73046875 C-1.08573672 10.32605861 -2.72984334 7.02414949 -8.27734375 4.55859375 C-14.73930895 2.85925342 -20.01225777 3.42424914 -26.078125 6.1953125 C-30.76191948 9.09876592 -32.63908312 12.91735212 -34.58984375 17.93359375 C-36.17645529 26.29936371 -35.64412863 33.89795544 -31.2109375 41.3515625 C-27.40852552 46.43399436 -22.40689809 48.32422947 -16.33984375 49.37109375 C-10.64469252 49.89985054 -6.08715159 48.46349767 -1.02734375 45.93359375 C3.45359361 42.0636933 5.4357415 37.26688886 6.72265625 31.55859375 C9.03265625 31.88859375 11.34265625 32.21859375 13.72265625 32.55859375 C15.32830656 37.37554469 12.84218937 41.13522029 10.72265625 45.55859375 C6.81439485 51.55126124 1.54208765 54.69146388 -5.27734375 56.55859375 C-14.18495492 57.58422997 -23.64271249 57.7340701 -31.27734375 52.55859375 C-31.92058594 52.12289062 -32.56382812 51.6871875 -33.2265625 51.23828125 C-38.66977455 47.06172861 -41.14450178 41.95711966 -43.27734375 35.55859375 C-43.98727949 24.00177095 -43.78177835 14.79786365 -37.52734375 4.74609375 C-27.33311739 -5.16495966 -12.35941756 -7.82268453 0 0 Z " fill="#3B3C3A" transform="translate(301.27734375,37.44140625)"/>
<path d="M0 0 C2.97 0 5.94 0 9 0 C11.77433089 6.14321619 14.3715185 12.32221009 16.8203125 18.6015625 C17.16504608 19.4822641 17.50977966 20.3629657 17.86495972 21.27035522 C18.58698911 23.11699252 19.3079338 24.96405428 20.02783203 26.81152344 C21.12534538 29.62588567 22.2285041 32.43799124 23.33203125 35.25 C24.03680142 37.05455354 24.74123993 38.85923666 25.4453125 40.6640625 C25.77242218 41.49652496 26.09953186 42.32898743 26.43655396 43.18667603 C28.2072165 47.74643241 29.7393108 52.27300906 31 57 C28.36 57 25.72 57 23 57 C20.525 51.06 20.525 51.06 18 45 C9.42 45 0.84 45 -8 45 C-9.65 48.96 -11.3 52.92 -13 57 C-15.64 57 -18.28 57 -21 57 C-20.26938189 52.21171452 -18.54930881 47.92317916 -16.796875 43.4375 C-16.47720764 42.60976074 -16.15754028 41.78202148 -15.82818604 40.92919922 C-14.80590353 38.2846515 -13.77807114 35.64230204 -12.75 33 C-12.07384558 31.25405072 -11.39806075 29.50795827 -10.72265625 27.76171875 C-9.41796244 24.38986635 -8.11127317 21.01879954 -6.80273438 17.6484375 C-4.52162432 11.77081954 -2.25841334 5.8863758 0 0 Z M4 10 C2.57372061 13.68366998 1.1496116 17.36817065 -0.27246094 21.0534668 C-0.75688538 22.30793105 -1.24191004 23.56216368 -1.72753906 24.81616211 C-2.42409214 26.61511705 -3.11833262 28.41496689 -3.8125 30.21484375 C-4.44091797 31.84087524 -4.44091797 31.84087524 -5.08203125 33.49975586 C-6.05744265 35.71254897 -6.05744265 35.71254897 -6 37 C0.93 37 7.86 37 15 37 C14.28865192 32.73191153 13.66588373 29.71227246 12.15234375 25.8203125 C11.79462891 24.8921875 11.43691406 23.9640625 11.06835938 23.0078125 C10.69517578 22.05648437 10.32199219 21.10515625 9.9375 20.125 C9.56044922 19.15046875 9.18339844 18.1759375 8.79492188 17.171875 C7.86835624 14.77922451 6.93659209 12.38873946 6 10 C5.34 10 4.68 10 4 10 Z " fill="#3B3B3B" transform="translate(337,35)"/>
<path d="M0 0 C2.64 0 5.28 0 8 0 C8 7.59 8 15.18 8 23 C17.24 23 26.48 23 36 23 C36 15.41 36 7.82 36 0 C38.31 0 40.62 0 43 0 C43 17.82 43 35.64 43 54 C40.69 54 38.38 54 36 54 C36 46.08 36 38.16 36 30 C26.76 30 17.52 30 8 30 C8 37.92 8 45.84 8 54 C5.36 54 2.72 54 0 54 C-0.88111801 47.35156407 -1.07196872 40.97483884 -0.87890625 34.27734375 C-0.85529526 33.29125626 -0.83168427 32.30516876 -0.80735779 31.28919983 C-0.7314208 28.1717939 -0.64709992 25.05468163 -0.5625 21.9375 C-0.50920908 19.81056075 -0.45646931 17.68360761 -0.40429688 15.55664062 C-0.27590161 10.37091148 -0.13999228 5.18542851 0 0 Z " fill="#9CC063" transform="translate(215,37)"/>
<path d="M0 0 C12.87 0 25.74 0 39 0 C39 2.31 39 4.62 39 7 C28.44 7 17.88 7 7 7 C7 12.94 7 18.88 7 25 C16.57 25 26.14 25 36 25 C36 26.98 36 28.96 36 31 C26.43 31 16.86 31 7 31 C7 37.6 7 44.2 7 51 C17.89 51 28.78 51 40 51 C40 52.98 40 54.96 40 57 C26.8 57 13.6 57 0 57 C0 38.19 0 19.38 0 0 Z " fill="#3C3C3C" transform="translate(129,35)"/>
<path d="M0 0 C11.88 0 23.76 0 36 0 C36 2.31 36 4.62 36 7 C26.43 7 16.86 7 7 7 C7 13.27 7 19.54 7 26 C14.92 26 22.84 26 31 26 C31 27.98 31 29.96 31 32 C23.08 32 15.16 32 7 32 C7 40.25 7 48.5 7 57 C4.69 57 2.38 57 0 57 C0 38.19 0 19.38 0 0 Z " fill="#3C3C3C" transform="translate(36,35)"/>
<path d="M0 0 C14.85 0 29.7 0 45 0 C45 2.31 45 4.62 45 7 C38.73 7 32.46 7 26 7 C26 23.5 26 40 26 57 C23.69 57 21.38 57 19 57 C19 40.5 19 24 19 7 C12.73 7 6.46 7 0 7 C0 4.69 0 2.38 0 0 Z " fill="#3C3C3C" transform="translate(420,35)"/>
<path d="M0 0 C0.71671875 0.44988281 1.4334375 0.89976563 2.171875 1.36328125 C1.02671573 4.79875907 -0.05422491 5.28245903 -3.01171875 7.12109375 C-5.87086722 9.07638238 -8.35265313 11.43604006 -10.8984375 13.77734375 C-15.00210078 17.14999009 -18.29059356 17.7854672 -23.5 17.69921875 C-27.25878299 17.15684402 -29.71236486 15.48464986 -32.828125 13.36328125 C-32.828125 9.36328125 -32.828125 9.36328125 -30.578125 6.80078125 C-28.38736236 4.85896891 -26.21971486 3.04625189 -23.828125 1.36328125 C-29.62324249 4.0290353 -32.26696073 6.89801853 -35.56640625 12.33984375 C-36.828125 14.36328125 -36.828125 14.36328125 -38.828125 16.36328125 C-38.24604432 9.37831306 -36.30552921 3.23330041 -30.890625 -1.51171875 C-20.71340789 -8.57346123 -10.26086126 -5.93826087 0 0 Z " fill="#91C24A" transform="translate(96.828125,16.63671875)"/>
<path d="M0 0 C2.56920078 3.05092592 5 6.25489428 5 10.375 C6.65 9.385 8.3 8.395 10 7.375 C8.19923448 12.2370669 4.22998402 14.86436566 0.0625 17.6875 C-4.41102635 19.17867545 -8.15592756 18.65635748 -12.5625 17.1875 C-18.54291912 14.0341881 -22.71216826 10.31838815 -26 4.375 C-26 3.055 -26 1.735 -26 0.375 C-6.38561705 -3.4588759 -6.38561705 -3.4588759 0 0 Z M-4.1875 11.3125 C-5.81751953 11.60447266 -5.81751953 11.60447266 -7.48046875 11.90234375 C-8.31191406 12.05832031 -9.14335937 12.21429688 -10 12.375 C-10 12.705 -10 13.035 -10 13.375 C-4.28728072 14.9862798 -0.31329355 13.46489546 5 11.375 C1.42619658 10.18373219 -0.50883302 10.6400555 -4.1875 11.3125 Z " fill="#8CC441" transform="translate(393,94.625)"/>
<path d="M0 0 C1.65 0 3.3 0 5 0 C5 17.16 5 34.32 5 52 C3.35 51.67 1.7 51.34 0 51 C0.33 43.08 0.66 35.16 1 27 C-2.96 27.495 -2.96 27.495 -7 28 C-8.7920687 28.01373055 -10.58570718 27.97955397 -12.375 27.87890625 C-13.29667969 27.83056641 -14.21835938 27.78222656 -15.16796875 27.73242188 C-16.10253906 27.67634766 -17.03710938 27.62027344 -18 27.5625 C-19.44826172 27.48418945 -19.44826172 27.48418945 -20.92578125 27.40429688 C-23.2842825 27.27586364 -25.64222045 27.14096811 -28 27 C-27.67 25.68 -27.34 24.36 -27 23 C-18.09 23 -9.18 23 0 23 C0 15.41 0 7.82 0 0 Z " fill="#8CC440" transform="translate(252,38)"/>
<path d="M0 0 C4.29 0 8.58 0 13 0 C13.33 1.65 13.66 3.3 14 5 C12.68 5 11.36 5 10 5 C9.67 6.65 9.34 8.3 9 10 C7.68 10 6.36 10 5 10 C5 10.99 5 11.98 5 13 C-0.23386538 14.74462179 -4.47121226 15.53504397 -10 15 C-13 13 -13 13 -15 11 C-13.79618552 8.50638429 -12.54571278 6.31856917 -11 4 C-7.07989501 3.12886556 -3.82977542 2.62128085 0 4 C0 2.68 0 1.36 0 0 Z " fill="#8DC53E" transform="translate(78,18)"/>
<path d="M0 0 C1.65 0 3.3 0 5 0 C5.85611815 17.40967712 6.06532037 34.5973516 5 52 C3.68 51.67 2.36 51.34 1 51 C0.01874923 33.98581248 -0.11689329 17.03764722 0 0 Z " fill="#8CC440" transform="translate(216,39)"/>
<path d="M0 0 C0.33 0.66 0.66 1.32 1 2 C0.67 2.66 0.34 3.32 0 4 C1.32 4.33 2.64 4.66 4 5 C2.96875 5.474375 1.9375 5.94875 0.875 6.4375 C-3.28719328 8.77609541 -5.30144272 11.95744799 -7.73828125 15.9765625 C-9 18 -9 18 -11 20 C-10.47665159 13.71981905 -8.95163943 7.98772304 -4.40234375 3.3828125 C-2.98311551 2.19508958 -1.49668506 1.08849822 0 0 Z " fill="#93BF4D" transform="translate(69,13)"/>
<path d="M0 0 C0 3 0 3 -1.390625 4.53515625 C-2.31101562 5.29119141 -2.31101562 5.29119141 -3.25 6.0625 C-3.85328125 6.56910156 -4.4565625 7.07570313 -5.078125 7.59765625 C-9.45851961 10.7939198 -12.52731352 11.39090618 -18 11 C-20.21875 9.984375 -20.21875 9.984375 -22 9 C-21.0821875 8.76925781 -20.164375 8.53851563 -19.21875 8.30078125 C-12.05983184 6.39825363 -6.07638817 4.37499948 0 0 Z " fill="#92BC51" transform="translate(402,102)"/>
<path d="M0 0 C7.92 0 15.84 0 24 0 C24 2.31 24 4.62 24 7 C21.03 7 18.06 7 15 7 C15.99 6.67 16.98 6.34 18 6 C18 5.34 18 4.68 18 4 C17.34 3.67 16.68 3.34 16 3 C16.66 2.67 17.32 2.34 18 2 C12.06 1.67 6.12 1.34 0 1 C0 0.67 0 0.34 0 0 Z " fill="#454543" transform="translate(48,35)"/>
<path d="M0 0 C0 3 0 3 -1.828125 4.97265625 C-2.62734375 5.66230469 -3.4265625 6.35195313 -4.25 7.0625 C-5.03890625 7.75472656 -5.8278125 8.44695313 -6.640625 9.16015625 C-10.43471164 12.11879003 -12.91359855 13.2672471 -17.75 13.125 C-18.54921875 13.10695313 -19.3484375 13.08890625 -20.171875 13.0703125 C-20.77515625 13.04710937 -21.3784375 13.02390625 -22 13 C-22 12.67 -22 12.34 -22 12 C-20.35 12 -18.7 12 -17 12 C-16.67 11.34 -16.34 10.68 -16 10 C-14.02 10 -12.04 10 -10 10 C-10 9.01 -10 8.02 -10 7 C-8.68 7 -7.36 7 -6 7 C-5.938125 6.21625 -5.87625 5.4325 -5.8125 4.625 C-5.544375 3.75875 -5.27625 2.8925 -5 2 C-2.4375 0.6875 -2.4375 0.6875 0 0 Z " fill="#95BB55" transform="translate(93,21)"/>
<path d="M0 0 C0.33 0 0.66 0 1 0 C1.33 7.59 1.66 15.18 2 23 C1.01 23 0.02 23 -1 23 C-2.13514087 15.55852095 -2.00040288 8.46967487 -1 1 C-0.67 0.67 -0.34 0.34 0 0 Z " fill="#84A855" transform="translate(216,68)"/>
<path d="M0 0 C7.90331126 -0.61986755 7.90331126 -0.61986755 11.875 1.625 C14.56093053 4.62692236 17 7.8344876 17 12 C16.01 12 15.02 12 14 12 C13.84144531 11.44570312 13.68289063 10.89140625 13.51953125 10.3203125 C12.13831653 5.68925718 12.13831653 5.68925718 8.6875 2.5625 C5.79817338 1.95775722 2.92403943 1.4080055 0 1 C0 0.67 0 0.34 0 0 Z " fill="#95BB59" transform="translate(381,93)"/>
<path d="M0 0 C2.31 0 4.62 0 7 0 C7 0.33 7 0.66 7 1 C5.35 1 3.7 1 2 1 C2.680625 2.11375 2.680625 2.11375 3.375 3.25 C5 6 5 6 6 8.1875 C7.00322742 10.33477942 7.00322742 10.33477942 10 12 C10 12.66 10 13.32 10 14 C6.66865759 12.59504255 4.90666854 11.01145032 2.75 8.125 C2.22921875 7.44695312 1.7084375 6.76890625 1.171875 6.0703125 C0 4 0 4 0 0 Z " fill="#97B760" transform="translate(367,95)"/>
<path d="M0 0 C3 3.75 3 3.75 3 6 C2.01 6.66 1.02 7.32 0 8 C0.27617533 9.94074861 0.27617533 9.94074861 1 12 C1.99 12.66 2.98 13.32 4 14 C4 14.66 4 15.32 4 16 C1.15616877 14.7251791 -1.13754018 13.54862922 -3 11 C-2.71483972 7.9582904 -1.73969465 6.60954198 0 4 C-0.33 3.34 -0.66 2.68 -1 2 C-0.67 1.34 -0.34 0.68 0 0 Z " fill="#353433" transform="translate(266,73)"/>
<path d="M0 0 C3 0 3 0 5 1 C4.04454634 2.46022163 3.08553322 3.91811468 2.125 5.375 C1.59132813 6.18710937 1.05765625 6.99921875 0.5078125 7.8359375 C-1 10 -1 10 -3 12 C-2.49202991 7.6822542 -1.80317221 3.96697886 0 0 Z " fill="#9AB265" transform="translate(61,21)"/>
<path d="M0 0 C2.64 0.33 5.28 0.66 8 1 C8 1.66 8 2.32 8 3 C4.52674819 4.1577506 1.63932552 4.06866652 -2 4 C-2.33 3.34 -2.66 2.68 -3 2 C-2.34 2 -1.68 2 -1 2 C-0.67 1.34 -0.34 0.68 0 0 Z " fill="#8FC048" transform="translate(380,107)"/>
<path d="M0 0 C1.32 0.33 2.64 0.66 4 1 C3.01 2.98 2.02 4.96 1 7 C-1.4375 6.625 -1.4375 6.625 -4 6 C-4.33 5.34 -4.66 4.68 -5 4 C-4.0409375 3.8453125 -4.0409375 3.8453125 -3.0625 3.6875 C-2.381875 3.460625 -1.70125 3.23375 -1 3 C-0.67 2.01 -0.34 1.02 0 0 Z " fill="#353435" transform="translate(275,85)"/>
<path d="M0 0 C4.75481646 0.57634139 7.97048212 2.55068521 12 5 C11.67 5.99 11.34 6.98 11 8 C10.01 7.67 9.02 7.34 8 7 C8 6.34 8 5.68 8 5 C5.36 4.01 2.72 3.02 0 2 C0 1.34 0 0.68 0 0 Z " fill="#9ABB5A" transform="translate(87,13)"/>
<path d="M0 0 C2.89932357 2.39509338 3.50168276 4.31245243 4 8 C3.01 8.33 2.02 8.66 1 9 C-0.61949011 6.42786866 -1.04408751 5.32330841 -0.625 2.25 C-0.41875 1.5075 -0.2125 0.765 0 0 Z " fill="#474441" transform="translate(209,42)"/>
<path d="M0 0 C0 3 0 3 -1.3125 4.38671875 C-2.875 5.59114583 -4.4375 6.79557292 -6 8 C-6 7.34 -6 6.68 -6 6 C-6.66 5.67 -7.32 5.34 -8 5 C-4.04 2.525 -4.04 2.525 0 0 Z " fill="#9DB066" transform="translate(402,102)"/>
<path d="M0 0 C2.5 1.375 2.5 1.375 5 3 C5 3.66 5 4.32 5 5 C5.66 5.66 6.32 6.32 7 7 C3.64404172 6.40072174 1.62198774 5.15377564 -1 3 C-0.67 2.01 -0.34 1.02 0 0 Z " fill="#94BD5B" transform="translate(64,26)"/>
<path d="M0 0 C2.31 0 4.62 0 7 0 C5.25 2 5.25 2 3 4 C1.68 4 0.36 4 -1 4 C-0.67 2.68 -0.34 1.36 0 0 Z " fill="#8DC43D" transform="translate(70,13)"/>
<path d="M0 0 C3.26460973 1.80412643 4.88929795 2.83394693 7 6 C5.35 6 3.7 6 2 6 C1.34 4.02 0.68 2.04 0 0 Z " fill="#343434" transform="translate(358,86)"/>
<path d="M0 0 C2.0625 1.625 2.0625 1.625 4 4 C3.75 7.25 3.75 7.25 3 10 C0.70366176 6.55549263 0.45983515 4.06187717 0 0 Z " fill="#343434" transform="translate(106,78)"/>
</svg>
